<mxfile host="app.diagrams.net" modified="2024-01-17T13:26:33.608Z" agent="Mozilla/5.0 (Windows NT 10.0; Win64; x64) AppleWebKit/537.36 (KHTML, like Gecko) Chrome/120.0.0.0 Safari/537.36 Edg/120.0.0.0" etag="vTjxeix6WujS1tmKX3D1" version="22.1.20" type="device">
  <diagram name="Page-1" id="0LVuOjVu5YdKHwhgez6J">
    <mxGraphModel dx="1426" dy="785" grid="1" gridSize="10" guides="1" tooltips="1" connect="1" arrows="1" fold="1" page="1" pageScale="1" pageWidth="827" pageHeight="1169" math="0" shadow="0">
      <root>
        <mxCell id="0" />
        <mxCell id="1" parent="0" />
        <mxCell id="S-qiJmRuS_3FpjCbaUB7-6" style="edgeStyle=orthogonalEdgeStyle;rounded=0;orthogonalLoop=1;jettySize=auto;html=1;exitX=1;exitY=0.5;exitDx=0;exitDy=0;exitPerimeter=0;entryX=0;entryY=0.5;entryDx=0;entryDy=0;curved=0;" edge="1" parent="1" source="S-qiJmRuS_3FpjCbaUB7-5">
          <mxGeometry relative="1" as="geometry">
            <mxPoint x="130" y="180" as="targetPoint" />
          </mxGeometry>
        </mxCell>
        <mxCell id="S-qiJmRuS_3FpjCbaUB7-5" value="Audio" style="html=1;whiteSpace=wrap;strokeColor=none;fillColor=#0079D6;labelPosition=center;verticalLabelPosition=middle;verticalAlign=top;align=center;fontSize=12;outlineConnect=0;spacingTop=-6;fontColor=#FFFFFF;sketch=0;shape=mxgraph.sitemap.audio;" vertex="1" parent="1">
          <mxGeometry x="20" y="160" width="60" height="40" as="geometry" />
        </mxCell>
        <mxCell id="S-qiJmRuS_3FpjCbaUB7-7" value="" style="image;aspect=fixed;html=1;points=[];align=center;fontSize=12;image=img/lib/azure2/integration/Event_Grid_Subscriptions.svg;" vertex="1" parent="1">
          <mxGeometry x="290" y="115" width="44.66" height="60" as="geometry" />
        </mxCell>
        <mxCell id="S-qiJmRuS_3FpjCbaUB7-19" style="edgeStyle=orthogonalEdgeStyle;rounded=0;orthogonalLoop=1;jettySize=auto;html=1;" edge="1" parent="1" source="S-qiJmRuS_3FpjCbaUB7-9" target="S-qiJmRuS_3FpjCbaUB7-18">
          <mxGeometry relative="1" as="geometry" />
        </mxCell>
        <mxCell id="S-qiJmRuS_3FpjCbaUB7-22" value="Text" style="edgeLabel;html=1;align=center;verticalAlign=middle;resizable=0;points=[];" vertex="1" connectable="0" parent="S-qiJmRuS_3FpjCbaUB7-19">
          <mxGeometry x="-0.6868" y="-8" relative="1" as="geometry">
            <mxPoint as="offset" />
          </mxGeometry>
        </mxCell>
        <mxCell id="S-qiJmRuS_3FpjCbaUB7-9" value="Transcription Function" style="image;aspect=fixed;html=1;points=[];align=center;fontSize=12;image=img/lib/azure2/compute/Function_Apps.svg;" vertex="1" parent="1">
          <mxGeometry x="400" y="132.5" width="107.67" height="95" as="geometry" />
        </mxCell>
        <mxCell id="S-qiJmRuS_3FpjCbaUB7-13" value="Event Grid Subscription" style="edgeStyle=orthogonalEdgeStyle;rounded=0;orthogonalLoop=1;jettySize=auto;html=1;" edge="1" parent="1" source="S-qiJmRuS_3FpjCbaUB7-11" target="S-qiJmRuS_3FpjCbaUB7-9">
          <mxGeometry relative="1" as="geometry" />
        </mxCell>
        <mxCell id="S-qiJmRuS_3FpjCbaUB7-11" value="Blob Storage" style="image;sketch=0;aspect=fixed;html=1;points=[];align=center;fontSize=12;image=img/lib/mscae/BlobBlock.svg;" vertex="1" parent="1">
          <mxGeometry x="130" y="140" width="95.24" height="80" as="geometry" />
        </mxCell>
        <mxCell id="S-qiJmRuS_3FpjCbaUB7-14" value="Speech to Text" style="image;aspect=fixed;html=1;points=[];align=center;fontSize=12;image=img/lib/azure2/ai_machine_learning/Cognitive_Services.svg;" vertex="1" parent="1">
          <mxGeometry x="650" y="132.5" width="99.17" height="73" as="geometry" />
        </mxCell>
        <mxCell id="S-qiJmRuS_3FpjCbaUB7-15" value="Audio transcription" style="edgeStyle=orthogonalEdgeStyle;rounded=0;orthogonalLoop=1;jettySize=auto;html=1;entryX=0.01;entryY=0.65;entryDx=0;entryDy=0;entryPerimeter=0;" edge="1" parent="1" source="S-qiJmRuS_3FpjCbaUB7-9" target="S-qiJmRuS_3FpjCbaUB7-14">
          <mxGeometry relative="1" as="geometry" />
        </mxCell>
        <mxCell id="S-qiJmRuS_3FpjCbaUB7-23" style="edgeStyle=orthogonalEdgeStyle;rounded=0;orthogonalLoop=1;jettySize=auto;html=1;" edge="1" parent="1" source="S-qiJmRuS_3FpjCbaUB7-18" target="S-qiJmRuS_3FpjCbaUB7-21">
          <mxGeometry relative="1" as="geometry" />
        </mxCell>
        <mxCell id="S-qiJmRuS_3FpjCbaUB7-24" style="edgeStyle=orthogonalEdgeStyle;rounded=0;orthogonalLoop=1;jettySize=auto;html=1;" edge="1" parent="1" source="S-qiJmRuS_3FpjCbaUB7-21" target="S-qiJmRuS_3FpjCbaUB7-18">
          <mxGeometry relative="1" as="geometry" />
        </mxCell>
        <mxCell id="S-qiJmRuS_3FpjCbaUB7-18" value="Cosmos DB for transcriptions &lt;br&gt;and summaries" style="image;aspect=fixed;html=1;points=[];align=center;fontSize=12;image=img/lib/azure2/databases/Azure_Cosmos_DB.svg;spacing=14;" vertex="1" parent="1">
          <mxGeometry x="403.84" y="320" width="100" height="100" as="geometry" />
        </mxCell>
        <mxCell id="S-qiJmRuS_3FpjCbaUB7-27" value="Summarization" style="edgeStyle=orthogonalEdgeStyle;rounded=0;orthogonalLoop=1;jettySize=auto;html=1;" edge="1" parent="1" source="S-qiJmRuS_3FpjCbaUB7-21" target="S-qiJmRuS_3FpjCbaUB7-29">
          <mxGeometry x="-0.0026" relative="1" as="geometry">
            <mxPoint x="650" y="557" as="targetPoint" />
            <mxPoint as="offset" />
          </mxGeometry>
        </mxCell>
        <mxCell id="S-qiJmRuS_3FpjCbaUB7-21" value="Summarizer Function" style="image;aspect=fixed;html=1;points=[];align=center;fontSize=12;image=img/lib/azure2/compute/Function_Apps.svg;" vertex="1" parent="1">
          <mxGeometry x="400" y="510" width="107.67" height="95" as="geometry" />
        </mxCell>
        <mxCell id="S-qiJmRuS_3FpjCbaUB7-28" value="" style="shape=image;verticalLabelPosition=bottom;labelBackgroundColor=default;verticalAlign=top;aspect=fixed;imageAspect=0;image=data:image/png,iVBORw0KGgoAAAANSUhEUgAAAPMAAAD3CAYAAADIZ2IpAAAAAXNSR0IArs4c6QAAAARnQU1BAACxjwv8YQUAAAAJcEhZcwAADsMAAA7DAcdvqGQAAJWqSURBVHhe7b0HgGVFlf9/Xn6v03RPZmaACSSBISNBCSJBUFEMGMCAYQ27hnWD7rrrf4Pu/tZdw67L7poVA2ZFQEElCSIgOWdmGAYm93R8+b3/93Pq3u5mHHAGmLGn557X1TfVrVt16nzPORVu3dT6b97YtkbTUpm0tVItSyihhHZMSp03/x3tVA0wp6yRScCcUEI7KqW+2P2GtlXqlmm3LZ1ORacTSiihHY1SXy6e2c7WW5ZPZczaiWVOKKEdlVLnZc9sF5pmmZTazK0EzAkltKNS6uv2qnbJ0tpNWzPxshNKaIel1PkZWeaWrLJc7LolaE4ooR2VUt/Jvq6da2hHB+0EzAkltMNS6nyBOa82c7qdgDmhhHZkGgNzysGcUEIJ7aiU+m7kZgPkBohOKKGEdkhKfS8TLHNbv1oC5oQS2mEp9YO0LHMrgLlhyThzQgntqOSWOeMDzG1BOQFzQgntqKQ285ntTINJI5aAOaGEdmAKKE4ooYR2eErAnFBCU4QSMCeU0BShBMwJJTRFKAFzQglNEUrAnFBCU4QSMCeU0BShBMwJJTRFKAFzQglNEUrAnFBCU4QSMCeU0BShBMwJJTRFKAFzQglNEUrAnFBCU4QSMCeU0BShBMwJJTRFKAFzQglNEUrAnFBCU4QSMCeU0BShBMwJJTRFKAFzQglNEUrAnFBCU4QSMCeU0BShBMwJJTRFKAFzQglNEUrAnFBCU4QSMCeU0BShBMwJJTRFKAFzQglNEUrAnFBCU4QSMCeU0BShBMwJJTRFKAFzQglNEUrAnFBCU4QSMCeU0BShBMwJJTRFKAFzQk4pa211iG4cC+0JIT43YdfD5KUn5/QP/4jV3uqwLSkBc0KSSgnZMw0i/oe9CMhsw8YphsjkpzinAXoTjzf9BYpLvqVh21IC5oREwdY2U1seWgpB0MdFHorw/STa9mL8LEmZb20SJnoZE+E4FnS+KfRsTYgV3bYiPSKhhJDnlKUlpVsTNjXSHjytECCdGguTlTx/ynBbBZgYWrpC2PQ8P/7SumlrwramBMwJOQgzCtmtCBkJ50TgxgEhf1KAdAFZjg8nJ20GsDBmwnH84xzAyapQWxO2NaATMCc0gWJI/uGwOWBuGstJO8T1+GMnJxfF2XqS16HjCMtPOo49kslICZgTcqDRN93cikB87psYIBf6sPt7FMeZjDQRyHGYCGgPHEdBh5vly9MF7tmUOXQ9ePfDc0AJmBNyAWtIeutbEYjfytAZ1pagSkzTcrvTae25yP4ebWMP81kRQKWZsbkQugYpXmhWxOWjLb05vjxdaMEjTyUm0tKZ1HMDwwTMCTkhCBkJ15YGrIkDmRuzaWu0W9ZUSOlCENEQ/EAEYCYzoYbGx4JDiIHb1K9FWVMtawjGLZWZdnRG17YqiCHwB96FoKfBtxZ2+9lTAuaERBJaCdXWhJZCXYJd07YhwQTMbVkeXR0jwBwHKN5ONopBvCmQQ2dYGKpqyrLWALNQ2cyqvJQ04sWWhlYrALfdRhkGbmCVsxkl+BxQAuaEnLA2TQR1K0INayWrXG03LZXPutAHkxPS3FEI+ApuY6Hp4BVgta0KwDUBuZmTP1LIWiOn8gp7rXzaAb41gaZIJp3x5gjAbgnUEOB+Lij13eyZ7UwjYFrJ+zahnYuwQCO5htrBW17/DM6k0jl3n9OttuVkwjJNuZ5KwsdVx+KRftg6xp8buX1OacwiR/mcOHnEJ3zoXEMKizYv3kez2RQoVd6tLEyxlrZiS2CWNca95m7a0Gk8GvHw2VIC5mdDSGeQgSeRV8vmTm7m3O+d2vQE9EzreWJaURqc2jR/dGbNP2o/qxW2/FEANi9/E/BmJO3333KHZbXN6jjVVNs5SojNHw3Mmym/04Tz5NPbxuRRByDAvRTtA4tps2bY3N0WWEqWudpsWCqb8b4B2tBtesi2gOJy946kbXTZWlu9erUDmLsbrYba0nJzojjPhhIwP1Oi8vWPinIPyo+CYOCe4aqh2TmHwCD0uKD1rM5wrJDTuXAv2h/uyx0jDb9Jaesau5tH+NNRFB+Bi47itAjhORJc5cUtT0fO3vLNT5gtnhkyQ2QXCZCpO3ADSShO10n7Ekj3t4eadt6Zf27tFRutoMKnZXm8DRpZm5D96N5wapsStcJjvKOKfGg/M8HyeaediGIyASatH74E7eC6TlTSNRvI1S23W5+d9Tfvt2n7LTbrLnKHbtYNJIgXk2mEwsXBL7Cva/mctWs1t8JWrQdhuGG1Xf3PX7Tljy6zXDorQGOh24qas1pVcaM8bUqbObVZSsD8TIk60z+Yj16dCOa6dmBpDGbqPcuBqJZjJlCwYIA5nFV8wUui4fcgF+5+RXIToWErKMTH0sQUp0VNozjc8tALTdu3O2fvvPRzZs+bHhdG7iTyoENuIpnxpALpfE2WKivrnO5v2ZdPeLdlHtpgRRXcwUwnj9qFUMi+/m11OZ4p6Tn686dHPCA/MQX+hkvMZAPKWROgUk2rZOs2UKhZeXbejn37q+yws083m14yKwWMjBHpp+pKAxnggOukaiboWh2Q5pXuiB4izd568DG78mNft5UX32KdpQ6r1WvWaNQtK1CTD88PIdqPiVwTtoQ2yWFCz4wCuwPjVRVRBXvbUehk6+BUyAuxRYIkLe7DBPwVWbmqLGXDxy+IGd2nsF0oEvonk1STW+VQsqiATmywLPpjR1lWXvEm9Pujkh4f6U2149uuNFFkDeWvLt6y9bpRJIDMSyM1hTJ983KX6KiqdGXt8FedYoedJSD3dgaU1JUI2iHiAcY3Lc3nlhfvxYOucSiFmGIMPnazlm2w6770Y3vwulutWChYtVb1qLlMTv8VFw/nOaAEzM+UVKHuSnrtjtVxZA30p0rMIDARmGPCvSYeVrjGVpc4Zu5uQf4fIStNjiUPkH5uKnqLicxEG3fSY0H1QoVNnCXAHB//0UE8gbxeBOQJWY3KQwhn+cW152PIavgPpis22G2258lH2gvOeoXZTAFZRlk+cXS3iF1PIrSvQwJsQa6fcWWS0/ncsP6tbdr1X/yh3fWDKy0zUJMSCJNQ/D6UpNz/bAZ3KJCfjsLWUgLm54hgPlVJRVLbABjNL93toERwXFHrh/DUhGqCt3B0D3HjFxjkeOk+9H5ozW0f0nN41Jiw6k8gJr8Oag/RJtody1l8ScLpIRz+cUgPj5sU5MNxpkCx3FNSQNEGIIfQSrWsqvbvaHfKZj1/b3vZR//M0ktmWU3N5HbU7AiJRgmLlISsesysiLSLt83ZTLll6eGWXfu58+zmH1xmXRvU7Dba3bpGW1mgzmazChlr1FHt40R+J263lHhuQs+EvA5hd2A5/x3MuoCA8IurmvM1CUVVaK3L76sRMi25fdG0SBcMWQffKrLuQgkUFYIjtj1oXHQwGHHJyE4wzPrHNioUhxNh60MtupHJJJ7AH4nIos9QU/DJLMqvW0oxtqCQD9o24nmIDzDrHSmbdsBCO/0j7zKbW7J2QdfkJ3vfgequmRcAaRcBaJ1jiIq2MU9y0oa41GNW2EyNtOyB8y+x23/4Kyusr+n5Aq40AyCGbRlZ45bSbzQa8nCQlidTzMGt4SRVk9BzQDC9jSULkq8gzez/scAtKxdU7Qv6rLLnDFvX1bJKHuFvCKzEY6gjDHf4rQiGNu6GK2wXirOtEOP2ySIV70+gCac3c/WPSuQHsAJUSoOXk1PI6gpjxFROMy2eC6A11U1m0Qw7+U9eZ8UDdzOTd02PN9htC3D86rqPGW/eSay6QpGhpF35wjCsrR6Wo9IGm/bYRVfbtV/5kZUE5I6majmVtbpcajytZqPpQG5zjHWP+bgJE7eWpwmYnzOKXDbfUklyl6V96aWuZps2UmzZS97zBjv9Xz5gB77xFCsI2PTOOJCbNWu2pOdlpWmGMkGhLoEZEJyr482p7UcOAIiSxCI1Qdqi637kwsyfPBEJpvdku0L74xEgw/I6kPXPXWv9coJ0QaDyXnbxuaWGbTXXtFpPxo5/x6ttzvGHmMkiV1WwtPhOx5QDX8RQHqGh0PI9gBmUbR0rrTKnMNVls9Hr77Vf/s+3LfNIv5VGZallsitKD2UQABzyA3kWJwybPRtKwPwcU5jPG9zNmgBKW6zcYTZdLtyMVxxnfUfsbcf+1VvtTd/4V9vlrONtWa/i0GEqFzwrMNfSDbcUw+majlXlz9Ek/K2hGLaxiPk2yN4YPTfi99wTAI5da3qyCaHTUcAVnMrtmqXkMg83Rm1E/vBj7QE7/k9ea4vOPNlsmho1uq+gQHEZh6ecNHny2mJVUdYErmQFQvRWU89IySKnKilr3PSIff3Dn7Tq/autUEcZyL7n5FJLOcfu9MTwXFIC5ueAxiplbAcNXlebTRZW2n+k0LSjXiNh6dWlPrF8lkRjUa+d+G8ftPd/81O259knW3OfWba2o2bDOYFbkpEryCHU/d7H8kciBPlJoI0kcLICOabYKpNd2MeW43Y2bc1c2gZbFat3pq3cm7EXvf3Vtvc5Z6huFDMeK2wK+gIqhhbgYtl9uqr2PS0FgB0ri7wiZkelRG5Zbj/4f1+w8r2rrbcpE086+tWl1AsCNE6Wt6Si4AkRniNKwPwsicrdlKhAKruhNnG7I22LDnueLXrhUrMu1ZzXviJhBTrbljt+Tzv0399tL/nC39r81x9vffvsavkORajJjshvk0oIiW4v2lyBpgCBGdzcSrppw7LIQ90pW3j8QXb0216humhZWZ4R48xuZh1gqj/ui9ErDeHg5ZKIzj7c5YwscrqitO9ZaRd+9uu28caHbZf0NMvISjN3vSbPKpNRvHrV0tGw1LZicQLmZ0mhNzNo7CAEOqKdJc6mixlLd+TsgBceaun5fVYvKYKbCrnOcrsMN07HuVLaZu632F7+/33AXvLxP7OjP/Qm7ygblHveKsbis43paSUsKphv4/3JS0ydZfiJCSE+tVbnKF6zqSaMrGS9K2uzD1hip77nLLOF06VUM2HUgEgFKkTWWJuCn1Ad4UtDKjppu7utU95hWdOJx/rt5+d+0x6//h61kVNWTBd1j7wA3edTNms1KwB+evonUEj9uSNEK6FnRePCTTuKyuHVtqqscrldt655M2zJkQeYlZh9xLWmNaSltSdXTv6ZKpi3cNr0oMrV6zpub1v89pfb284/1172ltdZuUn36HakCVj9fUHb9MzmgB3H2YyYbubUHyTuiUO80T93m6PAMRuEGeMaqVbPHaDzVxDpx5Cf2xJYm9OLdtaH32uF/Xezdk/WajlZTFnNJnWjuA2BnpuxxOA1lFIJeYJhg9OcrunciNmVX/m+3fPz31hpY8MKVaVTUbtcIK4x9KS0sODasYwAzr0hveeeEjA/Ywo1G6aChKEKzjHxI5VJW0MWtdqZs4NfeoJl9l9o7WJOuFW8TM6yeaYVSb9n1AqTgGVkCXj9sMG0ITW1rE9hXtFm7zo3zI3eHuTICLs8MoTx30T0cM1pbCcmriNSmxOrwJ+tpWABw378OB81wOrKAyK4BdS5vP4XFOp6fENeT17nnH/i8XCq4q955nbpsQ997l8sc+BCG+0xG83UVYNN3aO6YTRB+1kqhWpVQDl4tgVGtq2WlLQcdlxre8zsxv/+gV3zjYutr5yxUqVpnTyTGxUvp/rNZgpiWU4eQkFue1yCcdp6jjw1JWB+FkTV4IKF8UzBWVsED/GoSThKe8yzPV9ynACasbq0vs/8GbuTEN8XekXp7eSlHBekct0u+OGPJRDbyc2eSGMSNgG4E/agKPf+//fITz85/jMlkoKn8ZNI1adqjj0j+ENND4F1ubTgVG8IQMSTKWVEQBY5u/t0O/H9bzJburtZUWBXhcUz9AACHVTCMw8IO5xkg3fMWBWbVNa62nmz9RV76Ee/siu+fYF1jLatq5W1vFve+BfyHPKbVnJ6ip4Xn4/Dc0kJmJ8puZWi8rAEwVJQObh0LHTHVM0T3vIas11nOJfTvk4WIicKMhiSUEBYgY3LD4nIs77pgkts1SMrrFHdzm72JKNY6OETxMaBJ0DzWiPARhnCd7xeXlpp15uWU92wAgpDhCmhMddTsMNedaLNP+MYs2mKpEZyttJWWzar9BiDFrDdDeABoTOsodByl5uK4eH6p7ZSqr9lj/zyerv8vO9bdv2I9epunCoseiqddeXuCkhBf16nqAL2tyUlYH5WBIAB9HiHSDvVslq+bUtecLAteOkLJThisaxCrVGRyyfIqmIRzhAf2fHqtmatESpcslN7ZJVd/vUfWKEmgXW3deelzQEAjhAAdNqttEAnxgK+upiYzxa817k7m/emy0Bny+adeLAd8I5Xmc3MWZOORSLwAkVdGx2kYvRRp0qLmV5ME7F88Kp8jjZdHUOqvYcH7MJPfdVs+Qabl+kSmAuWqbe8bVxtyS/T1pV7lHlX0tpurizPJe3ckvIsCSBTRYxDAlC3yvhkfUU78syXSJpktbMta2YEWVnrAPvgggUgB2ATeEG9OSLJ0t/yG++ywrqyFdX4y8WrUOykhPIDDGyhmF8Q4KBNSwg1AG+lTBtVKxZK1mjVbKDQsDnHLLUTPvIOs1kF8+FfxXTrqerzkQcpTW/rC4ABcUFFE4A07rqS9Lqp3rbc/vddHzVbttE6mSo2wJSvmuXTahc3GYZifoBS8HS2LyVgfhaE+FBrDFe4NpfUsRzr/IP3tmmHLjHrTFlDFqAq8fGlYXD5uEtxg+iNB5CdwZ4M1eyxm++14oaqFQRmd/12YkJRwgPAHPMqVoJwBgHGQufkcjMji31OjjRGrZFP2ewjnmev+PgHrLVkmlWLdaWnuhDocJ1HYw0BiJUaa3wx4sBpLD5pAeaMFG1GgK/ctsJ+8v++ZKkH+216NW9FmuKqtVKuOLZcLoAeI5JXYBPneVtSAuZnST6OqB/tLtrENrvTDj/9BMvsFpbgyUpOYDIhG03nIv44nCNihoKEdv2DK+yRm+6y/GhL7Tm1wXZyMOOX4BHDX/54ASJ4NQCNpomATByBPivwURt4Q2tzVUsfvKud8N43mC2eYU25265P9WO+NW3ckhJ0C6oH+Lpf2iWFOkOFXjVpy8uE50f16AfW2i//+5vWf/OD1jFK55ncbykBetNH6lWlwyz70JmG8mFYizY9PxR8TVsAvS0pSFdCz4io73qrocpqW1Vt4rbaxvMO29tmH3OIv3mDtfammSo4QDL8DzQByJyvS5RqEsL7ltnA8lXWkyp6+5llZXZmQkABCL/xvgmdFJCy+DICEV1YxOMFj5rqYyhXt+Lec+2It7/Spr/oQKul6w5k5z7/QKr+fHKJjmMF0WQhQl3mfwuU44sP1MzW1uwXn/26LbvsRpvVKFpHI2OtRlgvnFllTQGahUhInJ+7/oDZz4Uxbv+iRewJbCNKwPwsyKuO91KLWct2FqxSbNkhrz3FbEYxGm4lBhVLBQeRjC0y50Pgvygnaau2bP39j1pKbWfip+l1cdOxcxMcgGsxkGEJfAzn9RObmOxRSbes3pG1kZk52++Vx9rCVxzjK4WkCwK9dCXWG/JNuNkDu0z08SGtct2y2YI8Ltl7usY3NO2Wz55nD/34KusbUVxdB+5p1TuLE4SAix7lTVe96gmkreB6wcGsk9uQEjA/U/KKkzsmw8n7yhuyNTv6dS+1WcccbCwoQQV67zZxXXoAs5zAqELDmfHgPthozfofWOHuNbOHUggXr+vtxAT/4ADBeSmi91r4dY4CkKpAXC6mbGO+aes72vaCc15hR7/j1WHJH9WBv5KZUWwBj7Fe5z4oc7T5X5jQI8ucZ12uqu4p6+S6qt34xe/bdd/+mfVWMpaT59TiixS6gSEvX9pJB0FJhxBSC/+p13AUicA2pgTMz4KAKnN9K3K2OvecZ4e89VVm3QJgVlckLLTrfF6vhMirNRIk/juIY3lCSmmwSTjW3r/chaTFu9Bqc42Lw85JgJjuBFxh2AevcF/poOIqCnNUzBsumI305u2w17zEjnzL6T4E5S8Y6z44WGsAwqBQA/h0NyMPvJmm++VE+aQegJ+p6Hx/3e780WV2/fd/YcWBhnU0s1aUtWbIqtquhXa33HAHtEIMZtIlxER+47CtKQHzs6B0Lhs6vcTFo86Qez232+dg4/ZJdFS1gSYOFcd1GhkFJ9/SNB4asdG1G70t2JJghRZcHGvnJJqt8fvJEKBwJci+ODTarFgzn7GN6YYtPPIgO/YdbzSbLteI5bYYR1YbGoubymat2qT9qoSwpp5O6Jxi6ClLR6Yu+Zcl1CZe/ovf2s8+8zXLDTaEd5YkZpmglr8BVSxIUTQa/oi8ortyIXMi8jlupQOxF4dtSRPEbOcmH1ZScN2qyuWYLb2j9JY6o6go7RDo1Ki0atbqzNjcg/e0fU84wqyXmKpc3ZOVG8YWwrLEbhZuGamFiQVRJWOVq2Yr77zP282+BKyEJZvl6dimnYOcF5sElqbPCkbpVFjjA56xPguOdipdEMgytsHKNuugRfbSP3292e4dZp1592raAh7vMFOnzJlnsQdqhIUCWLOMA9xu95W0n8aQj7at/5rb7ZL//bZN29i2wlDLujId1kKrpOQtSSFUa75myNjPoSvFEFL3pPx8OOIZkgmcgPjENqIEzBHRgVIXxxETqoJjfgCyoMD5Jq6d2l5NpmuqZprZppXVRtvj5UebLZplbceyrEBD6VTlvvm7sWENqRjQqYaqXDvMQQgT7xXoCpXQ3HnNTZZtZiR4GSswJ1vKQjkh0Z2GIo6MhXy7bqV2RWCo6QQ9x0yfzVpNKrYqcJVlfTuXzLGXv+/1Vjp8vlVnKJ6kOpXKCeLEzVg6K+CrLrKy0i2lhyWWGnazn5bVzcTjUgLyxt/cYd/8u09Z87411jOctq5a1rKqrKwqt6247VRWiiWvZ8jSe+2E5lSYLx4CP1QwSSJNCZi3MzEumBP3celo59Ie4keLqkKVSHBoL9WpEVVYrqW2U0fGpu+70JaefKy/E8sUQVZtdJLQ0VYOrjKJ6pAaFk0U1jHStXtuv8srnM4YFnzjS4HZaIL/zkLIOyGmpspPXxSGlCWIg+/DG2ZqJ+fqltp1mr3p7z5gs4480KygBooUqS8coFhFJYRF9jTlC2Nc8XrySqug+uSbUczfRsum1tetfNP99qNzv2blVRvMKqhaVHh4gYOqI514Mklos08uSsAcER0ZOQUqnGqi0v0tFzqv6OGUu8agJA4WzS4W6xsqNu3l7zrLbP40JM2HJ/hOMdabd+9Iizm6wNa1MhIREWed+bFMVKr2xIrHdE7PFIi5PvnEZdsS5Y3LHO8DZssVLJvP+9tLrNZhah9X8k2rzinYqe89y0qs4tLD8i1SfqorVZvzOy0UAjo6I3kJgxle0pBKmG3Kl7vNZ3PW7B81W97vrvUTN99v01oF65QLz+i1f/WRfFAhpKtNALN2Jhm5PCWkClI1MfkgONTBKvNDAVf1r8LbMwiDNDltrhE5avuedLRNO/Yg7wWpC+9Vhi0UB1CzDatchJaUW+UIzJFceBijwSH3DnDTePsmvMge3bCT0USc1BvirZDEB10YDqLJU2tVrNzVsv3feJLt+soXyivSHXQ6omwVHHikQmcWFTiBk9RpOK8tnR+jDcuMtO2G//mOrbj8FptdKVhRx3maQ4pH08rrUwqBH/UTJIR0JxclYN6EwlxogBi24ReRKpSlX4ZTNevYe5699F1vNFObuVWQAAnkMsbOUIQgnt5HtY/RBGx66rE86KA+OGJFtcfoGc1i2V0IxzY7BzlTQnCsKTj3hU6Gf1j0YbRdtZEes91ffLAd/uZTzWYX/N1kZ5SaNvQywDLAF5tPdscaKzR/sPa8OF5R7ayr2C8+/WW74+fXWseQkpKRLjWy8tLU1lYG4tr3lHjM+NGkowTMEYEzAmDCvQbMANFHJiUoHNEDymtuje6cHfy6k832mCMwy2LIKvuibQIx7bowX5uBEwAdCFnbFJhBTALVR8uWpZNG97QlaFxjaRrvdd0ZKGIGLJoY+EhP1n9Y3YYNFRo2/9il9rK/fZelF/dJkapeHLTimbyhMJ0EZapzYUBax94KUlqqDynZBhWBuV03ar/54nftth/+yrL9detpF63YyKitrefR7EqHd53HlG6ULjUydmoSUQLmiKgg2kYTiQpDz7NaRdqXgRGQi2azDt3DdjvlcLXTJCISQsCOsLFsDRo/7uiCuQTkFGOQovdGB6Trs4n9AfqndAc39FtGLiVtOkSSzplMNh7cmuI0EcjwQwqT6ZXOA2ZuoRalKCuywKn9drFX/tP7zRb1WTqLsqUPQwzPi2tKh5azfHP3jiqqUV+sQOm5WlYE/5YX3tdAyx654Cq7/psXW+cAQ1dZ3UM8Zt0xS0A/1TmeGPUb1HIAczyXe7IRspaQyDWuhyBbcS8oww5Qji/mq1Fbn1mw57/2ZCvsN18nuRI6Q1x7e3Dp4YKnE4fxnYkU0kZMaiOyzNohHeSZyLTXQoypQU/iR0zRgStNWVaCf69K20xWylJKkFGCoXzDinvvYmd+7H1mC2WRmbEB55xZod4gqoROLTwaOh/r2rqSVp3QIZYaVfz1LVvzs9/Yr879thU31K1YDSrXm0YoEvad83hIUYgqgg31lYB50hNal6pq+yty1GBYcID31xtWk9rf5ah9bfcTDrNqSbEmci/UvSjUMpXP5Tg4cUmBJzh5fD1D50aHhn2hdaK4dRK5UE8lUrECd55MobRSXmpmuBVVAIwNWchqq2YjmarV53fbC9/+aus98nnW6Mn7GmsxkCH+O3ujU+4e60d6blc5z2IC5ZRt/OXv7LL//rYVlg1Zd0VudSrvAKYeAKlvPZmQmKeg3TFAb64Qk4AmiuNOTa59CXGFxftUrCzDaGfaBqdn7eR3vd5sTpeAzFzfKDKRCBIcOBpXNsylBeeAjgDK/zjEhABVaDMzDCby60rLLXOU1lSjTYtFOX3VD5XZvSGVn0+eDpdatrqvZYe/8xW2+8uP9SEoXO48mpT4dBZixXUL3HN+KQ3cas7lVQMo5syozPKo/q67y37w6S/YyMOrrNjMWL6ZtYLAzOIGGVeeIbD8ky/Pq7z4T/skPXGxhMlGQXoSkgBIfhAItjoI7rWCBKPcqNrGQlNAfoPlD1wiXy50bVHJ8VpPPsVTQuXDURwrAGDGJH31i1hISJXr2kLBAmjbaKrdrUSiCx6P2kFBTDHaXInwRrDIvCXmbzkpVGtVGxSYjzrndDvgbWcIyFKN8qNZxdRb0sRXVLaehgL89HnxGYE4lQ3eDssCCbi12x+0733q8zb80CpLDdctlwbEGUtVG1Sp15MrXQE5NLkU8MwcuRPArBCm5U4uSsAckVeUQt6B1/bVNYN71bZsIWcLDt/X9j79RWb0nnpTLgATYQLAHpQAwcEcpcm4pE9U8DPAP/xnG2t9tvSS+2LpoiDMvufxdgaKV2wBxLSVmf1WKBTtgNOOs+PeK2+oS5GKArAsqH8O1e9yDjv/mKIZuq3EV1lrOE6/WLsqi6zKaT74mP3sy+fbhjuXWamds1y2YCMNVipJW1H/87ozJ8scrLPSwTLLledFDADt2FXiyAhzElAmk412SjAHEdgk8E8i4PBBE8sINORKV/Oq4HnT7HiWzZ3Xq/OqStU3L0fQFoPoLMOic0QybDmGfF0phCudkUCEj4dxnamhTCxJ6Ry9q5l8wWpYJdLGQij1lPLBsOhUIQBBk4IA0aZlwYCCAqux4Mo2Ci0bztWsv6dps05Zaif9yZlmMzq9PiAUHlaXBYiZG43KBVjMDOPby8CYmfBN+MtVpn4t22i/+sy3bNXld9jMoax11/Peew3oq7oc5slTJ2FI0V++kFvEnG3Wu/bxZjIvolpjJTzZaAqJytYRVTMxxNUTxIBuz5ZVJDKjxbYtPuEwm3XI3lblaxNwTKaXxWogv18ADG22yJoT3MLj8qWUigDtVwKRhD9PbWSUCMqg2NFpNd2DgHubTxsfEgtaZkoQ5Xcwsw8otQ0z72Q5m7z6IOWZqtvGvOC1R58d+aevshSjBvmIB55AlIbubzonVRcCGqCjlyt8Ajco5RRLMa0Ztp984r9t5a9usWnr29Zby1uxJqXKpJB0lrcd3QtjXkGYrad0ADBAjkKKHlA9g9oh7+EJk4/gxk5HyEQcxsgri6Vx+UC6dG+9bpnughUWz7Klb3yJ2cxOPGxpcwWfpx06WAikhFXZNE0MvANbwS1ydBHRnBi4qaOny1/Z40SMX08vUgpTgSiWtzVVwFCq8PbZqBjDErUAMQfId5lmb/nHv7DSIXuFsSa/USF2a3QzqtTHlGWRW7ydpmuOZ3lAOM1ZvlGztm7X/d93bNmVN1lt44i/DllWPMaJeYupKHOcFzKZ7BNlaIcmWLNTUlx3bAloadxgy+UkFNLG2t2o2j72La+0zgMXjgkVs4diNxFwAliIc2jsOL2YiOMyOHYhXCWJcZEGzN3+Bg9+AcLOj4kPtB2nDqmkAnPsstJb7B9qE7LqardUc23Lqinz6g+83bqfv29YFDE4QL7gA2AlILQo0bAap0jNFWZn1sUrOtByzBRZU7F7vnmx3faTK6xnqG3d6aJAT9NJfNVlFGxO95MGHV8hRzs27bRghoBSHGgvpTJ5q/tYpwRMvu/iE59vi8843prdqmomKfisA+K2JTS6S0Lgwc+FQFoTCbADZu8Ii64iODA+nAtnu6b3hI+X6UcHGO1A0gbQU4mADUCEL3XtsHQPXYAsvcSQ3/PPfrntevJRZtPMBkttqwng9Cb7QvQK7HufggfxiY4zwKy00/Q/0Ps40LYVl1xv137jIss9MWI9Msc5tZ3lNLt7Tg3wfNrYzLGLleqOTjsnmMHJJgGtzoJvBbleNVmD/P4L7KV/9Xa51yxzTj+pnO8c1pKWlX70TLkMIJD0pIZDJeVhjPyAK3HwuwOYFeKbcnNmWLsjJxce0Qq/qUYACMXmJVOZfdhOyoox+/WdTVvyimNsr7NPMZsuB1qeUOBUdKPf9fuBekMBa8eyDcFVQB76xc3203//ilUeH7C2QEyNlXLhEzK41j7fRAmzzmZcb1OBdi4wIxkKT6o8lxZt1F6tt+oCtKxBV9YOeO1JZrv1+Zpe1m7IjaMl3fS1otwy+H1BoBAIiFN05vibV0iLaEzsEMhwyml8N4ohy5zpLnm7zt14TiuWD1NNEaIk4wIHkMVRIWuUb3Od9Hw75gNvNdu1y9pdoS2N5QxWMwT2x46VmFtqVQTvluf5dMigzt+z0r77D5+z4hMVy1b0vHTO6qqLWrUu54q3obgVCy8wKzNhnDpi9w5OOxeYRVg88IF7hoOHhQV3vriP2m0NWQTeU158+jFqyCJOqn0BndcSwxCUhJAEtN9shLWgGNZg+iFzq7PlptU2jppVlZ4acgCdvlXmCNPeizmuFESIkBQDn70opGz/ow6zSov+dJ6qa/IUEN+pQ5RXDRrW5YKn4klFQJ5z1L52+kfeLTe7aFV5OeUUapMveqj9qztocoSxXfivf2KJ91FEzZE041QCbuvWh+38j33WsiuGrGtYLOV1thRDUBmfzknd41b7VFGlX1NiLE5P230qsHlKgpl6icMY6QA5EBaFEZaxbYb2FucUGqmGVTtUwYt67LDXnGTFBTNcoHxKJWYYxHOvB50jcXq1BXKcwZLEJDfctOqj6+3mX11jo2sHJHi6LoEDkHSwCeubUEjQ05LcHXLMkZJAnPrwXBZan0pEORnlacnLaaQbNiB+dx262F764Xea7THbu6dRmLx95v0M7pWE4KCN6sDPaZ/jHIvwDYqz9zxul37hu9Z/+7LoG11pWWEpYGlT4vn0WN3p48nhdk8qBJ6x49OUBDMUV8/vVZNONPm4l7YsG8PQDxXL1wEHizU7/K0vs87D9w5tNiyIA14R3BoTQjLeEZPNSil415n5QlUKj153h13z40utum7IPy+jKy5E3MbspQlJ+EUf0kJDSJAXHLrUcp1Fxdc5YqFEXKCnBjVkcUdZPkCILWca1l4y0058/9mWWbqrtejoUpkZnXMPR4xyRQqznGkEUoEfEZBh7ID+DbXsonO/Yfdd9jvrHpHFR2MoDp1huNV8UI4fL814p1vE0rAJynYq0JQFM7S5Kkr7i8WqYNZ+krvl+wL1QK5qu7/4QNv3ba806xOSJTi4grKPCrKqjFUJ2IGCcNRl3fkWVBZ1PywTsWKDXf61H1pt+TprrR/hVSvvAMfKBPtNepFMRtuQkvaI1FWy3pkzgrAJyHgPyPBUIcDayqdsKFu3gd6MHfmeM236cQeJ31lL6bw3N1Bg9UbUSRX1Po/xgP3ogHe/h8T4taN2xSc/b/f/4jqbXi9425l74KEPX0VghtM+1zq6Hf0ZXjlVrUwRJk9pMG+Wonpj/DaekFGr161r8Rw77U/fKAspAUGSxBkMuPbcstIj6guoR8IFxFEM6IM0S+UOVu2iz33J1t35kGX6K9ZYr0YbkoN1DslZg5fmeWBEQcQiQAPmTMt2Xbx7aFvrIRPjTgXiBYl2u2mVvoId/ZZX2vNec7Lx2VtmXFL+8MqnQjYoTgCnS4FJbHTgYIx3Nozajd/6id3wg0usr5q1XLllqWhivCtIhWB346D0aL7oEkCno5J9zk8F2unA7G61flg9gIlL2zOzz17ytjOtsHQ3BxQ1TOcoRhy807+CmCEOcQ+oT9dUSDFbQYB98PLf2F1XXm+9dVlqAXtk1XrdKOFSfFxHAM1CfZ4H/z9OHDMryToKNm/3BS6nWDGfyPJ0osalzYVJQVEpJ+ZHYE2Ltwef8WJ7/rvDyxNtNW9weNw4uiekfUCvbUrWF77F5XKLq12/ONqwWy76lV37w5/b9GrGulQx+SbdZPAYH4ho4z+OxsenA6DjdjhKw6Ps4DQlwYwoxJMBXJYkBGFPFcc6W2h9qeZRNXIHe9tWPGU/W3Da0RIuSRZfYxSKveMEXHOXKh8RadUaakojeeBXadKJVm5Y7foH7MavXGy7DBStt9FpHYNm6259SHfIrSO5SAKzOaYtkAuOtN9mAT9e09M+F4oty+w7y2py8wE3Qyo+K21z5AULMrhp2B7EcyiWg1BHvG3Eh8xTKfFECOwoFqwuLtEzXc2nvf070p2yeW880o56j5oyc3Imr9gVo4PJU6G8MELnSFf8qqUbqqeKWiw1SzdUd4OqmH7x9+Kb7Nr//KEVV1Ssq5JziwyUc56XUPfjBLgngjZc5WWXqBSc3OEpcG4KkuNHNFZ/EdHpxViyYGbVzrTl9pxtJ73/LAlXtwAkCcpELIlu4lRRkoVblqd3GUvsIJMlAOIbynbXRb+2kfuesM5RqZCRpnU3C/bwjXdKZnRd0Vty41sNpiiMCw/ChVA5GhT8qcW0de8z33oXzbW6QEDnmsd5CppYrifRU9/ynNLE54915FE28WtodNiKhYKsbNvKrZrVuwvWKc/nUFbU3K3XWgIp5pGsumX2O0lH2Y8OuMYgFXXV4KuYtD9qWatefbd9/aOftuKamnXomJcm/EaerbgOVdKIzvhTIj4TouTHwlShKQlmXz9ZKGTrdSxCQKjGSrtufCCdSh/sSdtL3vsms0UzI04oMvExhhFncMcAcruBqeauqCNFaVi5bSt/e7v97uIrtR8WkWPVCtpi6x5bZcMPPhq+XyRQh463IEg8gnS9/UfgJLOYtN+5cIEt2m9vS+XlHUjKsTaTlwIYyT/8bii/eBx1/c8U8lZr1KQA6dhqW3XP6XbqX77D+g7a1/mIt5Kr637xFZ0VVJxYwD9IW3iEwuRjjjk+CTNQtQ2/udW++c//aaWNNe+tRgHXxFqvE1nk+PadkaYkmEEFQuWvtSmE3kqquSXPTUAvpHwJoOPe9mqbf9IRPizkQ1GKh3D4WKgCt7lwseKmJ4HIyRUGtPiHKzbaL7/4PUuvGraSEsF68LK71ZuWbaTs1l9do7adEnDXUfElbNgZb4grDU/N043OsT+tw2btuZu1SyyEH1xGP79pmLC7adgeEs1zaNH7w5xXged8fJyPtlXrfBvKbDgnpbd4up30wTfatGP3MyvRGaEL3EqHoHgKECFPgfLCGc4ppGR1O1IdlhtSNdy10i7+jy9b7eE1VqwoGo+OAn0XKFr6NJynOyEhZVOUBEoJWKjYIBhhSmXb+lNlW3TqkXbEOa8x69bVjiBbRAVg3ntNfD9LoCMrWFUXHhIdrNkln/u6Dd39mC8Kl6kiSrooDZDS9XSjbQ/fcLsstlLE9LiQjj8HcjCHXZ1UVeARFM2mL55vjY6stZp1ZZd0w32bBqenvLDtibW4wk4AMnYa1qTVVMnJMo+2qlabWbTTPvQW2/30o6zVZVZh+ImmTKTAWNgehnC3Ky7niLbUFUlzkUkhD/XbT/7tS1a+fYVNq2asKJDjAbGwQ7yqKUoh/uDfzkhTEsxULG4c7jHAaWjHP+OZalo5VbO+AxbZ0jef5h/kbpVwEVX9ihjJj4uCB51DQHibyT8ox0UZGhus270XXmm3/ugK6x5MWWeTLyqnrJgtueVN53JuoYceWGm2ekAJI60ILbmJ0hFx5Gc4j2VjORwZrul77GqZudN8VhqO/aSkmEkTyMujc1mVpdyoWGuXbjv8zS+zXU49zF9nZNJIpPLkCcmud8ibkRvO1EpXBYCZ4iohWr4EG9HxUNou/eSXbc2191hvJWf1SsXX98pKYWZlkRmAgO/u9ezENCXBDAEuZhGlcGdVyoYAWZEKry3olnv9Ktvl8Of5sAiWBPfZBUkEQ1woFRA7vGlcb6wOSwXRTm7e/ajd8O2f2cxq3jposLXTllebrtEQ0mVpmIedzeatvnrQ+m+/X4kpEcCqZ5A+z6Qvx5/FYznWtbH523P7bPZ+i63BrCjle0tFlDzHYZtSnKHYXZbn0WrDnGBdq626VbqztvupR9jhZ7/MbE6nAFsTCwQ+eSA+PVYW2hc/dM4qKdIh6Jq/l6a6o4/MHhu0q/79y3bHJddaqSI7rfZzZ6bT3WoW62NxPW5ko7sc2Gx3RkJ0phxlZAX9nWAJFta55S9QtG242LLDzznddjvtBdbkY28uNoojIQNvCBPCEFt0ZAthY5zZwYxwrR62q7/5Uxu+dZl1j8oaN5lLLSsCUJUI1scVQLNl01o5u/mK31pDLriTEsQC8UOQ8R4AM+DGrc/l1XCHujJ2xOkvtmZHxt1GMkNetoTI9/Ygt6/xw+pN41tb8JmvftRLKdvj+EPtRR8422xBrzwbhqxaPt6OwAG8AGSSUD1xjqaIgAyL+X6183p92a4776d207cvselyofI+8KS6xbWW1uMNNepPrFdC1Ddg1rktZdYUoykJZjpVACdreLXzCErD1mYrtterjrcD3/5q+bEFCVb4nAzA5YWLiWgBcDAGUcFdLklsWJbKRlK25je3212XXmcdA3wp0J1DX5CdVRxDl1awNHSaMYnhifsesdGV6yXwuqJzboFELn/6R3Cr4j3BXECozWYfvtRy83utzORiSHGI91T0NJe2GVFSB3UhY3W51U3ltb9Ut67DFtmJf/suy8zvkwWWJ1Orqx2dU52Mixv5pQMNeKplIWudFpBllVXcLKvsravbLd/8uV3/7Yutt6zjitAtL4uhRZQ1L6P4B+91L6kWdB91iSJ9Oj5NZRrn7hQirHJTrl5LpmDQqlYpytOTW33S+94kIEt06GiiwrEGkh6s6jgaQBebAErcuBzrLo8oLNtg5/3LuZZZV7PuZtE7wmgFYj15L5flWdNMJJHQlTJSFXVdHajYunuWe0dYOqNnkzbJh82TqN6Q0LOjdHglctERS60sD8Kzw/kJ25jIY5z1sSJsF5Kqg308NC9L2V3w+e29hy+xM//lQ2YLp/krpMx/z+dyvmRPXRbcFZhuwWsKS/awL4VIf4HawAXaGevrNvzb++zqL/7IugZb1psWr3Gr0+Kf6qzalGbFiiuqK0Klh0JgLzSJdk6akmAOq4HIWpbSNlhoWmbRdDvpvW80WzIzArKqG+mi1t01joSS86K419uFjgn9w4q7vN++9/efsuK6htpuOQkXLrGeonh0rPEuNBMcshI2rERagptP5ay6YciG7n3ULXMsZf6osOvngictq01t8OycduSaLj3haBuS3/8kS6P9KJkxmpjexP1tSc4q8YZmSEV5HFWh5x7xPDvhL6Uw951tzWkqgxQqoG1IqTGrjkX7KKKXl/t1msKwy1rZvLJoA2Ybrr7Dvv63/2Glx0asOCJlWa1ZR74oz4YuMbwl5vc9mQ/BS6DWg7e0MxK8nXqkukxhLfXLzO62I9/9Opt71IGyICpuLAEMiQg0TW1xqgFMCIAzyJkLHChfN2w3fPsn9tjv7raOalrWI0/KrgRCB1XcW95y15GX7nM0hCG5hxvvE5g3DiutcIorY4zXAc9xIZXA+5tceAq5rM3ee6H1LpgTRZxAUdJ/fFI7VdmlLdyz3+72kg+82WYcv781O7GQKqwbUllmudjMuSHbWPNQB1FFSJkyhOhzAUYatvKqm+zC//yqFZ4Ytt5azopSiCzSR5ua+fT0c1A7vAlVivhZETOHlQnmFBR1Dmu/M9LkB7NLANIeQrCa4TSZ9wLoAOywhAzC4e2pTMOtxdGvPdX2YwmgXiyp7qWiGR9V1JqEIx7OAJLByvqhLqd9vi8rpK+67k676cIrrDjYsE5Z5AzDIsVimFiiuLGlITAuShJZgCnXsVmu2WO33WcjK9d6uh5DD3mSwEX7KAUWTnCiYHOn20HHPF9CGvJGGT0qz4q24a7wi2l8bxuTXAlGDeh/eNvf/bnNOXp//6BeNZqqSZ4zUaceM2HRUeOZUwl0H1YUfmRrAuT9j9kvv3C+Dd253DqGWlZsyT2vNSxfyLtSoMnNcsThxyokITHWvq4qwB93vPzszkeOhclNQUxdXBHoSEioMCquIM2dkvvGetcVCVc6V7BKtm3rOmq2+IwX2uHve4M15PKxgoyXlhsBvSgn4MSnwgpfepKAnpbJzfBe3qAOb1lhV33+x5ZePmSzrNOHulgPbKRR1h0+EiorkbVSIy/3uqA08lZXnkbaQU10FUq2evnjtop284Daew3UhoRRbUBvs3uHVzBX/OeFBDd1NALVTNjniAMtO71kVZWphlmTlXNdROAJDnLlxLekEpdo25IrvSz8VijIW6Gzq5MVq1k2TS6zCpDOiul4QKooisRunDV40KRdoYSY8moPrrNLP/UVq/zuIeutZuVE5W1I/OHj6K1q3Zh1l6EDEf4pDTq7+aIFKbFIARaZfZYd8mWAdkKCvZOfVDlUIMLq448EF+XQCdJoNnRerpcEa6hVsdHujC0+6Qg77f3n+DBPUxLGlxyBq5tEBf9+EEkrxDIGmOqAiQeVtV1XsZ9/6Tu2+vYHrUMJ4DnyXO/9joAc52fcXuisrjNjzJnLB+F0372/u83fpczxzWHiyCqxQQBDTlQabUjDiZuVz+KMHsvN7PaJL/TkNlVW8gDx3+8ONzoFNfdHoIiJPD0OY5kSsUcd+que2nqWFTjH8arVq+yBhx8Su+pugeFvFg2gP7gTKESGx7jUuOdcwzOibc4RqnJnJWfb5CesTrA8PpYYgQfN3swKNKr0toSgUh6yepfZ7EP3sFP+9E1mu063VilldWl1hIaZXMz2YkiDZQJIE4IJQTlIhASYlrQ/iw1c+X/n2UO/vtG6pDFoA4dJHxIiAZRtEK0QIO73NjcihcXluXW5ie20Lb/rfpkSWZo61xQRMENsMLXsaj9Oy3dkyorzZlnXbnOCSy+33cfOo3vjuPDFC6jgefCzk49cWcaZViZxSMh2U/pt7v572Mlnv0aV12WVXBjqo7eb5oqDdnPBOTCeIHsAOz6zs9EOAebwUjmVr2pygWVlTQUJA6t3pAUc1pWqd6esf1rTTnzP6y2z367+df2RVsNfroDoMXVL5keh8ICDtN3hVtqpOq5c2h685Bq78YeX+ts5RSyqAIki4W0pxjl5qcJBGRG7BAQ27rDJyf3nPoa2qk9ssOrdD/mbPmMWyTvftB/dzCt+DKtx6MSCgbP7rG//hVZnNpisMm3UtExXrEwgTyvKAftj909S8vzGmRdRrTW56Ie89lTb85SjbagnYxvbZdUXes79Z5WJgkXBbwbQE045/5CMyV76bUc7AJiDkLpF8nqK3CwFB6NAwyuNIyz3s6Db3vVvH7aeY5Zaa1rO2gJzoZBVJcsiNmoCDXdFICYoTYBFYOpnSSAu1tK29jd3+Fpe3SNyc+VuF9T+Y+pgXm1BBxMuND06Al6QpECRrvHzAA6UMku7ILOaHarZL87/sbSPrmG0o/iIKq9HMqFiPCURadEp0JWyXY/c3/LTO719Shzyngm+qJNbZi8I6YbtZCRyTCPDFaqYQOAIynaofd2Tt1P+/B226zEHWrk3a4OtEau1aVCjAFFe4h3bKES3OjkLCGjGCed3JhqXiElOAFnGyYlOZgIzuLC19UzTMrv22ikfPMumnXCAhELX6YkRMUyUlVucF8AQJEYow/CRDiZWOnM2WWHz/rV25Zd/YJV7V1pHOeVApN8Jr4A88H6tTz2kPReRW1ptPXDg6oYNCkhKQGl01TN2z9U3WoNebd2OzAVRVswoqbC0bJyOrlM7Ksesg5bYtF1nq1khf0TncbMBM7GJN066058/OQmgZeXRwND4czP4IXzzyYveqQLv0mGv/si7bd4Ll9pIJ3ULl4KgBg8KWQigZinjAOzAQtIPzvfk5cG2pB0AzKosrKCslws+la8NgTm/A1m1led12tFvOd0WvfSFArIcrSztLVW6wOTuOQggYDFJEflwGdGRBMCrnhleq2v2s898zR6/7i7rrsnxruHM44CzSiS9pw2ryJay8Bw9q9zo9/p/DpSWArsImJ9lX8/Kq7GYHarbI6xAwsJzOkdTmTiOSO24VY2IPZ5Jx112do/N2Xt3q+bpqVV7Us/HGwkqI7ZS7Efp/ZEp/thdvGii8wRiriauiA69fJyLdlo15nbLcSnoeMlse/VfvtNmHbfUBkvyqqTFeVEGZ4Q3slDKeRZ8iMuuLclMYMNOSTsAmKnrlPcy8/2InNqrvBKr2rdyTuCambf9X32C7XfWy9S+7LR6Qe1ZIZghJEeSqtkXiNM9CE8MNq4xo4ilfdoCrQ237JYvfNfu5e2cjWpnVyU4Mo1uhUUNAKQ0/CUpbbN0koXkHVKBwgmOCagJfggci7V3NjK28rb73AvAwkC8+wtFSTnF6XFMb31LAr5g6R42nGn4pAleamD1Ei+PYofe9EDjefnjUexhQBP3g/mFH+Q64pPXR+jUozyMGeONZPbbzY4+5wx5JYutX+52Jdvwbzc3vKnUliIMU183La/zcdOTOwlNejBT5RhBhJpxViqx0SxbO9e0jdNaNvfEg+zoD57tnzbh0zL+wZgYFZAqlplaPokfMZB6Z1I/62D7BA1ZivRI05b95DK79hsXWudQ09vNBUkUywDxaiMWgFVLKnKtmZxA8lgHCMEJsuNixBPGAmdQRIyVZuQSFqQN+u9dbtY/4s+VfnBCwcRWmf+kh0cxRnIzlhy+1ModGWvy8TqeKQVFUwOaGDc69UclL0+kBMesssh7+FWPeC0sKsAIgVtWMs0HB9goOKA7UrbLiw62Y99yhmV267X+bNVqHWn/KiRvpmVUf3CLe0gvoR0AzFA2zVwfVVsuYzW50MN5udfTzPY49Qh75T9+wL/U6AsMKK5PVnCJ0YE2vtqIdrnGKf8wtwSI1xV95sFA01Zddatd+Y0fW3G4ad2povc4AzYAjbAFQEYg0i0xcRzLUXx+rP2mwHND+z7Am8kNw8uesKF7HgptdLKiDbFJi/hOnIzSoYI8Bwt3sTn7L/HhNdxResxpUxM1alb6fng+e3888h75CMQTt+TbPyjPOHz0c2uNguWagpdbiPbP25ayNv/Fz7cT33Wm2W7TbG2mbCNiYkXNK75OEWo8ELf6lvvHT+9UNOnB7PXLGzPZbOi1zjRtqCdlC158sL3kz99iNrdkFZb9ke9NT3OKdq6Em8kJAcik4GKjwqq9hXsqF1lJ0Qi22p3L7PLPfcPXlWLFEIamMm2lpDS4K7w+EQgLGL5d5Fj3tBnvjCk8SQGB0tYBigXFzdcZrFH18Q22/LZ7fM42z3ByUAYITpRDB7KsWYqXQmSVDz3pGH/dktYytwIO6MleglKYmMgfgRos0rAJ1etqZ6hJ4fPZPd/65/lEUQa9Sv6jrgjLyFJ7b/70vO3xhlPsRXK5GzOLNqSmVSMvPnrNTCiqdmK+76w06cFMDXuvpUBWyGStMa1g0w/fy075yDu9o6SmHy+pI9BtSQSTDHh5Pa5oB6CuM3Ejg5lEpgRoX8ViY9W+/5nP2+iND1hhqGHNRltGI+uAL6XzSgPHPKO2smCtdPh2M5P7ERjazq4wtM8ZznmYIFAAnUd6u1dbrHym3LDHH5KrPVweYz4LGZDX4DRGRDoKvs4WLqs8kv2PPswKPV3KlWLKwo252WHjNBkEOivFy2w1XG3mp2OpfYlj/RgJhqthJljIKXWEvqJK4JWXT0WmA7It5W29KTv4rFfYaW890xqdWauqOdXOM5kk1HEg0uIJYbsz0kQ52C4UM9uBoMBQjtstl0JZIT8ezxhtwywTQuReDRYblt9nF3vNR94rH3uOd5TkiixtGyqfTm+aZQi6/1wR6Dzq3kFB1Sv10aZVl6+z8//m32zl1XfajHLJOltqGyt+uy5RkhDyhk4uzVxr8hXySJ489yQTbTkHoAnRaSff57oC+QtEOzFr/SvWWHXtoCsgrvsH6tj3Y/ZE2riV9UP9k2uan9FrhTm9YQKJ8sdCdlBd14MnwnMI7jN42p5nTyb8uKqNFAE9xOJDRpauqHOyduMFjDYeGeIoomiXbPosOlKE6Sgc57GiYH5H1IK5Zbnz11aXVQdq7/OFD/3cyVYC3EsRAKWw6XyCJ4A/vGMu6yxXu9mls11mB778OHveSUd4+3mQcQWaHCok9yNL7gXpXoqBUSerY/P5FVzWFLgeQpwbjnZ82q6lgLlBoNJqE7Esa8RgF74AZNWH7/uMLIWMXLNWa8QG86PW/fzFdvYn/9ryBy+0RkmX5VpjhXm7CTAjS1UBvKZbcYfdjUUgBVDmSCN0zG1uCEhXfflHtvaKu2zXkW65192Wl4sNOLAf3FITjCutmnLSlNutvNHm0xV3B3m04ub1QCaeINRKXdfDNbYEiaLA27ailAmz1JS0sly0wZUbrLVm0IeopDUExqDA/F0QEtABi8ez6BiCWs8W/BwSX1w000YzdZW1YQWlCz9HcqwdLa5xn+4JHG7pWXgs0RAOaQsc7LmAq6FdydYtLdf1kFOONJvVJYEPeSR4fAUvUHyCAGnLaV41adBeYeyYpXXpj6jqyoCcnmvut59/9At20V+fa4OX3mE2rPKxoqYuY2z9hQn9qio9C/4rS/RQ+Lvg3mxQ3bJGW1XlqYnD5Q5FWDjdXvK+s23JcYdYRfXfUCX4ohBCbkvx+aRQU4qROgxLCsEP1Y2UVkMPpXwxmOEK70VnPGYce8em7QpmtLmvayxBRRDDYmxoU7KR9okZ/lpiPmtlWR8gUm1VbbUs8qyj9rOXv+8cy+01j56pcaCSnlDgFal0AQ8rNnKZ1GmrtQpZtakVgc/BbGzZjd+82O784WWWH2bdZowIQz7aIT3CpvRU554qfkybiYPVGd04ZOtXrHIgo6zIp1cE8TaRKZQFk178WiFvsxfvbi3MmOIhgLTDi7KEPk1UP+8n0DWG47BWjEv7G2HabxfSVpFQjxbaNtSVssr8bnvJX7zNjvizs9R+YBw//LaEsHwlPTOjZklFiqrFq45qytio2bKLr7bvfOwztuG6e311lh9/7qtWuflB76MA9145gEnNmiJAUp3hVbgCUxJsAD0AL+gE4wlMjbWi6m/JPDvjg2+zeUfvb/15KVvJSR7vTQobXtBkYc4YYWL7HD3l+pHgZQxlDXP+g2LZ0cllaHtS/BI/qzjSC+sfJFc2WMSNMdS0QIdVHGqVBdCmlaWq80t3tVPe+ybrOXxfN1/eMYLAUlm6vaaKwDryCxNFFHSeN3AycsOrEnCvVRmPFT+9xq79yo+tc03FinUJY1ZtYtU0Ar/NSfLi7eNyze767Y0qNgomXHDlpBDELJyDAD/Z90MpubmLd/Mt601jg2FEPCPK1+sWP+k5Zk0xFl/wt8WEjJq4O9KuWLXDbF2pYR0H7m7v+59P2ILXnmi2aLri8hzS20JSflhUj6V+Urm8tXxppZY9+NPL7Xv/cq417ltl08tp6xxq2cZ7HrVv/9N/mj24WspW9wrQ1ZGy0tDzpNBi7waF6s0ayko8bdOq4LTSZoyCYcdGXvEP2c1e/ZfvsOkHLrahdM0qtbLyIj4o3WxKbrnK4f0UiJb4E5pbBOVVwUGsH11oDf+vh21F0ScrZV6b3u8f/AUG0TbXTnoMbk98IPb6jy2ONou+ZXLS9LWKpfNpG2Fd1YV99opPfMD6jthP7SbVjtp3VBI6AE0e6jy4Tri+DgrKwfvESmtEbjVXC0Mpe+ynv7UL/+l/bNqGlnWMAnppcjQ6gi8iR9uUlDzC2hS41o302/Pf8DJ/BxgrGmaUhbYvuSBHsQ5qCLg+/CRT01IT4eErb7bSsLwWv46dUdANWDMZXVlN/dO1cityYeWCIrq8jVSVW7309SfbGf/yF5baZ6aer3TVNPH2tu4Jr3cGisH9lCBnOSCuCdC5gYbd/q2f2aWfPs9KqyrWJbe6IE+okM5ZIaX28vohW7N2te1+wD6W6ep0JUpl8cF6nsnUTn48iXJQBCfxJF4IsElTImrbZ6ZPs1m9PfbIXfdbY2DEp90yjo0y86+SRFmmWNxNmm6ZPeHwnzhK3mVyvNQ7Lm13MAfRYz/Sls5GBVWYC64EkM6YEbULpx2w0F4uDTyTD3IzTTOK6p0j5NXTC2nS6sGV8iK4wpAFlJDwmZjSQMse/dn19vP/+Kp1rK5aXkDuyBTUhA4zj7Lu6iqVbVx8F3zlicUNhqojdshLX2i5OX2ulLwO9Py6LCn9Bi5cKgdeKQqAfGJ5m5W6LfvtHdZ4fGNQgOJhvEQR/ykJwkma/GjSjEopjk7LWs+BC+2kP32jHfT603xIj+ZKWIzQ1YGDdlPgPq21BmgKLG97xWe+Ydd+WR7PExXrbRSs2M5bXeXh43d8OTM1WrP+/n5vI++2zz6W6lALWZ4DYKKwMZAJOF5jRAROKi0ff0Z9o/xU2d3z51lfsWS33XyrtatNX6gCXuA0e7LkTfsqXuCnn/WkAthdTsJZ6n9Hp1DG7UVCC66Of3Iz8NEZ60FCAxZxemjX9ewx105jTalTDjfrVqXLvcZlZF5y6NwJ6eiKV36cXqgZ/XNrJ0EfMeu/9h676r+/Y5mH+nWsNpZ+bdWmv6ihh7IAIL3D24MQmrzMb1Gu46pHVnjh/f1kCi9iE+06X/jfxBmkpui9nzfdOneZ6XPEAS0WW6fDiyMi2onMEqNzCCeyrm1qdpft/5oT7I3/9te226uP85cZ6FzDe2m06z5NEm/naYG7OSI6z5UVvuuiq61nbcP6RrNWqqpWZK35mByz39DCPakOK6yv2q3nX2J3ff9S1kEOBdVlOE9S8dODl0DCClxXPC+etrzjXG/XrCovozUtZQtfebyd9udvtcqskpXlgoNc5II1wvx9aN0osSEZJ56FF+CtZJdD8Ud8iJ6wQ1Ncxu1Dqi0XGDExD5PlYjGcgLblvdW2BGuI1TT3nmMv/fv3WN+LDpZbrQriFt1eF2obuIyYLnpyaw1fgpUeZr4DXNF1n6rp9aKDtZKYW1fYjz7yaavevdK6/VUquXy67lZZWxgQz6raHoQnwksCJdmre2/mW1SNsOA7z1dmNpeN0CMt0r98d6dNnzPT8mpC8AVFBJFXNIM1o23csJqU4VCqZmtK4uzzZttrP/kXdvzfv9tS+851xeiJwUOEXfzEK/Ke7q0FMwQgqSIW+pdT1RBweS+bPJWkfWlXw2+Wvqb9W1pbtZ//59etfMVtPnylbOKlKwhgCu5ZKEm32FF+xC7PM9mmx7ukvDKRrEojeXre9nrzy+yFbzvDHk0N2YZ02S04M9c71GzjLTdmBeIDelZVbmSEpg3JIwP+5RMeuoMT/NluhEvmQZWBy1xtVK0mtzpXzPoXJgZzNWvv3msvfs/rre+YpRI8cbsYsuguYxxizqtSynWmjcSdJ0EI0vSQDWvn/tX2o4+fa/bIBuso6zyzu4Ra3C9dDZXLznYif5QkG0DToTOwar2OowywmbAbbwlwIG5CIMTFnBxX8aCY11ZNBL6fVWOKo3RVRdZpXapirV177aCzT7OzPvlh6z35UAm9HM4OBJlElBhSrECypB8/c4vJM6Y0opupV5zbuvJDCRkeorMr/sJEGP+VElM7om/A7Fsf+4yVr7nbAc0wos+1Ri4opCeo4tLfoUPOUE/ULSfi7DOfoF3SScag33CqHf+2V1l5TsFG86zi2bAK62u7FUZqIMVXPmieBEecPBGmBm33cjBDC8ZWJAjM4kFKG42KlQXkrv0W2Cs/+i7b/VXHWXVGVsKn7CHFscD4naG6WS6IWViZYhGH060xIGliBtQmrt6yzL7zj5+zdTc9aF21rOXkp/KyA55YjgREDJPR6zneptrGxHNx6yiMnrj20cdN2iycJwMKQcTGKRwrAnEUlTCto0PCrzJLEeIij8ibGc3WbVAgbvbmbeHxh9hpf/UOWeP3WOkFe9hon1gisCPWiHJTvmdF1msEC6WHsvD81paf7PCuMWuTgaww2y0ta4lrTQkZvcWrCMCDmFeSkrXuHpF1fXTIrvivb1nttkcsO8p5io9V1/3RKi4AOB4XBsih5jlQXDwr98oEVRyuBV122BtPsTnHL7X+fN2/BFKRkiu3AXS4111ruKn8xWDm/3ap++1A278cqiGqhzdjyq2qtQTYjfmK5eUCnvbXb7V5J4UvBkrB+8e629phDBmfCBerqIDT5JWSzrpFBu89cqaKoy3LyZ9r3bnSLv3kebbqFglKM2d1CRnvQ7Pkjxx73SmBlpDQ+YOVR9Nrs80J0WGaAu4kQjiwVpZ5WJKMSyGpwki7iI3lRWVT3CxuOFfEM5ZCslndNlpKS1gbVs40bCDfsOG+jFUWdtuRH3qDveyf/8wWSCHaNPc36eeyHJMqUJwTrHHO84N7zRFP3nICFvIF5LYG5tH3gCVGMfpEDT2F5hNbYucEPDojadTn00XLSZOu+N099ov/O99s+UYHdK6iWvWhChihfGVUW0qL4UzXYjBGcsA1fG96rnm8Iz/dsOLz5tup73uDdRywq5oY4kuHmh2FMORJ6SgrHY3uHeqHDIUemK0v/2QkSrFdCa2I8LSYNikBW1Xpt9TCPjv1T99o009QG3laxmfr0DlDm3qkyjyjQIAuzUQFgvtcFCDjwx+psiqMqV8r+u3yL37fNlz3oPU2imH8M5uzmly2cAdIkY6WYMT6GQHcXlWJQGEjGTBrVtTCXbvOhZHijIE5RA2EoLqwaiNg1nMqzkzAnJI1blqlU8qw23wSxQf+71/tgHe9wtLPm2PtvqgTTJ4AHUIsmcSbYvCScqMQ468oItxbS6SRcZAoRaU/5vp60D/KJ6T5NEodKevGskulDNpIdawmT1GAvvey6+w3X/qezxoD6OCWL1/4E5RfJr205FXwHNKOgc6rrCy35HWnMjIC0pR313ngQnv7P/+lZRfPso3yWAZkmVkwMMewp1KJx+RJJ4BZ9ylMBdquYIaHtG8Rni40pGpnzr6L7OV//Q6bdepRZiVViioOFxIHsNGoW6lQfHImqVBhnSHoPOOb4dBB3l62yi759Bftrguvso6NErAaFSdL2Gi5e0/bqaq0eV2S6ZUF3c/LE/FY7fYhFQD3Vu4owrVu1Ro/hUup0ntZXWgjwlAB4MioeV9DpquodqHAMqPDuvff3c782PvsVZ/6e7P9d7X1aj+yEL13zgtBjDHTN8FqK81mXSAOVlRsHpsG64ZvwjO3hOBYrilPSLwFzNQX+QZc9CCHse7g+TD0RXa4ntMzR+VvV7LyuOQqT5PbdcP5F9ldXxWg1+OlhPYt8V3p6aYwoYf0dUV/HHG9jkBhHMTPpry4VEfWarm6pfbb3f70X/7WuhbS4Ve0SrthdSYQKdcoFbfOXgKUhQDt9b/j07MaZ/YK1DYeSkhLKjjnbpaEDsFDcLlMB4e7mBIu2nfDcqWLB+0qIL/dZuFaA2S5jiTorFZFZeVGM4KSqXOs59DhwTOi53nvq9qceVnk1r1r7PJzv2cP/Pga6x1hET2Jkyo/z1tUEhDvz6TiPOcQOQ8VGkoBxds/TMQMwkEXSkgLwpoEV5COFQJ8Im6IH+IFHrWLadvtsP1s+qF7eN4AGoLlEkt5cSdJheL6nSgnsw1r19q9jz1op57zWjvuTafbrKPoLNQTirQfQ264k94yqpbFB91d171s3dLrWoi0Cfnz/fG/R+HKpiSzV83YLV+9yNL9VSkK+ia8hP7jz0sRdiUXUi7MH/fypqwgcDMTb9l9D1rftG6bvtciSxUz/qon8899vTNVGv0d49xUWsoM7IFvgJwZceSddJHBTG+3zeibZo/c94CVB0cVTy476ejnrrsyRBMhywsrIadKf/Ml5GwcePrmY/3x6VmBORQwaF6sLPswkgtNyRbtXZJGGHlHOCv3abA9YqM9AtvS+XbKh95iM48/yOqd0sYCMgym0p1lsSCTWE2HSs/HmVVZdbUVvSIlOKm6Kuf+NXLVLrB7vn+VzRrMWYe0vS+to0pOC8jeAaOADAcaBzHBM+xhy4nY3gbTHr+QVhCymEKq4yLIPnaHMgJuep9nHbKn9R2zn9r2kjR5Cw1JrisECS8uoN/FHG7cSt3HaqTFvg7b8+iDbPELD7TMLj3inaKrYdzOCSC6hTyRj1BcnsrzQkn9H8MzHOs5AXBBxXlMP8e9xPc7nkTjZ+TGK677F+WU3fL1iy29oRI+c6tIlBNfyMuuBLmPPgq+OEH+UGwAPy93o6CQqzbtoWWP2IK9drfO3WYrHp+BlaqQAOXawF4pkFWl4znTYRz4F/8At3/0QDIyc9Hurizuuv2u6PXYYBwoP0KJzac/gfHop2s3x2f9UVGAyMtkIkrwjAmgEmA47RAsSUOWmGQZY0SjVunE6s5bRZVTT9VsY6lp1Xmd9toPvtPmPF8WpUdCW8pZRVx2V1K3Y9EJKATaOyZhpSOF9FJNQKqLKfmeI6qhDXW75RsXu6tWUruZHu6y19i2JQSWFS/ogKqkG1IyagXruUAwDngRdDr5VxI9tK2MZRLiyCcu5GilIllUYm4peYuIskrgdUivOy4xL2PwWqYvu6PzHZ2dNn/XXXVBfMDz4V1hF1AFRUB5sapJXoE0UCF8bYcuBXrw/WPmNMBRGNqvcT/vj3I/wwJoPf8Lv+eKqD+aNrwMA8CRHfLjowo1yceqjXbhp79s9vB66xph+I7uSsXTdS+re2bKkbIKH7y0sIRIpCce1FQGVCzfAmOi0dK3nGFHvunlliqlbKQ+Yg01T2h6qA1nHRIwpsqWc2GE5akovsZ2YphsBJueMVEg+Og6UYKBgMT6GJeG9k8xm7XR6ojacW1bX6rajOfvaef8019Y52H7+NKqZbk53tsoReBMEp9DCC4xHbllVhLgRQAJGauO5Klmlt1ZW7PrP/VV+923Lraeqp4vC+ZjjwBje5Br9yBNADfkeELAJVGMODcOjCzdRvJmHDSUKRJGlbchYaRjLDoMybg7oXgSujHAArwxAVcYA3Kg6LFhX4nEh+Qktos0OpkC6cN15JAhPeLAY8Cm9Nh/KnrqK09NZJlRpPFZWXqu8t6SQsrnipYbadrgrY/Yj/75v81WjlhuVC67kBz3iiMX7k6LeP5YiT0zlJTOLFIlXcXrLfq648e98/V20KtebO0ZRSs31C7Ha4Mbuo9uUQyQe0NPRbo0Jpc69MdNQgqceTbkBYR9tJXQ9rRJMj55gF5G3vlNtRo2VKjbzOP2s9d89N027dj9zWYonqwymjJ+Y4nMuEsWcQ2mcQULxpRGHsYrd8waqq8YsJvURr71az+z3vVNudZSJFSILDdO2bYnenDpTApbb4t6juNAOYQ1hTErqcIwPoq4ucjpuJiRatI1JMU7Y6K7J+IoFiJf9wuwRYLtAN5sUT0FHqY0XYUEt1ZP9RVHuVl1JJmWe9Gy8qpB71mP6enk+tlQUCWo+8AzLDR1Tb3VpYipwznlvD1++W326899y9rL+i3jb56IN8osC0Ywndd/UdMgkEqoPFNOzvJmGtZ8WMJU86G8gh39/tfZHi8+1HIlFFldtgE5ldGRPPExvz9EEUfdmyA4/ycZPSswAzzarXTaYI0BNe62B2m7TCEnl7JpI3KtZxy+h730b95hpUP2kATrRjGZCpLB9bFjKpYJHQw7IeSk7UDQc0oSYKYbMjadxV9cPmw3fOp8u+Hbl1ipIlgoD/SSFlQpOcWL24DbllRmyq0QlBnurcDiISP3lm04F1rWKLu0FelBZ8wVtCqf3aXO8BVEAYv4AI60fXzWGcyhyqzgrzVGVthXFo0ESrEiYi/0YTAshRIkX7x8AIjpG4kGeawlEKcbWavd8qhd8Hf/ZY11Q5LSuCQhYf7H+88FAQKqj9qhWEzpRcnRlADQYCqldlZhsGn3XXK93f6dy9SMYtlj1at4R14AtM+jV9lIR6fd7SZt0qQN3JbnUqnXtS+ucw1AL+y1k95/lhUOWuAdsMwQq4lPvLyCQnXO/YGixnE8hFOTiij/M6a42mGqsORCwjHizbhmWY2kgY6WzTvmADvr439hhf0X+NQ7YwqemJyRO8zEBZiO1YKxE7kVA5o2OQsOZBkz3tiyW7/0I7vr27+wLslfppqyfKbob8x0KLW22kLxMq/bnJAkZ2GwN6GljN3hOA5wJMRhjxYAb01V1cauS5OVujvleii/AhJjoLz8IdYonTAs43OJIzPt2xjUJMa5sNFWexwoHXfjwxlR9HyljRUE2Bmmtop394mH//O+f7DHL7vF0iPSKNFznLSLZ/FcEtWLQvaRDh1TTnqSaUvjdaQyORmBrHW1CpZZPWrXfv1Ce+SCKy29viKQZ4y12byJIR6gIEkF54K+FtJGXlAM1H6OKa8NWfN6LXSclnTyefPsdR//c7Pdeq0ig8ICkf6JXrXXI5EL7IrDphTFicNkIzjyzElM9Tabtt7dnw8MRqzpuhjubFvP0fvY6Z94v9nec8LQk1w/2pf+3ScJD2DFElM9Y0AWg+EWBtZ5ykz8YVWb3K5b/uMr9uvPf8+mDUvw6wK5tCpuFfe4/dMN/gWLbU3KEh5IRpKSkiJpStDoSKqqTVwWT6o5WT2ZBWafIaT0CdDeq+YaNtrRtkHxpjmrw2btvbskT2X3dj5gxhtRuriA4iugjEvDEFPogfbHR0F8h1E6aEqREReXGr7CDyyxnBcWAFEEhXVSJNc/Ypd++NN24cf+23IPb7BpihC/RvmckPLonXqbECCjT6AuWUH5k3ckxj0Y8Y+XLeCXfBor1TL+XvRl//MdG77hAV8SWeY0tHF1D2VHVYZUwrP8v07FT84qLV5IoeC+bBOAPniRnfHP77fcHrOtQzxvNquWz8sI6KYw24x8wlPSJf2noPghk4jg5TMmNCyfVYUJALTVrAjQssaZiq3urNlep7/Qzv63j1h2710iIGNpArNg3jjpgMrXH72VINLdJy4hAVUdLNtov/nUefa78y+xbjq7qHJJBFabG2u6h2hM7EfTb2viqXgD3g5VZj1oX1lwIWAFC95eopnRLygNyrVbX6jbY11V2zi/YItfdrS97EPnWGGveXKJVVLMlIi8E7Ay+Dn8nop4TtOXFNKeLFtWYOf5GUl7RuaKziMsVVHHvGhi926wm879vn3vr/9dFu831jeS9uWF8Vq9Qp5GdmPagihPSZQJBQj4GLWglQ64SdV77aNrBJpvRUVqPrLBfvyvX7Dm7cuMb4HRF8pMsuCtqIweQn3EFBSZSCdlOzztsV5wMafnxYfZi993ltUWdFmt1LZKq2ztLO1njBKg1j0smuAKSblReuzF28lKz2qcGfeG1TyYYcSHztOqreFUxeqzCnbg6060Y//sjWaLp4d3T3UNixk9KjDFmaXK05bOCB9DpldGFgzjSnBrsmLIrvrct+z+C35tpY1NK8oa0ob2N6CIon/+eqRCQfGBuupvm1LIOW513LgIvQYMI7nSEkB5l7gsMNc60zYiJdexxxw79A0n2nFvPcMOOuNEm3HoXmbTC1bLKiXdhhjHVUCKbuGifSydn9uE6Hlmdhtl9hgOSh155egMJrm/bg9fdK1dKSv30E9+bdkVg9Yx2rTObFFRxPeOnB3yppeYzZTL73Ui8q0EOT7eDCEvDBOmBLJbvnaRjzNnVRlxXn+/FkIekYH4k0ExhfjhH1vKA7gzdbnK5ardt3yZLT3oQMvN6PSsMUwHkP0+jv3WcMy/sS1ZUDreXOE6brry1TV/F+uSRX7wnnsd7PWafBjxkTLxoQTKQPqesChOz4l0dT4+nCz07GaASXsx57nQUbTR+qhVMnUb6GnZni8/2l700XeaLZjmHV0+5C9mAtbA7mjrtRncSbJAYNUPQMxQcYpVNddW7Ib//L799geXWp7pmVVVotzuEmpW8eitBcxofQwcKVKKrSvJ1hNZb3XkfezWP08KqD3TTau0q1bLN22ko2X12UUr7bfATnv/m+xFf/sum3/sAdaxpzwVgbjdnQ2Ta8i0yoFQshv+B0VFucbOjV0PxNtFfBwAQPvLEhTaLbX2efl/ROHh9XbVf3zNfvO58619z2pfzocvhLBu1yiup7QIVuvgt5xqNmsCmPUkVy5eZ5unrQUzZ4PvQrKhznkcZ4BR/ByUOwHAoKjqlYatWbvOHl/5uO17wAGW6ipahlVKKDKRRD4Coj8X5bDr94eD8NymrDnuPTJG27tv/8W2ce1qe+Se+60DQSW+Ajyl2ZbRs0mDtCDfkly8P8no2S0bRMHVHgTITVmf1pySnfAnr7GjP/jm8O0nuZm41TC62ZDlksA5UKMfLhdcYRM/2XNSY4JI2wZWrrZLPv8tu/u8y6w4IsFRTTCkQKdFPpvzdg2EwHvbWwm5IIRUti3pEZV26FypC8Deay+3gH6C9G59NvOwPWR9X2QnvuO1dtTbXmV9By4SgBW5IFuOp+Jv82grT4QlcQN09V/7m80+530bNk4qPxZs7BRAhgbUuFy+wW7+wSV28We+bGt+e5d1DbRseqrkYOND8XVeM4RXPK6Ys4PeLMusNrw/gAT9eTB1LPXfo2dimYEuJaXOwqNUW9RfVGvkB8BBwSVXfDrG6i0bGRjgfQqbs8dCs86Cf9nCm2zE8nuID43nO5zWf51y3mJUZHkzBeVC1bF4/+dZdWTUVt+xXN5MSEuo9yaLKwMUZZSOpxVt4/3JRE8Gc6yGJuQ0PtzktB8wBEPF1FJ1y+8+3Y59+xm2z5tfajZDQMuLLXxiRABmUgDP8Dd0dJ+nBaPYKvhulLgDEwNXbVh1bb/dcelvrHD7BivIh2YROIYm0tq6NVJcrDHDVwg1iTDFMGj16AFPRSH6eNgcbRpHAWELW9rFahkrA41S2rpkbXc/7iDb+/Rj7MDXn2SHvuk0m3vy4ZZf2GeN3oy1ugQi+XOsguFDKS7oYSgNxeVupz9EyYdNxBiRPzM6GV+DOKdyBqFT0LZ/9Vq776Kr7ddf+qHd9KNfWvaJIeuUhS6qbRyGDBFS1Rr36dl1WedK3uzwt54mN5vlhHRt7HlKcCwzTyYeieDTLscL2BIwh/KlvYOP4Ilow1Rg3uyCnCsIlc4jC02BqqU8d6rZ0B6t2PIH7rfOmT0284C9rcrwpqKSD7HViWfwFFLD4yP/rjgUnE86Vc/A6+CmNztStnjp/pZ/ZMieWLZS3g7zwSW3zFegHNwXbnOauD/ZKPXd7JntTIO2nxjjpQ6ZpeOA1gUgCbyVm6KfxxMrMvm8ldtlG+VFcFnk137k3bbLKUeYzS6FaT70WIsZgY+BwbE2dgqPGiMHCVv+OVAVmJW0etRW/eBGu/jbP7T+VWt9Dm+h0vbPozKnlwkXroxksdHoDNnSDZ5TLQB4fiRNDnD1SZ9hEEriPczRMI+/QeQPD/dAxPFX+NSmrbYbUlp6mNw7xs/bxawN7ZKzPY460I445mjbZe8lZr1dshgqfIdEC+mCcQqx60favvH0wx7Ec2NejUWFOBEYroI18P88XVYL8fe4xR/eDEvR8zfYsuotD9gF537d+u991FL9Ze8IY8IKY/CM0zqYlTrWjI4nlmBiKmWtJ2vv/NV/mT1vxlieCbilwZOC9H9CtkPWmnqGpKTf7CvHv8syD/ZboSYFr5soTboVurfie6hkOEDynKJo1LvHVUTierqAUOR8oYOVc/Jg0nK/6jIclfmd9pp/fL/1nX6E1dUyaEqb51iVhKEmRhEiO08VhCFP7ZAwyerhdL7xTJQosuIdLretsgs/9WV76PLfWXclY0WdcwWIfCl2GOqLfkFQdG9csMlBTwIzE+H9JIzQiQDmcEzvLBqLzqmqmFZTgfpLZWvMK9o5H/+w9R5zsIQ5465noZQPwNA/mBoVfYxgwRgbNnMRxsX8z4PQNTpaP2L3XX2DXf79C23goZXWUW5bscpcX4FLQovAu6iq8t0qt+ohD5xFwyIg+qs1mMCvapZ2ZuXIML6JpZArpwj0zANiAitp1GV5a4re6shYfnqXzZeLd8DzD7ElB+9ntu8cM7V7HWTe8aXHCSAYPvAHUU7ywRaK5HTLKWaEQrsmYZUS8cQYmx5mKlzBKncssyu+/hN74LIbrWt9XTxBiJ/8IKqW7BECmJUEryGqkusqw9sB8z7TgxLSrVhH4iEDXoMUKqYoaZT704GZmX/QuMxrZysBgAfDrD/qgw7GvPK8srbRcvvNs9d+8i+t99h9rZpvWp5Va3ibQnEqKb4aKh4QqAh4CFEEyoZcKpBHn7kHr4ZklG571M776H9Y9c7HbWaz0/LyaHiFltLE7jyjNjzDabKCGQor+yvryiSVSKbJL99FZoyUVSyRTD7a0u7IW+GoRXbaX73Vph26d5jRFck0783yoTAYx/2epqcb+AaxiXbHeOOkk+RiXIbp4ZaMqZ4KmN3+qj3821vt4etvs5Fla6y5dtBGn9hgtfXDxuJ48YfWvCR6OJYFBLEJ6elQJ0nfLa+2jN8iq1jcYpcqsbvDir3azuixzPRO69l9rs1fuqfN239PeR6yvpISv0/Pcc1O4owTwyNcOMrAORGbGMxsXaC2giiOzymJ7gNrWSky3v0duPl+e/CKm+yWi64y21C11lDNiql8mBhCBifQjgpm7uGOvAwJCxWU23X/TvP6dNn2etGh9pK/Osdyhyy0ckmyKjDzeZt21p34wAN4HpNOUi/BsgYgu+L3ClM5Rtq26sqb7KK//Zyllw/KQufEJ1JiiC8oeu71aag6GyvsyUKbuNkCLZWuwlGnDirVIV+YQApo24zKbxkScJccf7id+Gevt45DFjuQqWtemOBTIY4gCTm9zKHAQTl4h4aABSthRhycYqZzqxgMfwPLEWa5zbT16tLOIJsg4NpGeQbrB23g8XU2uGq9bVy1ztavWm1D6wesOjRi1UrVatWqNVjFUun5Au/ayRcKli8W5EEUrae313qn91l+VrcVZnZb38wZNq2v14o98t+YndWpwnUWgpqXB90WY+Ie6BzfVUIYSBwwK3mXH/KuoD/thG3k9HicrSH4ByRocjBJhs6tDTfcbTdffIU9fF1YP7s0pKaHQMUanfQZ0EQiTKQdFcwMJdFr36WM0dwZkZRV5DaOMkFf3tIeL3+BnfiRP7HWrp3+fjgGhx5wp5jn0WMBcmCLgKz/3k4nThwPgd1Yt/5LbrIf/78vmj28QU+VxybvkI6+MP4feCIJjdKaPDQGZm9vKrdkmJ5hOpY8wypfQ21FXuXjxfeVmVHb//Tj7SUfervlFs6wNh07AnkaYRaAU2q7MGTF3XxxgeqEcQxPMdMnBjPEeUUZJy6QDEweO5RQ4NoAcB0DbKb8ceA9qYyn8mWFOFRlvit6Kku/1urWqEkV4UqTFoIuQPPVDCOPKJ2cUCpgW6+OfQFBRXTrjheiA1wNSGX0YTAFRAFxZS550FaKT/n1x2Q1YmD9/Zk6jrdOUXJbSiSPMi1VlMrail38z+faY9feZfXH+tUEyQrgZiU1fEsp3uFu+UKJdDRuKmk7rJutOsPR7Rao6vRbKH9lekZUbUzVHJmdtz1f9gI76Z/e7188aUv3hidEDI8eGeotyB7XKc2Y5dYJ/7i7mM1CF6zs+uh3f2UX/euXLLNR3o7KiKzx7nVYDJJ0AHP0jElCY73ZuA/+lTxl0DuftIWJvtC8CotFZq2p/c880V76sfdbZrcefB9VmKyeNGZTFceECZb6AdhoQaYSxswLaWlvAphj4vpEGgOAXxDbpEzCVDulK17zyRWmBPr6x3p2inzwxgbTSdVetx7VaF9JLnGnpXfpsewu0ywzV2H2ND+2mXKV6bmdoTh9AnKXtH9R6dNR4LWsDCjdWPr9MzjkW6eo/7gS6e0MccLWZUO7cftcf36Z8owRJ7eCEBrEJjuSttU/vcZ++9/ft2lrG9YpgeNFiTRTScWHRgP+yzpLSTHpYVPisXEgO14O5dtBW0jbIW8+VTwRPzzDoRzEiw7H/jtFu+SMmVpP2ZtNEwQau9XPht0tJZWpjgLXLr0aVFGYe69nMLpRrdljDy+zWR3dNn3vvf01d9dAqjP0D9kLQA6VEOeA9DwN/ZDVWrsmvR2UNN5X75JFEoOmPXznPf6ih4+a6LEkHdPEap0MFMqkAgA0zyw5VGWEr/2HCAhJTi7oKX96tp36V+8SSAQYv1M35ARTgRfGMm6aVbuz7ovnYb/GlQJjw27xnNiKvV4pEyiu55jjvpHQSmNKN7qLI/FVpeJSkgE6q5o+a4wVPBFKNRqD2y+5ZAlWvhDZ1tZfp9E572nXPufqKnBN6rmmLd9/og3NFx6YgB++cBHyT/OAnk+WdqX33Fea1LGXQo+L3Tf2x0gX/VBbdzQ2KeqmNPHlEG9m+E1KQ9sUy/GuG7aff+171l1OW0c9az2ZTrUPc8qPFBHugFxLUqhXhKzo3qlA8IEF/tJZ3myizluqYsFaSOW1SXqcp5UzdsXnv2eP//iKsDAgVYcM647QL4I6DIYKmfS+buqFqEqS+svJ22NWGQsaNHkRqFcK7k0vteederSVZcRYfMI/Dat0uHNiVU8WckiSMTROUaUC1LjCrMDg1khXGwJLfnaf7X7soWa7lHxZFueElyj0/PpQh44IuSwcQWu3g1vC9DgY7OaafZ3EeiC0EuJYcMeJhOOgLMJhNQXSElz/5IwqkmX+WO8Zbe0vJSguc335cgKL9jWx5mJ+W4HtpvuElLR3SiBmG6ApxZGSohAw2PqsItof5B2L48/XdWmOrFwvBCJU7fiWLIttOhEEZox07veU1yYEoCfygn34llVbef0t99iaBx+TNZYlkbmhRYGCY0prQXvkFYuMksOlnjIUWVU+gkdzQxLqjKa8HMGPopoguSeG7Zqv/cTq199rfI2SRRz9vea4UhSCYhZPxTvO8M/FUgHLi2VGAfCApgyCLey2kz90jh34suNkKJArPveDggjGarKRgxmicK61lEeEgamXNQG6iisr0AytWGu3/lSab6Pa1SAWSQ08GitWSENME6NhmMRKghf0Ie4SGGZsl6EirDUW3wXWpT9KJ0rTA6Rty3uJVYl0bAhksf/EK5OAmxcu8CpQHOgZCoU2jn+kzG9z5+If+ckr3WxLEFHwZXUQHNrNuNEc0p5UwA3ziR9xHkU8Mw5x9nkJwse6I5DSEfdUFH99cSI/oJSUSLqctZt/da3aowKvnlCV11BGpFQHND/CA3WfNiGVqUOheOKhdihvRbUIFzE6fB/alZfkglGpwftX2k//9Qtmj6yzdJV5CHxIjooLLEIexziLCEQbOBesPjEAtuQBLUDkRX32wg+cZXNOOMhGeqRE0zJb+aw39SYbTaj7INRBLqTx0PQSKpZUyfPl/v6y3fzdS+ye7/zc+FBYWK0isMZdYW1d/J1JOiPXiInrOYGQN4pSVV3DytVUFcQRSNr0MuuHAPMaX2BsCE4heTeO9HPhEo3RxMgKROUylY9S4vgPBeKPBcqDkmDrV8MugCXwbAKjeHHg0XHsiUGXXGERgc4gPiEDQHNqgjwVNZtNBzTxsNBxoK+ndvdKW37jvVYSmPkyB+4gMhq+4Kh9FyyYgMKKijBFyFdmgQ8qny8ISLmpZMlMiYX+ZCGYKsy0YuYdrLv5fvvRp79k9tig5FSGR14NgAamdIQGoubCJmYVMxWRRZSED1c5JyWTjIkumu6LT846ZA+rdaVtY6qsfMRpTR5C7pzIGiMfuKv8sHbeuSEBb6pNNkON0FlrGnblZ75hK358paUqAiWmVn/0VOfFBHp34TPnHKAcK2TUjKut7LfVv5MLRPuP2UyRGxo627glOC7kI0rCiS3XyajXIQebBtxkXYwDFPeeUzl08HmgTF6uELjmq3tEiQLa0GESwMo2DuRrXN2EI50Oj2er03HAdGCN3fMIfl6IGO1ujmLL7J1HCtzrFnqgZrde8GsbfmiN9cjXY9YbPdf0trOSZ1PB1x/zByPwEY+mCKGYsZQp8RMvpCZrQRnhDQs58AEEVt2s851tVWCfGmAP/vIGu/Lcb5ut2Gg2LGWg+vAprHT4eSWRMi53MEAcYu1d8mEeJ4gnpdnE3euWR7R0gZ3wzjOtc895NtyVsgrLpEwyChI0gbA+ZDMvxuDGFHSirtI1c3QQSMg2lO3n//k1W/WLG70Xc0xwuCkChTgdmAMTpS3by9fZ1Z//jl3wj/9la+9+UCf1kIYAjSVS4FbkNiZPKgoQTHdZFfEIfwz5BMQRkGOAhdZzgBrBVYUnHm0n7kfXgzqhKv3KJiGOEWYghe34c3TKH40y985bgvYBZ5XOqAkUFWGzhHBinVGCbLHKnBtZscqWX3uHdbYL8mT0fHinB9GJQ5cXExhK4jMBpcQUTZTPVCF4Dq/hHj/fqr6RL2/fik9pOsIEaIYtAXpvLasm4ZV2x09ZdkhuJPMBovjcFyt8bsfA0l7WbZ66N6lcTrRPp2g7LCdoXTmbcczBdsJ7z7JGX8FY13uyEWWIyPWSWyfAQvMQp1AQtrqswJAEsy23uUOuXn7lsP32f75v9buWebsVXgcoiPW4zxzJxKWZqbS2Zt//xLl21/d+Za3bV9qF//tNs2H5jjQ86YWVMHrHT2Clp0KAOEOIzwGquEphZRiuonJDnt3Kx+FJd3Fx/Jh9zvl5tn5Ne0rYQ4jlMWBQEKiw9aE6Bba4eN6xp8AXNgi+Vi5hqG733HqnVcoVFzLYJIgqBYj/43sk4eKqOOTFmzniX2uwbI/87g7rv+dRy5Sb3typSrh8aq2UBXmgVz2nLXWF0nMRi8rzVPTkPMScn9zktQXvI08HQFJWf69dpwA0rywyn7ww0rKugab9+ps/tZW/uZXX28JUWP3GFbwn6iyAbzEQPPXwCK+XrNx3hMKncfZmbe5Jh9t7PvE3crdZpjd4RgzpuoKI2R6nPWGXuh27vo3Ix5kdkCKq1TuvxBB+CB8BFy4nAfH2C29K1cSfxzfa4xvX2l6HLFUm5awwvimrwIJtMDcjhWg3Lbfvvu/jtubqu23maME6Kzl7ZNlyuUZZW7DPPnR7W0sWOl3I+Ns7MISOB5gbKiuuMOVJ6WKpaNlA/HfAKj5bjsfa8SoPQxc+D1LHLQSANlFIJLozvkvWrIml1XVFE+4Cee2Ge3U6CBInAbArId3LhAmAO6rjtWVrPLDG1lx5h/32Oz+3H3z+POuaNs32PnA/q5dU8fg3up0SxYLJEePl2G9KwaNpueTx9QfFlwdW2w/+4VzrWVlzTym84hjadt5RRvF0hvvok2Trgqm4oWzjFB/F8V0RRvMBWkXGmXlravKNMwcuqbxK04cIKR9l96cHGSFNf6YeRwemGiPet2ADZbv/gfvtwAP2tew8XiKRTAM+6ptOM5eJ8JCQXwWy7Mij5LFxYnlkHTEEW5Jrv0uvTSuV7NEb77SRVkWeEG12uuKoF+XIvc0gq6RCPv1rmSJ347cRjU0aiR/hhQq7lNFDfM7BoD2YymqPK9c/YcMjQ7bowAMcmLg4aQl6dmPdNl57l13071+2/psfsmn1gmWxWrqHyR2PP7bS9lq02Irz54o5chaZPaUn0X4BxDwGJrDDFZgykUIuQoh7f8FGvOUCwKF2SIuKpyOKwjBLytMlbjhlfALFO8C4RZlw0HFBUeM2N6tGouGtrJOD0marh2303sdt/U0P2P2XXGvXnPcT++V537ffXHq5LV/5qB370pPtxLe+zlICCrY0Q0cYz/WnkKcQILLmENeD6VXPohxkXS777Fdt1W/vsd4y46rj8eO7Q2qULgQ/p/yOPWX8huhqCA4D7cSTRppSpodOUjATf6xs/v+pU4hLnsvmw/fFdDA0Mmi33Hqz7X/g/pafLUD7ijgCmwrHW2cUFBliBt+m6XIm1Iv2VSaIVyPTHXmbNXsXS5Xr9ujyZWay+rm4CYS0el1F8bUhcCbUYTi/LWgTMOtpT0eb5IPZXyuXLZP1atqCg5b6bKyc3PCHf3aNXfrZr9nGOx6xnmrGP1kCShj/NT7wVW/Y2uUrbfele1lubq9P4PD+RtU9xo7CA2we50COGLk5oiImDutA0r3SjvqvfCFQiIOn5kAOu75gG2PdaGlkjhD7u2p0ensfc8fgtcA7+shqW/bb2+0uAZcXG269+Nd25wVX2n0KT1x2k9Ueetya/cOW6S3Z0a95iR179issNa2o5JqSH9YHU1kEnpDDUCay4q8x6jnNTFqPaltRhU+PpmzFpdfaZf/3Hevhu1m8ordVRMrjG4jdOOxYYN5KUvI0a3DMWMo5n8nY0IZ+27BhvS3aa4nlZ/V6nwIKPOWut0qpYz6lFN0eKNqBD4gfHhqKFi2Aa2+Fgs1dvNCGn1hrqx9YZp0pGbN6GJFw78hvVF4UFa+C/oxtaZWhZwdmCibXb8WDy60vW7KZCxbb8p9cbj/+1BettXy9D6WU1JrLSVjDrLC0dTAZo1K3wTXrbaQyaouPOsrSJQkVTWisIoyAe/4X5cc13uZpTGMqL+w7MytyUVmZpCogI2yIJFvatXKLWRkjXVFcKZo0QOGl3mEJ3roRsxUbrHn/Khu44QFbdtFv7d7v/Mpu+OKP7IavXWj3XnC1rb3+Phu6c4UN37vSGo/3uytXlOTwedX+jpa94JxX2fHvfL2l5nTJ5xNfJVg++42ebeWE8XtK5l4XyoMt2dOOLyWrPGbuXWMX/H/nWvbxESson7iOW0dRRUUbKDw1hCkPZnKubJGPrCwmr4RuFOiGKmVbfMD+lukqOL8zeckicik+NN3t3iSHSoZRCVfCKkpsOIivdqdZd8kWHXKwPXrPPbZu2WPWk++wTF1c0X3wlmm2nhUl7O8RRMluKxp70YIHhRbqOFGZhDFSpInHrP/coJHRmbfcLn3Wt9eu9sDNt1lquGqdpFlvWSmV94nqpjZFuRU+1NWS2WMmzep8xZ7/ppfbkX99jtkueV/xgmEIeEVevOXBAxmK2QzRcRZcJhgYGF0ul+3x2++39bc/bJ2dXT4brZDLK13lRxXLW1eN0apVBkZsYMOArV2zxtatXW8Da1ZbZXDQGiNVgbzpr1vyllKOrQSWIa2M8sFQE1qaZ7GUuhUzNpqqW21ep73mw++yeS8/RvxQJTKtlDH1uBEuweHFBvBLp2KG84AcnqvANMOzzD3tr9stn/2+3fqFCy2ndjNfs/SG9FZREBvvlIkodtMBp/eF6Fr8okWtO2fv/OXnJukrkFtJSr6pLHnJ9Y+ZgvSG812wNb1tO/4DZ9vSt5/uX1SpZ3GPccHkFTFrUUQpUbTOOkJUbHa97yWSM/jDuzwdQzp332o7/4Mft5HbH7VpFSkF8YqvujRpNimOrxjrHHGfMSS4DejZgRkro8rJSW2xlE/ZHUUJCW9OqcCs14UbybTLlIDAggbM1CIdVu1gSuXGYsOO+cs3235vf4XV54X3UMP0SiKG1hIzsZ+OYjDHVnr00fX2yFVyiX99g933m5ss1y/rqfZul+WtLTCPfWVCeY/bxA2ZbFzzrPLNMWOTvvon1/VT8h6oeJ6Dm17Jt2ykO227HnugHfbml9rs4w+0tgxyS9Lg7r1c+LA0D+Ojypv4ATgYouTrlJJ2D3xjihlnmY3ycn5wtf3y379pxUdHpVTopWYAChWwNRT4sHOCWXmVR1St17z3n7HnAKaWDchFLM8t2Ys+9nZbcubxNtrDZ43EW9VPNYeZGQcz/KLYXtZ4C2mLZLLSiy9QqWul4baNXn6H/fzjn7fqHSssK28vgFmSKyOAi41kM687TBfdNvQs3exgrZjHjJUBGIwb0/4t6HxREsEUSSAJkOlgBBoNCbr0m4MCZqy47yHrzhds1sJFlu6ECYolEBCL+ORuk0c/iTydCSHf0WGzldY+hxxoC/ZcIqGV9azVbGhgUPlRG175KihQyW16vJmlpudwzPJByoDyRWbJg4oml4qvVI6qCmuq83j53J5D9rAj3ny6Hfm211jnAbv71zro+WfBdYSZiqMtRscWLrSPZzqL9U+PcV0twa+TZ6Y2PbTBrvjnL9rgA6uVx7y8GLkqErRNlewfpohbE5jGbhxIEUxNVTebvhI+H4zCdVBpixx500bt2pvuvNUW7DbfZi7eVZEFZik1nyos8vLGWZRMe0kmZBm++LECcX1qMn1Fs2bY3L7p9sC991l147Dl09kwmUXKAhVeVODxkxbMZJI7mWoJsS++ORCZ/J8D7DpHxxdT8Zge6r2tgF/7eqwzJDdcswfvvtf22H13KyxagEfuvc6sAAIFOG854ZnWJZfZ3oLNUIXte9QRdvjRz7fpc2fZHXffaZUGa6XIIipeVfqSWUU8AVdaZkUYlmZ1kMmi5toCb8uGcwJzV8rWpsvWuXiOver9b7ND/uRMm/GipWZzhPBOcY8hyYk8lDUmZcrK21auLORPu5FjiifuGvzCU1gxbF94x4et/LtHrJNZ/VI6LInL2lcqkSe35TRWIWPEbhymOpjJs3trygeGgXJiNDifU35HR4ftsZUrbPc9Flppzmy5SvIapexzvFJZb/iceh+6Uho+CjKRdOiA5prqhbKyGGMqn7aOOXNsZnePXXfZVf5mly9Mmc36JKC8kIBHtC3d7GcFZkDGyQrgE6dgGGeAoLc7tKUzoiohJ2V/F1VA94kROvapddrDYrUqNbv16uts4S67iCmzLdOVD21iCT2VsClNdKs3JbVk5fLjSiofvOssA5ea1W2zDt3HXnDOa2zxEc8zW8B7zWpRTRdwSsoD0yf1JBZhYIG4RkGC0K3W7YySted2W/eBu9tuJx5qp/7FOfaiD77ZSocvsdb8kjWnSZYVnz40SkkqXjiR54+yUkyddEWmfbQ5Sg9Q80ZUek3Ffvsf37DlP7veutrKE5020gzkH8CMgWKLKc5A2EDsxmEqgzk8QTnXDsqacpAbZI66aMj15+3A8sYBW7tyle118FJL93bJc9J1NX143ZKptD4DD5D6bwLpgDSZc5HBRUch67iuuNlc1rqXLLHZHV127113q71Xd4+vKBe+3PCFlTdN7TmlZ9VmRjhhkppJLqS0hwOg+UdVK77qui6r7G81qew1XNeosuMn+OwaxWfJ3uHpWTv1z99ii199vNksFkBQHDqTIh4A4pieCsy0TarSg/Qi854qyoU2cMiMngVKmCNOGByx4Ucfs8FlG6y8dsiGpbWJlipkraRK7pkj92nJbsqLUFuS1pJyYBEErH/VG6JRWZQvmsUMc40BVjtUNArNX9dTtKyeTzsKF76pJmVmQ9Vu/dpP7YYv/Mhyq0b8kzdMeGAiTzuftzoWIy78FlOIvzO2mf25yrkDjArxfPNM5UnFKMr6psX4oXTVRvqytufrTrITPvBm7xAzKTUY1RJfkFFu8w31GbGSjYMZORTgaUYBU+qTnuxMTc9bU7YbPv89u+X8Sy21esRKsg5pmqOMfW/D8j8ry+wVrlIyrZAphd5xwHkFAFxXW4JxNuSDT3fKBrpQ8wfL6ZyASTCdNmVBx9mRmj368DJbPzJoi5bs4S6QJNwFa6I1fiogQ76IgVybMMsquEJoRXeZkE4yxAR6XkKfUbTsopnWs/8im37YXjb32P1t7vH72+yj9/U2cWm/edaY02mNblUw38sqBE1MV0ZaGiIlN5hRCpKm9G4BdBA4qefq2L0THSHawNpneFVk1dQ+eeTC39hN//U9syeGrTfX5SBGt9HTUGdhRN0f186WUxR/wm3sxgE1i0xNdcvsdRGdg8A2Mw79VdlMzhrVhj3y8HIb2rjRlhyxv+RCZZFb7PxRZOoZIhl24wBFJXQ+sZ9G3qQomKWc6szZ3AULrH/9Blv9yAo3JOSFl398TsM2IurqWZAAogorSUPlAZpDho4uaX0VEgtAhRaksdyV1h30KvrqPDrGNSewnC6uJWt7FUudVl0zYPd+/zL7xWe/YrZhVChQSmhBB6eYFVXSU5FPwVSauXRBz5VW1ENYmI23vygy7VQW5mfWGm6St4+Kyku3bE1Jdl0uRFuN3KwyykpEBalmviGdV0BhSUdJMOjoY2xY+WIijPJIGWkntWuhfFQc3kiHQl+zbT3KP9P+Wnz1UYKz/tLf2c8++SWrrBqU55ILPe1YbuUJHhb1oDaJJbTFhBQ6iIUy+iniqZ8ZySHeIR1RaXk8I3UpSslH30aze39ylV31g5/obt03OupNOyQlxh37Ewnpw7OpMO4kufRRD9Uv/TwY5rqsVmbxTDv5PWdZ36F7WbVbja9a1Y3etiQ9OhCP2TRsjibCiH2EduK5+E6sImXF+vLjLN5lIDoPxp/igq/Ae6m1cs3ylZR1rKvbnT+80v7vnX9j7QfXWbZfLp3Oe2+z4sJoNGhI48nBPw6mCvOOD0Cr54d1sdQOFpJZNpgOKNV1cMd0W7lRtWqrpjwqniqKKGn8K3o7VUltfGJVXPwYUmXyPl4NnyP1WUG6TrnQEU5xeXk08aopK5SlPPpbtubqO+0Lf/0vlpcb1iUgl6TI3GqkWXZJykQC2ZSAoIS2npTB6NlsJtZRyD5qN9QJQk8xnYgU7Yc6CXUXSjuBojieDpcVxtaTHkuM09wXPxkav7bNiLz4M0Pex/opFPwzwuJrRU2XvNqxKclbl5oJnRsbds1Xf2oPXXyNDEfB2mX3HxVIKciqN5mUiL/Y48c8TIbBZQKZEmBpQuoscuXVtvtMO/vfPmqlveZaRS59BU0vluD549BE7pxOhbziArgiUogdyE04/7Q05mZDARx/mPx5bKP/CEYcOCYD8fvECEQsPEGACIG8PGE3nPNCZKRBM5avp62nkrXm6iG77+bbrVMp9s2a68ve4rbSZqVyWnJF4YlPcNcTIJabrSi4eOka7rUHnQuME+kfegHGs6VtzadCM7xI4jGi4IXVPa4UyKVCJLAsY+S1ApC9MDovc4xgs2wRE2q80rgfoeLLEyubtvyHV9nFn/qKZR8fsp56xkrSJv4Gln6MX7r7q3vayg9pT8DHlpGyzC2UwLMU7UPwg+qmlzcMm+kgn7GD3xJ/ayoi3bfZ58bndJv8EeddVvm/+csXWHZDWXWH6OukHoQMQKHtTuA4nNu2FJ7jHIX3E459uJAokhcfqoqMTm6gbmueWG8LFi2y0m6zvN7Sqj9/l1pbZIt748UBY1nyRQA9ed2gLbKIXsOldyrmbe+9FtrtK+638pqN1tPK+7oBvIzBPXziKR4V8s5hnQcz9JOEZmmwBVtCzwjM24dCJVAFtGkeuvNeud/9ttvceZae1mMZNVSxsDXcHLmubnHFCB+j1q+goqDZ0HBeOv45EylnIK4RaEMFgdcPaSciNaSAsLuV1CFNB8aEURbs0wPutUeKbJQI7WIqHcXlEwYUEdCneKdWnsWdX73AfvXNH9rIirXWUUv51yxRelQYAPaOFxH/yf9WAxkKScQbp7F97ZBksKj6p7+m2hKHvFVgni0wB0b4FlYgozFLCJ49AhsJOp++4bOxd3zlAsutD2B2Puo6SSFT4Vk8Nb4yuYgy0Tu9bv16W7tqle138EGW7ipZm74ar9MAYJcVlcq/RYXx0I1jTT5tXUlqN96qCe1MyPX22bzZM+yxux620bUDfs5fpZW3WCgW5RXWzD8VpPg0O8NqsMjQlgMZmsRgDkTOaGOnRmu24p4H7dpfXm6L5+5infMX+AyrbD7nBfavUig2X9/ni/m0YbjXSyYGBc+Arcqok16B7FJkP+UxA0U3Rpci7RjfH29FUTohPufR3GxRKFlL16gwQZK3oGS1vvaRT9hN5//cSsNNn+7aiaTU1HxQfl0B6F4XECXn7W2hCGXmz9oaIoFoMzE4aYcyUeUMvXgZC2k7OAYzRJwoXhx/U9LpwD+0XFlg/upP1BSqTABzKIenjzVTcCvpmmFyETnNygvCGm5YtdoeuO8eO+C4FwjQOatm2+4tuafpFR8YMj50Fe6HqDui+OwwTug6/Shc7p4722bku+zO2+6wysiwp1dUvTNURjw6imPWhFoJj4KizR+kSQ9mL5q0ZqZOR1LaiuWW3X3N76z6yBM2t2+mZfpmOFPRngC5kM5Yk84N14pBiELxXKzGAgzzAJoRNqWBe+tCvAkT2YrX0qZxW0aVxN26D0uMlfZnqHKIAZQbAinvbVt/zdZeeYv9/BP/a+uuut2mj2Sso2pW0o0sL8WXOpiphEYOVpm7dU3Zit1UF4ytId3md1K0cOhEyTlg6/lVeXlkW5b5oNjNjiIH/mirf2O8mhAg/vu78JWW3fL1C/wLIyz9G0oQRDw8M8QP56IHTCZSlvhsLB2tObWjV61+wptvu+2/l3dWpnNZrws6aR2t8gh9ZETlCgYh5ov29Y+3tZyv+tekH6QgOdA905YsVtOmbQ88cJ/a6w0rqmJ9KBPvUnezagyjPnTUxSNDW0M7hGXOZwriBTNyKLjYVqnbY/c8YPf87jYrDletS9eLxS5f1I3XFvn0a6AgPDDFeR9Ojm0dtAps3cXVwUQOjMWHsXo4FQevwlswiq8IvtqoYsadRd7bLbDmKmmr3Pqo3fujy+3K//2O9d/2kPXVclaUa81bZKxfRYcZvdtMN0RGqHyeGlekKwxttxrMEY3lP9o66YA0KXPsIrLe+EFY5hjMfjo8mzhsOeYXE6KLEkPBsSzP9d/4ibUHKuKDuBHxAuL/xBD/n1SkMjLrj/pgJAHlunrtahmEtO26ZIllOwpeJrynVI7pxqGu4MwYT+IycyiZiMvJrDLSIy0a0gsO3tcaG4ftiYeWW7bS9OnOeJE09eJ6RxaZhITbjeyN6cI/QDsAmGUFmdaIK+qMVqYl3R3yS9obRuyRG++0B2+60wYeW2Xzp8+ydEcPBVGkiKHse7ECs72kLsQTw4Ro0TZcieKrfTTG1Akho8rhKbhf3lEp74FPINm6qt3xnUvsis9+w1b84gbLPzZovW0pJF6coI2su1AM9FwzjEaZXCyifLnS0B5Kgkc9EzDHJfP8TySdIE3fjTRcC8v8e2AOFOeJEHHD90kDr8SVWKVt133jAmsNlB3M/vKKQhD1wCNCfN/kI5WLPCNfqgzYUh0etSceedT23XNPy82a49M1G6rvqgKr4vA+gkuY7nPNSBr+P+x7k0K/OpYZQOt0/GHFhUv2tEb/oC2/+363xKwiA5i5E/4w74LP8ADmeBh3S2iHADMMi7+1TJu0qcLilmITGZdtrR+yR2+/z6675AobWv64TS91WGn6NPwdSZy4wUQArJ8qi/YMWtXvVdpuadXOY/zbg1iBXee5zlpVHLs1ue7UmVt9B4GCXH7/1tWIxNq/kWy2/Nu/sAv/8Vy770dXWmvlRsuNMq6u9BWPXkvygJC7FxBZZKXg/2KLFgQ/VCzXt7ZWPL0JW4g04B/t+uABKG0XSilJCc5Bb2HSiMAcIjp5e5itjscVmc6RTwU691IjymElYzd9/ceWHqhZq1z3ecgorNDsCOWJ8xIlPamIXPJ2GpmjeIDH50UMjdptN91shx5yiFlfr4CoOlQ0FptoSe74UH7MD0erb8P97qEp8PVKV84Kqm658zwwb7st2tPWPbbS1soIlaTU/YOIyofLBvIlCq9PRrzfAhqbzgkx5WOyEcKADkT4sVChx4+hn5YV0H7SfOlWeD+6nG7aSKFtw90pm3v4Xnby6S+1+XsutswMWetpElS+QcX4H3wXg6gLlzRnFmUP5Q+8UyTSV+AFddfAROaiv76o/UGB+Il+a24csZU332dXfvdC23jvo9YtdOTkasfuOIFKIU1mxfFw2kpeyZwWkawHnudnPAeB4hNbSNw3dq8ovp2tT+uJngG4sUYNudlnf/dfzRZP93guPQgUY+yRYP1eJjiED8jOUNO+8da/sLqUV1bHHUzUkXA3xCOEmsAN3kHI7iSjAGY1d5Q/5uYHLjUFKsmTxCaz63Q759P/YDav16cW1+oVy/PBQcmF84HAbV5O8Stm2cRKiAk01xRRSt7uf9y++4n/svJDq2waLwRITnCxeSXWxY3odOR6un+YdgAwi5n+H0BLfrRLdsN4X2RJAUe7qRica9uo/N1KSRxQW6c0q896F863GXvtZrvsu8Tm7LPIOneZ5Qsq1KQActrK8/We8TD9MOKiUwQ1mIkU1uRHy9IPb9hojz60zB6/5QEbvPtRG77tYWuv6LfCcFMikXXrS3QUgLuhURp0XsdgjrXu5gCNko+cpVDyrawW7oluH0vTiXRdiwHmcNZ7tMXEBS/c11K9BWs0JcSKx7Afi8Z7T3QcNwoQWWrznbFa0zrVwFvx61stPdqQ4qMjx82PVXErKWeUAdKhSTHZKHgPuMLKHxVCTunEUikbObnW8oHn7LPQuubPtJoUH1+MbNUbau+GuuUWyviHQMfoBAyoiN/MdsRbG3jocet/+HErqnnm/TYeQlqky/sFfyjdmCY9mAGoZMLbZ7yZgpsNA5lCx3leEURIUkyO1z5uMfNjfW64LEs6nzM+JVJNNa3U12Pdc6Zb1+zp1imQF/u6rWfmdOuZ0Wud0zotzwfkC0W5UgKkwF2v1qxWrlr/mvU2tH6jDazdoG2/rV+91s9V1vRbttKyTj2QWVwZpnGSUVkkwBwAieMUhBpiPNHnmMeVpXMTK8vrO9pymprZWjDHygEiDdKK92NiP7SHJcDaVNR4471tlnfyeLiS+jmQo/vDBUhndY4ypuVuFiWUM01ej/Z5f5W5yGS5LGNDuemdhSYrmJ3n7v9S1JDBMI4sMIsfLC8E0Pn+uL/KqzoMC0MGTsOeuA4DqzYPQD48WBB/RlsN8SEokHSladMKnZIdpRdVFHlgj9R9EpGf/cO0A1hmBuvlRiuLgFk22IHMywr09voYrZheabGID9qUDoxQHmbn4CKHd4LFHp3m0yZtCW07F94Y8tUfdL4mCfRrxFNFwExntxjMkkOZRtvfUaVDgmmcWOgC7WdJJwvI4TLQUZdXHA7DcFMAA3lCoEkTFzeCyBj5+bDrFNWpx3KrsZXVQunjND3oYGL6kHfQkBfnjzwcyqJjhDS+J7yiujlSzuCV4vtKHgJxpxxV7qWOKCse1IjAzD6dPAzfUIytLMp2IcrKhxJRrrGCReG696cy5bimevY2s4xGtYGkUcYgZ84lbnJy7jmYx05FxOKClUrFCvmCd7ThxSBjTRkd5CZ+duhV8VR97Z4t5dmkBzMLjNczLAaIlkewwzimrwQiigtNBE7hAtFxg5A5GFxog5XhG9JIelruYUMM5DitymGfBHxRAhdg7uWJepJqmjYV6bFQF7O1vDda6TbkznMvCsW/k6xbfXa2riEMYZJ/eBmFFMkxL2QClzBLDMAo3wTtQzzVt54N/dNfaK9vOfEc7iAJDxPTZ580nS8BzL6KpfIVJrLiVZA37lCuN5HKeBc+1aREscL+wT2do9xleUC4n74vMPvbcs72UF4cl0lH8ET5jdv3QCzUEWBS/WZVOpXX19uGZ+IXCrYgBeb1p3hsPR3S03+XoHDgxOXhdt2yxbzl1WYuqG3nhkbutk8yQS4Vn8D98JeXbViQcGI6T0eTHsw+MUO+WlxQwAVqYZf4yv+IwQil8k97BNGB8bBQ1+AFGpYfAgzIucR9npyDTTyIrxHfU9bFcEWMx0PQfrjBr9A05LmODhdgaoS8EZ80dbfHjYMukzf94LTHI7loHyLO+DY6S6StIGIT4jSf6nbnhfJHGVBQocQhf/G9JLRp3iDSxKtxRabCBMurulJ9hT4OKVbxB0/GZ06JSCfanVwUFYx6BjhwIc4ra9t504M4KqN7e9S36pdOM+LFdTjOID8aoxiM3tbW1lfg0Q4cR0pYN54JT45C4uoGNgCaePH9f4gmPZgTSiihLaOA4oQSSmiHpwTMCSU0RSgBc0IJTRFKwJxQQlOEEjAnlNAUoQTMCSU0RSgBc0IJTRFKwJxQQlOEEjAnlNAUoQTMCSU0RSgBc0IJTRFKwJxQQlOEEjAnlNAUoQTMCSU0RSgBc0IJTRFKwJxQQlOEEjAnlNAUoQTMCSU0RSgBc0IJTRFKwJxQQlOEEjAnlNAUoQTMCSU0RSgBc0IJTRFKwJxQQlOEEjAnlNAUoQTMCSU0RSgBc0IJTRFKwJxQQlOEEjAnlNAUoQTMCSU0RSgBc0IJTRFKwJxQQlOEEjAnlNAUoQTMCSU0RSgBc0IJTRFKwJxQQlOEUufnzmynmmlLtXVgzeh0QgkltKNR6pv517abqaylW23LNxrR6YQSSmhHo9QP02e2W+2MtfVLLHNCCe24lLrAXicHO2MtgbmRgDmhhHZYSv0g/fp2qpXRbluATsCcUEI7Jpn9/4sUNkfHnDPuAAAAAElFTkSuQmCC;" vertex="1" parent="1">
          <mxGeometry x="560" y="500" width="46.24" height="47" as="geometry" />
        </mxCell>
        <mxCell id="S-qiJmRuS_3FpjCbaUB7-29" value="Azure Open AI" style="shape=image;verticalLabelPosition=bottom;labelBackgroundColor=default;verticalAlign=top;aspect=fixed;imageAspect=0;image=data:image/png,iVBORw0KGgoAAAANSUhEUgAAAYEAAAE8CAYAAAAmDQ2PAAAAAXNSR0IArs4c6QAAAARnQU1BAACxjwv8YQUAAAAJcEhZcwAADsMAAA7DAcdvqGQAAL1HSURBVHhe7d0H2IVHWSf847prQcBdZXcRAQMJoUgglCSC9N6CFAMBEiBIC22XoqAIsoKoKCAd6SUBRFqoARJqQgm9GwE7LrprWVfXVXa/9zu/Wf6vdx5Oe/t7zpn/dc0188wz9Z577nvaM893bYwx6ujo6OhYS/yrb9sdHR0dHWuIrgQ6Ojo61hhdCXR0dHSsMboS6Ojo6FhjdCXQ0dHRscboSqCjo6NjjdGVQEdHR8caoyuBjo6OjjVGVwIdHR0da4yuBDqWCvUD9//v//v/vu26KISpJhi68xx3fd/RsS7o10Z0HFoMWfO7vuu7ml39+UUZcCdMhfCT/CtqGG7mX/2rPkbqWH10JdCxrwi7TRPK097zr0J6khsSP/7DdP7P//k/TbjnHQVSww3T6+hYdXQl0LGvCLtNErTTBHDisBOGICfAmX/9r//15jtIGrGFSbwYoBDErUi4jo51QVcCHQeOsGAV1FVwE/hxD5GRfI0LnvMu8eOXZZ7EiztxIXGD6u7oWCV0JdBxoJjGfvwjmP/v//2/TSiz+bON4r/7u7+7uZnEgcQj7BluYbnryD8zCO9rOTxD9YP4d3SsEroS6DgwDFnPM2H/rW99a/TP//zPzfz93//96K/+6q9Gf/u3fzv65je/2ex/+qd/Gv3DP/xDE8r/63/9r/YcZcCPsCf0v+d7vmf0vd/7vc183/d9X7Mvc5nLjP7Df/gPo3/37/7d6JKXvOTo+7//+zfDiDNL0Hcl0LGK6EqgY9sI60Q4Dp+hstek9wQ3of93f/d3o//xP/7H6M///M9HF1544eiP//iPm8D/67/+6yb8//Iv/7K9oxgudrGLtVE8oS1NRpo1ryD+FAWFQfj/6I/+6OhHfuRHRj/0Qz/UzL/9t/92dNWrXnV0xStecfQf/+N/3FQO/+bf/JvNZaFa5iBp510tx6TwHR2HEV0JdGwLhHddW4fKSvyyTCMcYQoJS+D/t//230Z/8Ad/MPrsZz87+sIXvtD8CPxvfOMbo//9v//36Ad+4AeasI+iqCd7YsM8oeu9/BnxCPcsBUnbrOKHf/iHR5e73OVGl7rUpZpiuOENbzi6ylWu0mYOnsVJfYPky9T61fJwD+N1dBwmdCXQsS0QeliHXdfZA/4RkCAsIf+nf/qno6997Wuj173udaP/+l//a5sBEPrC//t//++bTQFE6Nd8PBPasZP2IjBrUM4Ygjmsb6mIkDf6l65yKQuFYOnoxje+8egGN7jB6Igjjmh+4stbmZKO59iQ5/jlOe86Og4LuhLo2BYI6Qj/KtQIUYKRoPbe8s3f/M3ftJH+K17xitFnPvOZJvj/4i/+YnSlK12pCUZC39r/P/7jP7Y0CFfpS8v7KrAr4jdPqFYBDJ7jlzpEMTCUgWUjewoUgnIQ/kcfffTo1re+9aZC+MEf/MEWV1mFlV7ykU7FomXt6NhvdCXQsSNkhJ71+diE4O/93u+Nzj///NGZZ545+tSnPtWEveUVa/BRBJSENCCsmGcgnD1XvyGGQn4WJikEUF7CXvm5E8ZSkP0D5cyehE3kk08+eXTnO995dPzxxzdlEIUVpaK80kn6UY5dCXQcNnQl0LFtGLkbNWMhigBsvhr1v+c97xk99alPbX42ci972cs2AWjDVzzC1ggauL2TBruyZIQmP+4YzzGzICzBHCGd8PwJ5QrvomyM7L2nuIT1fOlLX7ophT/8wz9sSky6looe8IAHjK573eu2PYUq6KWlbh0dhxldCXRsCwRcRs6Et1M8n/vc50bvfve727KP0ziE4RWucIV2yscmsFE0dqtCOYJYWH4RoEO25D+JVflPexfkXcJG0Nd43OBZmYRJ+IRhq6/TQ04RURDqpl42kSkDS0U/9mM/1pSjeoqTNDs6DiO6EuiYCqwRITgUmIQ8Iefo5uc///nR2972ttE73/nO0X//7/+9+VtDN1r2XvgIVZAOYRqhH6Gbd0HNM0gawfD9JNT0K/iLn/INUcs4DOPZZrLZgXC+ZRD2uOOOG931rncd3ehGN2p7Hjad+csr6QTJu6PjINGVQMdUVMENWIUh0P7n//yfbeT/xje+cfSBD3ygHfXMB1k2eRkzBGEhaa0Su1EC2RSm9Ah7dWZbJjrxxBNHt7jFLdo+CEWh7mzgRhPPoU1XCB0Hga4EOqYCa0RYZSRL6P3RH/1RO+J59tlnt1mA5RH+BCDhDwShuBFsQ/cqIDQBNKIA822Dd+zrXe96o9NOO63NEJw4AvVP3NA3SiLpdXTsF7oS6JiKjFCznOGo5/vf//7RS17yktEFF1zQNnwJf8YHV8LHQIRcMHxeBaALqHPc+e7AqSFLYjaMr3/9649OP/300ZWvfOU2c0BTgl8c9ONGn64EOvYbXQl0TAS2MLI3miWwjP5/9Vd/dfTe9763bYhe/OIXb+vg3IRYEHYi3LjzHOG2SuymTqknRPkBoZ7rLSwVOV5qVnC/+91vdJvb3KbRzzsQvyuAjoNCVwIdFwF2CEsQSoT8Rz7ykdFv/uZvtrV/Z+aNbi37OBUDwhNobApDvCFbTfJbNUSIUwBZDqMkzAxcS4GWNtQf9KAHjR7xiEe0O4w8Z/NY/MwmOjr2C10JdFwERrNYgiHoX/va146e8YxnjP7kT/6kjWhtCPP33pJHXf7hZ6nDzGAv2CpCdqvYi7IAYR+BH7pF2YUOCee9bwwIeTMom8ZPeMITRscee2x7l1lBR8d+oyuBNUUEVhA2YFsGcrTzWc96VlMAl7jEJdq591zjnLAEGgEWwRcbknb8hu8XxaQ0t4qt5rkIhuXiztJQ6MKmIIAi8GwZiIJwj5IP6H7lV35ldLvb3a4tHYEwFdLbbr07OhZBVwJrgAiSKlAIJwKnPntv9Op+H8s/73jHO5pwItCM/tkZ+c6DcNIbKgmIO/4V1S9hpAFmHoxRcwTtpDQC70A4Jsc3ucVJOYJJ6dSyxE7c7QJNnahCU0tET37yk9sJIpfW1fwY5UXL5BukPMPyTcK0MJP8J+XRsdroSmANEGEJae4I0cB7a/0++nre8543+tKXvtSELcHpmgd2Rqk13jRIT17s5OV5KLyzVFLjgOOW8rdenjAEIiWQd8LXsiQuJF+2slNumcWkHvycauInjHzAc9JiS4PJc95tB0lLGpbXXLOhLg984AObufzlL78p9JOnegszLd+kl/AwDFvfgfdMaDEvfMfqoiuBNUCaWMeuwhgikF378MpXvnL0whe+sH31S9ha/ycoh0J6EZZJ2OpmQ/KXbgQvEO5GyZZLhDFKjsBXDuUhOAlKG638xXc2P4JTPALdprU4TL5cdiOoZ0tb8qDcCFhLNPIikNnSGJZRuDyD99vBkAYu05OnmcFtb3vb0YMf/ODRta51rfaOSdiET3xIGVLvYNIzJJ2Afw2bcMCvPnesLroSWHEQWpqYIOOOYAHCUkenAJz9f/azn92EpBEzweQ9TBIG89hGPsIww/h5FwFLCBOCEcreE+KuZLjGNa7R7uLxoRVhz+1UDeEpLkWQZSJIusrOSM+yi7uL/uzP/qx968Bwf/3rXx994hOfaOmKo5zSRQMKI7TjHzvhPG8X4ictdVB2+y7q/RM/8ROjxzzmMe3jstRPuMSrdi1D/GZhWplTt0XS6Fg9dCWw4kjzxo6AJVwgCuCZz3xmE34EJ6FJABGgQDgM2WQe28gnArMKfW7w7E5+5VAGecvPKPjmN795u3juqKOOapunhHSWhQhMaST9agfDskXZCScPSs6oX76///u/3xSCv5t9+MMfbtdbA6VkxkB5oAeIL+3kuR1E0MaWljKpX74r+PEf//HRE5/4xPaBmTrLk11R68gtDWkm3bxn17yAX95Lt8ZJ+Ph1rD66ElgTEFrp3JSA5RCnfSz//MZv/EYTIkx+4B6BEEQoLMIuhE3i13gEnHeWctzCad/Be8rAxui1r33t9q9fRymVLwIq6bBTD+lQHNL0rOz8IugqanzgBmkx6KHejsH6B8IHP/jB0VlnndVO8BDM7v7xRzSKA+SVtLYLdYsiUYcoKnWXvu8xKGczA+VTr5SbXZ9T93moZR7GZUJf8D5hKib5dSw3uhJYE2hmHTgKgECzB/Cwhz2sCTpCoI54jbgJJkjHHwqteRCPsCNo2E6/WPrx9az8Cf5TTz11dM1rXrMtwwzz8cxdBR6kLuA99/B97OrP5Q2/yvbDZ2l+9atfbV9H/6f/9J+an+Uo+xF+hYmG6l/jbAURuEzoowz85U1B2scwG3rLW97SZkRDCKcc6GgZzayGm+Kyd2K2IwyEfmwzDm3gSgvtrk5s/tq1IvGDi9CyuDuWG10JrDg0bzpzBAFh4QI4999nmcUegJF1whBMi0B4pgoc7ggeaVvOyQYo3Pe+9x3d6173alctUzbKKPxBYB77mwH4Ujq/xrR2r36ELkVQFSV/NuykW0VhmqlZHjNbo4T8zMamvR/zUEaWscymLGlRCJOgPLPKYlZGCVM49lpsulNCZj+es4meZbghpqUf/2pDdXccDnQlsAYg0DUz4WLZ44wzzmjXFqRzG3USYN6zhY0wn4YIhLBPFQaJS2AadUrXGvvtb3/70T3vec/R1a52teaXfNgRDPstIFLmSchykzBOF/lfAuXpCu3MaNAwl+dVGmwH4oce0vVMydgjIIw/9rGPbYaLyfMszCtT3idv8IN9XzMfc8wxoyte8YpNMbj8jnIyc3BqS9myHBe+Gc4mAB3xWQYW2r7j8KArgRWH5o3RGd/0pje18+g6og5LAdRRv3ARKrNYI0pAOoRBBL9nI3+zDaNJAsOd+ve4xz3aSR/PkCWQKINgnkDbT6hPBJ36cRt9W6JxjbabVL0zCs+3FKF1sAgtK+QTWgJhyx16MRG08ks7Ju9gXn4pV7WZ1Dn+0ra0ZMboAjyKwQ/3KXKzB3sYBLxypMyJqww1/dQhvNNxONCVwApD0zI6J+MiuMc97nFtWUFHt9wQJCzoqPPYIoJHh05co1cKQGcnOAj+u9zlLu2Xi9agk24EAySfwygY0Cz1U2bPbMrUraove9nLRh/60IfaZjJaeE/5pU5B6jv0HyI0qOHQufqnLGx0rmGrex5qG3AnDzYjbTYllD0Q7cuPQrCU55eaNvJveMMbttlC7kYCaYZ+4lIS8ePuODzoSmBFkWbV6Rjrxr/0S7/UFIF33/zmN1sH1TF1eOBOR50HcaVjFKiTExbi8jdavOMd79iWfiwjCEeYeR+kfOzqX92HBSljLTMY/fupzm//9m+P3vrWtzZ/tMz3Dgm3KEI/SJt4jjBlpxxDOm01r6CmL820ffKoMzVtmBE/O8Yy0ZFHHtlmfP6oZi9B2MSrZU39Og4PuhJYUaRZ2TYRn/rUp45e85rXtLXlbGpOw1ZYQqfO3oLR/8knnzx66EMf2taSIzQSLoKRm4lQGwq0w4TsC4CyK2vslN8Skf0Cp60+9alPtbCAxluhZWgxTL+mUcPMSluYIYbhJ4UJhE0bBZ61p3dR6uhj05obD1gC9J3H3e9+96Yc+IV+2j/80HF40JXAiiLNas3fbaC+BbCZ6QghYQ21ow/ZYCgAhtDpGZu/bMtAD3/4w0ennHJKO+Mubu3wST/xgB93fXeYUMsVd8oMsdXVksknP/nJ9pHXRz/60eZPQGZEvwiG9ZcXGkZ4ek6bJGzKk/Itikl5QdKq6Vfwr+/SxvgFLxD4jho7Deb4773vfe+2VGSmKPyQLzoOHl0JrAgIHJ1LZ0xn01k//vGPj372Z3+2/Qhe58xJlu1A+uImD0pFvj72chPmHe5whxaGiaBYBagrk3qrW+zQMkrTrOC5z33u6MUvfnFTtpaG0GMrymAZkfZmUwB4w9fW+OOxj31suxPJLKHSLuFBOLOGISp9O/YGnbIrAJ3KCExHIWwYbkcYrVd/8YtfbEsTBFKE2SIQjtE5dVbpptPa6HXu/+pXv/roBS94wejOd77z5sZhwqwCUufUH/1iCK7Ul7BCY5ujTtGgj2ft4l2WT1Yd6OJuJryHFj50cy05PmG7rwnd0CR0BPThjn8QHowy6Nh99JnACiBNmA6k0xDQz3/+80e/8Au/0JZqCKR6coVNKM1q/nQ+NgirsxJwOvqNbnSj0a//+q+Prnvd67b0pef9KkG91D8CnB3FwB9N0MgM68ILL2x/YnvDG97Q/h4mLoFXZwKz6L3sCI2AO7RylBTcy+RoqQvynCjyLQJ+ESa8hlaB56QTfu3YfXQlsELQlIxO5YOm008/vR1lBEI7Aj0CKR1vGswAMtpldFh+lMmtbnWrdumcM+O1g65SRw294s6zOnITWJZ8vva1r7Uf8Lhv6Mtf/nKjkb0XSgDQR7y0D7OqQBsm9UUntlkioY9e9g5uetObtq/Gr3Od67QPCfFk4iad0Cpt0LE36EpghZARFYH/qEc9avQ7v/M77QtP1yJH8OtcOmY62SwkDNvGHuFmSemnf/qn29TeVc9VuAkXswpAM4I+wp8NqZ8lj/e9731t9O9qiQgzd/ewM4sIncVLGquMCO3wRPjNIMLpNB8M8jOAuNnNbtauETFbCP+GXsN0OvYGXQmsCHSqdLa3v/3t7ZSOZRsCKctATIRQFWrTIC2G8KcEpOMI6JOe9KTWacXPUoe0uRNnFaB+6FSFk7o5ceUKBx+L+R+BcD68Y6NRjSd8hJnndUH4IOIltGPMCigDMwKHFXxMaInIrACfVZozoWfH3qArgRVBmtEpICN1t2A6pWG0ms4Yu7pnQRiCXcfMNwA///M/385/e8eAEa9w0tNZ47/sCJ0IIbZjoF/5yldGz3nOc9pHd569892FPRjuSYIeTUJ3mEf3VUD4A00g/BFaeqYIGHzKdqSUcbNpaI92aCp8x96gq9clQhUkQ/AniKxLu8bAH7hcepaRVDpg4td00ikz2qodLh+C3frWt26jNVP4dE42Y5rvOX7LBkIGbWIAfdQlz5TpM57xjDbDete73tUUH+Fvqc2mcE68iCNuNUk/z8KE1uC50q2+Hwq/vKvhYejHPQxTkfcJk/yqX7UnlSPvYfisnqEdcOdZOO/R0AwKDfHYU57ylHa1uWtNlIcRLvakNCcp3Y6toc8Elgy1I6UzMdxGqT/1Uz/VRu2WgerdQJMgDgFOgFUkXTMAewrOdzsF5DQQRGAsC8Li6jUJ9T2hkvqhNUH1/ve/v/1689xzz237IPxt/FrKEJcAQ8Okn/QmoYYZupkal1v7sKcJO3GEUU62NotSJri9V15pCGP2wo5iqnmKk+cYaSRv7zzzT5oV3kdgez8NwiWf0E6Z3UWErmxfuLviWt4GIsKDOPxSFvA8VFIdi6MrgSWBZkpH0MGqIPbOhq2RqhM7BJW7gvhP6qzTEKGhU+mc0uH2Idh97nOflo58pblMna7SLrTIM4EYWqoXYURQCmdGdeaZZzaauhrBPUj+PhbhP0x3mMdWESGsHOzkAehdae4SN3s+2inthQcof7Z6JW7qp24Ean4iI45w4DCBwYPnlCH0iF/ql/LV8jKLoKaT+ikHmwLzbYEymsk63my/IPVO2CBtl/p1bA9dCSwJNFM6T8AvzefOGldE68im0+x00FlIp0w6bJ2KwCMY3AHj2glfgPLX8QiGYVmWBalnLT8/z+qGbn4k8+53v7t9aU1YuhDNko+vgQmk0FQc7sSHpD8Lw7Doyp1neSTtjILZ1s3ZymnEbBOa4HQqSRraheFmaj5Mys2m6NSVwrCMSLhai1dfzzEgbEbf0omd8gbxn4eUK/VWnqqQlEM92f7sdtJJJzX+S56JL16tZ8f20JXAEqF2AG6dwLPR32/91m+1f9ISAkarOof3zCxE4EgvrGCjjjBw/78PzvzsPeGWucOlfpWG3IQPIeeiPVdDu2jPV9YEP0FE+AtT6ZS4seNOutMgHCTeEPyypEMworu2yCkvI2WG4Deidy+PGzzN2rSbEzcEqPYXXzrysuTCEPxmMv5QZk/DF7xMZhEUP3/xpYUuoU8UR8pe6xl3rd801LjciSPPKBt/PFMP+1q/8iu/MnrQgx7UFIH36gRJJ/E7toeuBJYIOkBGPhkF8fNh2KMf/eg2gvVVJuFVO9SsJhaOiULJUgFDGP7kT/5keyeNjIJThmVBBAWbUX6IYCcQzzvvvNGb3/zmNqMiBAkco21CEULDms6QBkk77ycheYfeSQNtCX9G3AhvZbM2ThGbnbl+wea8S/oISoKasNdekxQ6u7Zv8sMbBLrRviOveMb14maRflnJ9kxBUD75BgLQjV/dB5H+IqhlgOpOGvyUmQIGisD9Q4985CObnzolndonOraHrgSWCBHAoCPq9EZ1ZgDWrXUESkDnBmE176wmTmeKoLjc5S7XTsL86q/+ajupQcAkXNJK+GVDhIyyRwj6b7Dz/m4ARTvC14iXAiDkovhq3WGaGzxPQ6VdBJgRvFGvZ+1KIBP0fitpbdwHVb7LsAdAORH40km5ojCkNcxbmFq2IRIvtFFnMwL1NwP6whe+0P6ZQDGgkfwhy1IUiDggn1l1D2p5psVBd/6Z8VAEvoC3T+CwQsoN1d2xdXQlcMigORidI50lTcQOs+uA3K6FcHb//PPPb1N6nTcjNh0p7lmQjryMLKVL6LgFk3CClGdoHybUMqlzhLe6seMO3PPztre9rf0z2I/bCRujW0oVHSvtar0nIfmyk0/iRLhCwoEwhJvRvSOS3hGw7mE67rjjRscff3z7HsPSD3/vkz93TTsCM+nXcFDfQX0vDXbCsOP2jqIk6M0MzJZci+HraDeEgqsgKC3P6sRMo1t1D+Fd7NAQhCf0Qbs4oOC6bhv16o1fKcHEh+TbsRi6EjiE0CRplnSG2lmNVC0bsF/96lePfu7nfq6N2HVGnVbYdCT2LKTjSltnsxTiHLw/RC1TRxqysbKrO3+CAn34Wd7xAxh7KD6ss6ziKC3aGQGjhTiJOw9pkyFqu4HnCC22zeasw3v2gZ8/cxH+1veN9gm3CDmQT9pkr9pGHqmPshPoaMcPb+EPswKDjpe+9KWNnsKYsbg0zyBE2NS71oE9C+rEiJt2YNDHJYj5d/X973//0ROe8ITNvRPvU+bQPXHz3DEDY0J1HBKMO9O3Xf8PnscdZ2Ms7JsZd47mz2b+4i/+YmOsADYudalLbYwF+MaY4fWEZo87UzOeZxlhxh1pYyyUNsajq43HPe5xG+PRcMtn2RD6oBkTevIfC9uND37wgxtjQbvx/d///RuXvexlN4455piNsQBp9UezsbDbdE+i1SQzpPEkmidN78Yj/43xCH/jB3/wB5vf6aefvnH22WdvjEfSG2OlsPGtb33rIu2dOgx5Y7+QMoSmnpURPT/3uc9tPPnJT271GAvkjctc5jIbl7/85TdpyYQek+gyzQg7jMceK8bGp/L6xV/8xY3xDGVjrJg221054w6Gzx3fiT4TOIQYM26zx52p2UGaygwALGn4laOpunVZ66aBuElnGsYdq4Uz6kxeb3nLW9rZbGu+ywS0YdSJGQuEVicbn5Z7XPJm7d9mpxM1RuCWMNDISNcoV7ykNY9+wqY9ajxucVOGzNgs6RjhGykzt7zlLduJF0tv8pdXaM4tPsMtPWkZ8Q4xLMNuIvUJPMeP4R4rhvY9heVDMwNLXJaILHGZYaUOoYM6iLMoKi25HZO1Gc7PB4x3u9vdmj8awrCM0+jW8S/oSuCQIYIHY2uaKhCyAUdYEFovf/nL21IQAZP769MJAvFmNbEOYi9AOELJCQx7ATrsYVcEqVfsdHq2ZQNLF+95z3vakpmL3ix3qZOjoOoXWqFBhC3wS1rTIGzaSlimPictwo/QomiVx7Fbv1y83e1u177EFkf+8qxlSP6e47ffmEST1JHNWI4RhsC/4IILmjI455xzWp0tdzHaokJaW4W8Aa3wu3wdjaUITjjhhFaGlCVImTtmoyuBQ4TaFNwxGJnhpgh0KqN+/w02cidojHATNvETZxZ0KKMro7enP/3p7SfhOlNN6zBiWC/PDMFphE/4u+bBxq9NRCNUI3AzAOEiLDJSTPzQjJkF8SMQK8SXHmWjXWzsUs5O9hj129h0LYKRq3DaE70jcIftF+T9biP1nNTWtQzT3AYj6spPPSlYsy50t8lur0UduaOgZynXoOYFeQZubYom9lB8KY+m6BPFKYz37Bq34zvRlcAhQhi4ujGyDmQU6QijH5jkHLfTGt7pfJY9aoeJ0GBPg/dOxRBGvgx2RbTRsjjS4n9YMWRbNECjz372s00xuu6BcjMSZWcDU53FTfzQJ8IiAiM0WATiCMsmEDNSNfr37M4lt2M6708ZAMGIvqFx2gtqvjXtg8Aw72HZILTKM8Fv5nXGGWeMXv/61zceS/uE3jWdimF9Ey7+oRGgpfY98cQT291OOUUkXBSreEmrYzK6EtgD1A5dgdSVIUP6MKtn8bgJLeuqPtZxd72jeT4c8kGYc/wEm/CTFAAkr/hXRBAaqeo4hJWvMu90pztdZBaQtPYTw3JPKkOlF5sg8IXvW9/61vaHL6NRdWSM/s2cko44aZukUzHMH+rzMJ1aFsKOAuBHObvMj/HBnf2ApB0jXC1L3EMk3kFgmHeeJ5VJHSrwqn0YykAbiWMmxg2eg7iT9iQkv4TRB9BMeq74ePzjH99OEA3TPcyDmcOArgT2AOnQ6RTp3JXUwzAY2+jQSN8o/4Mf/ODoox/9aBs9EWriWqtn1w5FCYg77IDTYBlCHLBua1rtbLopta9SpXsYOo1ypF7cQQQBf26bvoS/v6hRmMpuvV8dCeKEnQZp1PSHyIiSqaP2gJ92RDv5UjrWqG9/+9u3n+9bZqNsU26o7lVFaOQbA8dJn/vc57aPzQhpPK1t0A3thUVnM7VZbRGkzdDeAAZPi28/4o53vGML433ST//rmIyuBPYIGHtWZ48gxrwEhy8zfYTj6gIjfhtt0jBSF5bA10liNFvSkE8VTLOgw1A2OsblL3/5lo6vME877bRWloqDEFbqoUwRuJU91Ve5GfSwAenLZl+2Gu1bHiB0CBhlT/hFaTMJoQE7ZVE2bcDPdwZGpGZtTh1ZVrM8cdRRRzV6onfCJo3UbZURmqc9nSDyS1IKmyIwew2Pe1/pOwtpT3bi2XdxMMKfyRyW8KU1JJwwHTMwJmTHLmPc6Zs9ZsKLnFdnj0eL7Wwzt3P+b3jDGzbucpe7bFz60pfeuNjFLtbOQztrffTRR7dz+2NBsnmWnfGe0XSLGuGlkXjS+Z7v+Z6Nq1/96hs3uMENNj796U9vjDtlO/+tvMC930AvBirduNHNs3KNZ0gbp5xyysa487d6OJ/uW4mxwN2kT4x6D+mxqBmP4Js9FiSbtJee5/EIdPM7A+W4//3vv3HBBRdsjJVRq0PaGJS91m3VkbrGoAUa/NEf/dHGgx/84EYz/H7xi1+8tR8TOlf6D01tT2E9c2v3sTJubTSefbV+Ff7BL+tC9+2iK4E9QgRXOkIVsuOR/sab3vSmjdvc5jaNgTH2eHS0cYUrXGHjcpe73CZjh/Fr5+BOR8i7dIZJJmFqOMJtPMNoHyzd+ta33vibv/mbiwjdg1AAIH+0YsetLNzK99WvfnXjl3/5l5sAUR9Kczzibp1fvfhxR2BXOmzXJG00J6zY2umqV71qUwSUz7ve9a724ZIyKq+2Di0htK1+qwzthvfD/+En7m984xsbD3nIQzaVNxqib/h9K0ZbaHPu8LS2MbCS1z/+4z822nfMRlcCe4Qwn45AKGDIP/mTP9kYT1eb8CekdIRLXvKSbeRvNBmmjgCrTF79Ge76fp5J3IS/xjWu0b5ePeOMMza/uozghYNWBGBUrWx/+Id/uPHiF79444QTTmg0I5h19ktc4hIXoUnqGT92hPh2jPjoRVARUj/8wz/cZmi+Wj3iiCM2XvCCF7RRp/KiF6Pd8xwhCOyYdUHoELc+wKYIHvCAB7SBD1qaEeDlSW1QTdq19oXqNnOWzo1vfOONz372sy2v2gYdk9H3BPYAY6Zr68BjBm1uRzs//OEPj8aj/3Zp2ZhR2zqljd6sYQeaYyzo2nq2MOLH33NFmo7/rGas8YQbC8bReCTbjvKNR03t6CJ/5U0YcYb57QfUW53HQred93cyypXWTv145/SN8llPRmN1Ca1qmaWRerC3iqQjfd8Y5CtVm7xO/NzznvdsH36lrPJgtC2/xFdGfsA/7lUHWmgXPMXUtvDshNt/+S//pbUt+trjsU/g/TQM00nYPGsb/OHZz2h8TW+fKHzdMRldCewiaufndszTCZ83vvGN7U9VNoD5E/4EMCM8PwgzA2FBgExD8lmk+RI2tuOKOuixxx7bPuxxQiiQnvIQfjtFypZ8A/6T/AKK0ZFPJ34Ifxu/BIXOjGbj0d1m+CiBISbRh9+wTMP3FdpJ+k6gUMw/8RM/0S56u8lNbrJ53l+ctPswPn9ljr1OGNK50iD08vMjisARUkrWYEjbJo40hv3Au0ltmLSlI31Xb/ua2Ad60vB+UtyOMS3GRPmXXtBxESzCMBgOalhud7AT/medddbm0UXw7p/+6V/+5Rq/vUbKpTMcc8wx7d4h/w42YiLo8n5WXRdF0mGHPlUIphxsSBh08W9kisnP3X34ZXQnLWGMFNmJtyjEH9YvadSyJAyhn6szjCzR69a3vnX7jsLVzxEqHdsDGmtHNHQVuvP9ZqS+s4giSDi8SQmEB6ZBWsKwnT7CS/e73/3abaOuRZGWdksbB56ZdUZXAjOANNMYJO9CvjxjYqN+VxV/5Stf2WRojEzws8PMET5JY6+hfIzlH8KWgjJS4gepw25APSMop6UbOghryczI3zXWloB0WEZnFu5b3/rWRFrVss9CwrFr2JSRv3wIDHnJ+4gjjmgXlDl77qpkyiFxE69ja6htiN7o7LuYhz/84e3bGDMufUhf8Q5vBPPaOG1i1kh5mBX4PsE9TWl/acpXWvxi1hpjYnRsA2NGaiabgeD0iquBxwKjbUiOR5NtU5EbqcfM1uy4x0y7+cxd3++Fkcf3f//3t/LZkB4rglZuUJfdxLjzbm7yog86ec478M7m79vf/vaN8Si7ne5AL5vkNg1txqLJTumSNMYCYDMtbVLTlp8Nepvl3rmi21XJTv0o51iZb7bzbtNq3YB+DJ5gwPHaY489tp34slGsTfCrNqv9ZJrJ6aK0c3hoPBvY+PM///PvaLPehv+CrgS2CYKMUHB6hfs973nPxnWve90mZAl/xy+rYI/QmSbs+U3y3y2T9J3G0NHGs4F2hz2kU1bspJOkY0PSSR4RpsJ8/etf33joQx/aTt3osIyyOe4XWqBbFd7bMeJKg5udtsjzFa94xaYYCRLnzM8999wm/KviSj2qX8f2gYaVpgYDTs5pGzxgkJI2W8SkjdmM+JSJ/ugIr/zwHlSe7OhKYFvAPAzm/Yd/+IeNl770pU2QYD4CDROHMQmWjGiHTM1vmlLYbZM8fvzHf7x1NDMWR1fVo3bI3UQdOeuAyedv//ZvN8bT9FYmRz4JfR22Cv8I61qH7ZohnZOvPK90pSu1dz6cO/PMM9s3E1AFfdzam1GvvaDXugA9qwH0RPvHPvaxrd0Z7YIP2MM2nWZqW/uAzMDipJNO2vxmAB/KS769Df8f+sLmFjGmWbPHzNSOubnP/xGPeEQ74mYz0b0orjAYM29boxwLjc1N4DHTtbiBtGL2EvIOlAnsCyjjXkGdpZ+6KYPrMGyW+3Xlf/7P/7mVZdxJG13ch2T9X3hhx520pSGM51qH7SDpKpO1/Rz51I4uH3Pz6Mknn7x546X8QbmUQXxx0647Lc86A/0YNEbH9A8nru573/u2TXhXceANwB9jpdDc8yCd9DMHCUDbupLFu8qPTMe4Pb5td8wB5qnG/2l/6Zd+afSiF72oCRVKwNn1ymSYPAwfxuRfhUgNH7/qHqL61/CzkPQilLl/9Ed/dNM/BlKenSJ5RcB/5CMfaadAKEwb5oSwju0YbRW6aFPt0G1WuVJ2qO4g9bPpKF/GKR/n/J1EckzRvT8Jp1zj2VvLkzAKFinLbmCY/qL5Jdxel28nULYYdEZvvAJ4wGb8Xe5yl6YAKGjt4D0emYW0nXTDO/rjD/3QDzX3K17xitZH5WlgljJ0dCUwlRn46fQYk83ww4yf+cxnmgJwrO1iF7tYG/ljWO/D0GHapAHJp+YX5q3wjJGjLPI+7hjvk98iECcdwO2W4teygDA7Ra0nuvi5yxOf+MT2oxGjMx1bBzXyl18tQ+jMDjynzkF11/cx6BK3jq+dKGuzNbMg7efDvetd73qbx1BjgqE7aUbI7DbUo5qg+oU+Q/+Y+Id+8TssCI1j4gfoq63ucIc7tFmZdgmPD8MOwb/WlVtcgp8iNwPVb/lH+XT8P6y9EoBZDOFdFeIf//jHR4997GPbF8BGloRcpp2VWachjJpwnquRBrsKQUh4/hFCwlV7GpJ2ZizSsOwxr6w7QfJ03NNHO76VIIh97EVpeif/RcuQ9CrdYJhGwgF/5/w9a6urX/3qo0c/+tHtByTO/FMIhw3DOlY+SF1rHYfgP+SPZYG64X+j95NOOml0pStdqQ1aCO3UZVqdKp0SRr/14WFu4n3729/eZqXyGfavdcbaK4F0uEnATIxOhaGcY7Z+7M5/o1gCjQKoHTMKYxaEm8WE0kuaoGPUUVGQdGbVAVI2glCnEJ5C2KuOIH1p2wPwUxF/QuOXpZ+EUZ/UcR6EZ4I8J359J131MwKUn1mPPQi/4/R7xytf+cpNsBw21DoE8Qs9fd9hIGIQYmTrXxMEW0V4cFJ6ywDl9jW7ZSFKHM8ztT6T3LHxBDc+QDf9FC+cffbZo69+9asL9dF1Qv9YbAZCGkyTJQ0jadcY6Hi1swnLhPGmIYIvaSduBb8wPcEtH8JMXIbiSTo172kQBoyIXF2hY33uc59rPzoPEmanSDnQwIdffl5Pgblv36wJUt6UfRGkfInHhM6hBZrVNWR0e8ADHtBG/X6ck6seQBzx2YcJypRysSkr/GY5w8d02l7dGO9c+WHE/DM/8zNtmYvyC22kYSSNh5YFyh2+MHv0oZ6PyTyHf4btzx1Ufoo/fvDvDEuQT33qUxtPCBeeqfHXEX05aArCTDqbUZfNQ18y+sydTcCEkcK4lTGnIXFgyHyedVhC09KJTmzGoSNf7WpXG93iFrdo721qyid5J71pSNnC8H6EshfroilHaEBxZuahA/Ov5WWnbPMgbA2fPLgJfhuJBKB2oaD90tEX0Tq9r6It/QgrjbTdYVMAoIzaKbDvZN/CFR/u2sF7+WWmOvBz944vm812zFLRJjRCm2WD9gGbxA4SoMdw+VLdg/jHb/jMZtCNIvXbS89dAXwbY2J0DDDuPM2MFcDGeeed13684upiZ47H00qcNfUM+1gQTfSfZcaM2NIbd9j2kYt84j8W/hsve9nLNsYj6fYRk7v0XansnbKwmWGak8xlL3vZVr6b3OQm7Z8Gta67gaTFKK+P55zFl+9Y4G6e355kJpV3aISTRp7Hnbh9W6BOaMfvyCOPbN8g/PVf/3Urk4/5tGOtY8o4Fjbf9jkcUJ6YT37yk43v1Ne3DPkOhcEroSW3b1OufOUrt2dXhL/uda9r32LUOi8D1Ft7QdrtL//yL1v91E07s9P+MdWPu/JZ+GU8qGr/L7jKVa6ycf7552+2/7LRaC/QZwIDjGnS7DFztF8+GkmajhtFGGEyY8ZqM4Qxk7WwgedsEk+DMDF5NlrLyN8Iz0zAjZVGss43W8e2rm1WIAyjnJ7ZKfMk1Pzkw5ZXHW3uNuShHv4pO+5obU0WUtZJZhFIV1i2GZF6ZKRrqef+979/+z2n6b5lEm0kXB3xaVfwjI77gUXqJ4zyWrO27Oi66k996lPtV4n573TqL1zS5PZrRUeW/efYvsGpp57arlF2CZ/ly1n5L1K2/YL20J7ayExVu2lHBwu8M9PjP4Q6oE3oIz47bnH1W7MJtLKn4jm8sO5YeyUQRgnjBDrV05/+9LZ2bimDEggDhnlqeMhzGJLBgGzgFibPGN6GFWFGeVizd3bdmWb/YnXx1aUudanNtORPqDKeh/lPQg0jnmdGWfYSlrDk4Uy+fIf0nQYdX7yUTz25U180I9gt71gakf6tbnWr0ate9aq28WvZLHFjVyStvUTqGVv9ITQY0oIyx2820SmyZz7zmW0gYO/GpnoUdvgOxK9pUAYGK2hyuctdbvTe9763/ezeP5jdxhplEP5J/JQt/jBMe79R20d73fKWt2x9I2WKUk+48Ma0MqObMGhgXwBtKIPwx0HX96Cxt5LgkCONH2ZIJ3OjpdEHQQwUAGRjah7CoEzS5A7zsgl/HV3eRjg3vOEN26zDSPa2t71tu81S2HRY7lWHOqor+qBbhB8/wh+d8hWptrDWb6/m+c9/fvvKlEJIPHEi1A4KysBQ3mxQx7Sl8hm5+6L153/+59vJMzMBo18b6X6qgz8I+Hntn3TNuuxbyY+ifOlLX9o251/ykpe0k0WUs3ApT2gsH/7ol3IfFJRDeVIGBxjUwewyR36FCRYpq3rZn9Kv9Gdf+6dvrjvWWglAOkSYyqjsla98ZdtsM0I3ejB1HDLePIQxEwdT6/Sec+wNjjzyyNGjHvWo0fOe97y2uWdKH+EVgbaVfJcZoRmhF6Gk/gS/0T9haqTrpI/z/q4JtvRhqQyEF6bS/CAwbC/1St0iZAmk8847r913/4u/+Iuj888/v9XTjJACqCfAIPY0JA9G/q4vcSSX4rR5/KxnPaspmjPPPLMJwAwuYCgMk8ZBodZF2bSp5TGz4vShlH0RpC76Nho7Vut/H4sO6lYda60EwhzpmJ5NFV/wghe0KTXhb2SVzuh94syCsBFA7Lgxs1FeGNkvCp/2tKe1JYCjjz66zQyAXZlc+YYddRUxib7ohRZo5qqLBz/4wW2W5mc4aFaVZOKnraJoDwLaa1geIHi+/OUvty+Wjfz9ewKPEVCEdpZtYraCxJE3esmLwKNU8bK1cPz2C7/wC6Nzzjmn5atc4ccgZT4I1HLoN9pQWQyWLPupS2YDiyJpoovZhJm+ZV4Dio41VwLpNBHUF1xwQbsQzgbSX/7lX24qAJ0kTFeZdBYwXOKwLf8QaEZ4OuQv//Ivt1GgJQ2bmul4URi1A3i3aL7LDHWN8LQGjC7awGj27ne/e1vzN2o+4YQTGj1DI0a8ILQ8KKTtlYPQSr2MwH2t/MAHPrAt+1mWMGI3K7BWbakGEle98B6EL6ah1je8wpavtK2Bh/cMdB75yEeOfu3Xfq0tP4FwUQaHgXYx8TOCpwQAXZQzZh7EB/XLwQuzrXmb5uuCtVYClYmMmCwx6CjWYnVMzJNOHIHMLydSpiEMnLQJM8sZOuPxxx/fPl93gsVaZ8Kkswf8w7xJb9WBrhSwfyDrrDrpda5znbbsY4PTun/O+wdGu+gUwcBdaT+k635A3hHaykW4+1rV37PMYmzg4is8p44UnXKLl7Kza9nDC9NQ86z0kE7Sxn9GwRH29gtsur7+9a9vSqIupR0U1IFJOdjx86W3fwdTZMo6jyZDhBZ4SB//5je/2fzWHWutBMIABL99AEdCbS6mQ3ifMOk4kBHbNKQDYtxsVprq++epUyw3velNm8AThpFHGJ87zM0vqO5VhdEeoU5QEY5G/i6dc4+MD+TQAN3QV/toE7MEz1Dp6B2Td/uJ8AzYjLUWrw6WYyxpRRhH+KeMaXfxwxuMOtU0p6HyjfDqj17c3rEpn1w/gTfR/LTTThtd//rXb0dKlUl5hF0kz91GzTf9Ie3p47Eb3OAGre0tCaknswgqjaVp89wsqO8LrIESCFOl8WNjKmC7E+g1r3lN+/w+R/IyA6hIJwtqJ2UHET46mHfSetzjHjd6ylOe0kb/3mFk8N5z4ie96s7zsiHlr3RLXWKrO3fWec2YHvKQh4w+/elPt69FCf/QptIJPAf8h+/q++1Au0H4Jjwz5KUY7xOOkHHN+FWucpV29NM/ioX54he/uLkMkbonHajl5g/ehZZQ65o0Ep8tXuJmwJI8YjOuZfD1rDKy73Wve42e9KQntT5gjyLgrnFjB0lv6N4OUrfUL3YE/7Wvfe1WZ3koBxO6TIP32kQa2pSiMwujCCkB73ar/MuI5ZQu24QGH3YYJyde+MIXtuWHCy+8sI2czAwWRWVSaTP8nCwySuX2Ob+NTHsCkDjrCJ22QgcMra561as2wWmtmhvQ6qA6pTaVdwQN4ZPy8+cHGTCwrfu758dyn41fddPuf/zHf9yWICK0pVOFD6hr9ROOUsxz8qzvhR/SdBEkDZujv/d7v9dOWCmr47buIXrxi1/clISlF2UYlqu2C/fweS+gPShTyoBiqrOcWfAe3bWPeoA2MSOTjncp816V/TBj5ZVAGBNsCKXzYWQd4B3veEc7rYEZwiRh6lnwPh1SmhlxYSh7AKba0iL8bcLVY4zBOjJcgGbox0RZ+kra/UiedXBh0Ld20v1EeEcZUxZQFsZzyme5z3KKDX8/z/G1ryuRrT8bZRtYCIsnpJV0pJ30Qg9uEN7ARfowfBf3dpGyK5N9CochnKM3MHKCyCGJN73pTU2xgfxSfnGZ1KWWh3svoP72BFwJ7mAA5RT/RZHykgVZdgT1WlesvBIIg4RpMSo/je5ag1e/+tVNAeSDMIqgdrZZwFDCxRipEP4YzJTTDOBhD3tYEwTpGDV8xV51nMMK9VdnQgi9zcSMRNEwdE2bMem8+4naTrV9uFM+I2X/TPDRmpNLv/u7v9v81IVgJUCFCx8mzaRblULc3lGCRqsGD2zxpVPTEr6mtR1II/VRbpulBjSErG8XnGBznJWCM3JOfspZy5I67LQ886B/2RtAH7wiL+WYBWUMrSDh1dX+iGfvg70s/2HEyiuBNDhGSOOyjdzczeNzfQLIiIsCCOYJnaTLxozS13EwqbSN/q1t5/gnMyvNdWM89Q0NIfThRzHEnke3/YAyRJCAsuEVa8q//du/3ZZ9Xv7yl7eRpQEAYeno51BIq0eti3S8Sz1jnJCK4JeGOE5M8U+Y8DN7p5CGsjDyU/YsieobvmWwuf0rv/Ir7Xw9ZRGkzWoaewl9zPFhimq7fKGM4rqPKR/O7QYdlxVrUXOdRacNk2IA3wQ4tkeAWxZKBwfvdcxZqJ1QXOuUptKm1JYDzAAoBGHSMdaZ0SoiMCC2dgD0qsItzweBlC28kzZ3esyI33n/3/zN32xr/Q4BWFqgAAjQOqMUF0/lOYg7wszswUeKFAmetOzhi+ijjjqqPRv9OliQtfAsmYV20zCPfsk/9QXCXz3ly6iXfQIDG18f2/jG99IOfaCmsRdA58wEQtPwyjQIV9tBeRmzAP016cBel/8wYuWlUjpApo4YF1O7FwgTgE6LERgIs8xDZRgKQKdxoiWbwBhLmHlMum7ISB9d0jkjSKoBYRJuv1EHBvK3xGdZxFFf35Q4SED5W/Yx+8NXEf7i4iH18Myu/FX92U5BZRCBPgYRv/Vbv9WWYwjdu971ri0PwtisIKepYuZhGv1qGkzKLDy3Ub96m+VY1vSRlaO7TrsZRFEWmcnsB9DK5jB6UQj69aJ9NWU0i+CeNAAUbt2wFtKpdj6N/4lPfKJ9IGN6bRTHj6kMkLAYHOMNIU3v2f5aZE/Bx0z2AaQLSbeadQDahZZoN6w3QQk1DIRGoT0kzG7QTlpVYOj8EQB5l/y46ztnyh3xNTK3PKKN8YblxIz8I/hrOuBZHWPUxbIGf24noYSnTG50oxu1W2TNJo855pi2nOgDQ4LXD2a4HW+0V+AqBYJM3soSXq1COYOfWh7PeT8JwipbIH3CkgKgECgrV5z7itsGsoMVyWMY13PO4g/fbReUkU330FK6s5D6Jpw9QHG1AaWq3fJOuN0o4zJh5ZWAxtWwGjod1Y2K3DmxMQvp2CCdMJ6OBv7SZTSEKSmAnALq2BrQdK9QO7j2CyI0MzLk1tZZ8/be7M6la0b/z3jGM1oYSt+RT0IRf8CQj5IP//AKhB/laVnDF9H+F4BvcnGhq0QsJQI+BTPLE088se09uP+HcKeAXD3u0sFKP2WKIhB/KNSUIeWYBWFqXGmZjTjtZCZCEdoTUQezFcpJePmrH1saTvGIG+G7XSivesk7swB+89JUhoo8i0tBeZYGm988uqwaVl4JYMo0MqYxnbchbDrpdEAwZJSKMIYwSQ+DY8Ywu42za13rWs1dsW4MdVgxq33xhXYkqPAJQWOEaN3fBr8L/nxARfgbEdtQNIAQro6009YRKNathQlPJLzbMP33AP/Jx2jal9Enn3xyG2UrCyOdrH0HBL4fxpjJ+tmQTVxLNfYN8KPRrTzkKX6QejEp5yyagHDiVVtZCHN7ApQlRcbfspVvI9yJpEwpc+gqX3sdw/6xFSTNKKCUiZmHaXU1gAuthEm4/2fPps+qYOWVQGV6G3fubjGK0PniP41B+FcmY4fxdLScBnInjB9i89Npg8TrOFjUNgTtWgUrIZB2M9J1NNJJGELNXf8EjtGs0T8lkLSkkZF2TT/P0mXwIL7Bd9bzxaFE3NtjlvGYxzxm80ZUkBdeSjpJm63s0rJp7KdHRuKuUpCPcjKEpDQq/3KnPElrHkKnGM+QNNHCLMYsmPJyNba9En9G+9CHPtRoqR6gzuIo+3YhvjJQJr4lUSZIuRZFys+QCXW5CvjDFpNdWqy8EtCwDIaxF4A5rSnmu4BFGCjMFsbByNZqxb3iFa/Y7jr3rIPxS7iOw4naPmkvwsDxR1/MPvaxj23r8oQygapdLQvhA2524rMj2KSV9PgJx5aGY41O/zB+gu8HQk7bWEoh1CqSDgN1IBM/MAixdORbF3sIrn/gx1g+kq94iass3Ek7/rOQ+NPCSseymNkIJUe5uYLFh2aWrVz/MdwTSP7MVpCyowelTbHAVtOpMBOo5VuEJquGlVcCgPkxp2t8CWsdehFUhpAGJiEEMKDRj87mRzCm4sLyz0ir4/BB+1WBYamCUPKFrPV4J17cWGq5B7S50zq5UXaWgEi6VdAajbswjh+30bvTY46V+vWjfQDhhA9/gWeGsJMveJewkDD85IEPpesPXAY5BBuFY/kocYMadyeo5dG/LAPJl1Kzye0KELMcdye5gmKn+YH80KrSZiegSNa9z668EgiTWtP1bYBpq069SMOns8QNprf2E4wg7nKXu7TNOsognZ/dcbgQ4cPOSFT7W9N+29ve1jZ9LRP68pc/5WCmWPkk7Q/VnTS1e9qeHx4hnKUhvG8KcrrIqR6CUjjCjA013ZSzwnsmvCZulo0oGT+ll49N2vve977tvfwNUsxEal6LQvjESb61vKk78DejkieloExu5nUNOOXndNOiA7BJkFetf2iU8syC8JMwLa7w0+KsGlZKYtUGrQyiU2NAzEl4L8o0jLBswoDbaaBMfXU0nSudoHaIdUbotd+dKG0OWSoA5fCc9iGg3O1jlEo4WSY0giVQI8SEZYKaNnCHN1JPYazJW9/HZ5ZJjMxt4jr37+CAJRrCOPEmGYigCz9NCgNDPzNdS0SusPDLUntVvorVByxdKh/UuigPSEN+MTWf1Dfx6nNMaITWjpJSpEnHfoHTc6effnpzow8o1zRIKwg/sZWX0WbDcs6DsNJNnLRxzYu7Pq86VkJiDRsQKnM4yeC6aNNv3wVks2pWQ3sXpq5MppOJb83TyEs+wjDpTB3fia101K1CO1WhD2lbAj/vlAEvWBb08ZV1f8LIiNVBgfrhkLAxQdqZqQcAwEalj5gMDiwn+WcE4e9OIRu3hC/+SLkqJtFmkt80CIsPpc8dZXSHO9yhfV/g2KkvjR0pNWvVDyJIE5+p5Us9KyaVHWqcoW1zmDLM/VlmXqeddlq7KdZGuzzRXBuF9sJV4cydsqqn5yiD5LUoQtfUOeBOWtV/HbBSw1aNN2QesDllbdeog8FwQyaYhgh50Ml1cKO52972tpv5VYWzVabs2DnQnwFtq40pagogN5T6Ovy1r31tE/6OZOIHJ3WEJfyNKsWNwgjvBOEXRl7CUR7c1t7dbmn0a5nH2rxTO9b9kz+hJc294o/wO1vdCUiGwL/d7W7XPnAzcFFX7/2lS9mUV13Ei70bkA7aqjuFSRHYMzBzNpO2/GYZjqJ05BTQMnQKQnPppWzKKQz6D9tpK5Be0g+ST/Vbdazc2sWwQU3tnfd2Jtt6pA4gDIYLU02D92EyjCyOdWSf81vzBX7pfB0HD+3LEOqEHOHv61bn/QkdP3WxqU+A4AnLP4RKhGZ4I3xU25U7z/IgsAh/o2wziTvd6U6bI117TyB8eEf67L3CMG3lQwf5W8ak/N7znve000lG6O4pMrPNEpVwbGVW/9qXtgtp5CMxSgHN0c6M5MMf/vDolFNOaUtl3DmxN8ybO2UKPKe+aZNFkLCx1Teo6a8TVkIJpPEqY/DjNuU06vOBjk7BCMcedpoK8WOEywjG38fce588IWGkG+bq2F+kPdCfUCd4HPm0HOK8vz0hSsF3HQQ/ZS5c2i58wU2p1/aFSe1qBkCIOPXjBIwZgCsgLAlB0hGXey8HC8PygroQ7PJVToL3ete7XjsBZTkmH78Z0FAEdWStnNstq7LIr5Yp6fJDfwoheTpSarZicGWvxoxK+Iz4a1k8h6bsmO3CTKgqvnXESiiBYMjAOrZNP0s4Rhn8ovk1eMJPgrCBkYuw0rO5ZVkozBkm5Oan43XsL9A+9CdAXOz2nOc8Z/TgBz+4XfVgEEDYAD7I8kPaWLy0oTaGpBmknbUvfrDmToD6OMoew81vfvOmYFIOdnhBmom/l0h5U5cYz8oUY0DkV5K+iXArqGOk6OPbAia02glCq9Azz6AMlurM0vXHKFOK6VGPelQ7rusjNOFAGum3QIFkU3iniCJKe+11Gx1GrITECvNXGwMZcfhxjKmvjh//hFmkwYXRMXR4n/q74EsaYerkCZ6Tfsf+gqBwCsbZdPf7P/nJT24zASNhIDjwQ4RS2rC2n+fKE9UdCM9Iz8jax4cEFoFW31ehFeGy17yR8qcMQyEZ/sw7S1mOrfry+J73vGfbI+FPmRGOk+q/KNA59a3lkHctJ2VAMVOs/MwEtJ2TW/YLctOvsNIUxiyOkW7S2S6iBNYZK6EEAgwRYMDcq2LKF0ZM54d5zCNcGE08G32O2eVdzS/P1W+dEdqiX4TBPCQOGnJnuaYiYfIeCHcbn9a8jSadBEtbCDM8ITREFVLJO35JJ/mCtMw42Dab7Te4KsG3KARV4kbhJM9h3tKs9dktyKeWn5vhjrAFfp4dXXWk1FfMvnvJyNyMIUoUxEtcqG5InsN6xaAHGz8w1R0FLQ0DLtdU+1Wn/x1//OMfb0o39UB74YPkOwvyEo4N8pJvNu5TF37rhvnUWxKkkQNuxwF9qWgWkEYHDR5mmAcbZ6aeRn3HHXfc5qgheQ07wvB53VHpMY823kcoAEGknSLAawcO/CSdALO56J4fI0TpCENwMNJL3GG7a8fa8cXN8kA1FZ5TBm5/GHO7p4vmXvjCF7ZjyPxr2tINz9Q6hiaxdxvDdD3HgDIxNsvNcp/0pCe1mYEPzByftV9ghkBZhBbaJfHiBu8q8lz9h2FCB7Z21lez1ONEEeV+2mmnNSVrxiU+BUBRCC/ePNrlffKufBWFN0xjWM5VxsoogcrYGEPn97Wis9HcOq2GxVyLNnDCgzXfa1/72o1x4texu0BXHZLRZuivTT1r0wgM4czyHMO84Q1v2M77exZWPIqgxo8d/oD4R4jUZ3Fr2MB7JuBOWfHXV77ylXabpg/Ezj333E1eqWmD50n+B4Hkz5gx+8rZjPd3fud32lIRWlqSsXRkIKTMUYDicKsLI624t4MhjczgKGRt6ytod3RZItKnKVoKI2WYBenGlq40tQ0lZ28nCg68XzeslDTDEBpXx9TA7j0PYwaeF21wzKKDW+91AsQHL9Kax3Qd24O2i0CNMEl7aSvPhNI555zTTmn5g5u2EZ6/0aH42l946SUuzGt3/skvbZx8h3HCG9Vk3+md73zn6Da3uU37QbtDCcoRSIeJ8PJO+geF0BnNlJ1N2BP6DkG4SsMMRz28c9Q09A1N1EF9kkYE+XYhvQh4/ZhbGe35uG5befLdQS3HIpCOtiP4LQVZ8lLu2t5bSW8VsBJKQKNhPtDInq0bOhWSNdA0bMItAkzCOB7qvhfMkw7QsTdA3wglQkB76aDa09qwZR9/tCL8LdURGIww4gB32jl+nisP5JkRBp8YCVsD52YSNkKttrslCwi/AUVAGUnDgMGR0WOPPXb00pe+tB1V9j7lSr45wlnz2U/IM/kDO2VBR8rAkVK/YzUT5m/pCK1Sh9Cg0n27kA6aSDN8oO0pAgpB3uzsCSxySqi+V/7Q3ZKXk1He77Tcy4yVUAKAAcM4GtqJIHsCmKcyZzoszGp44bwnYGyc+YMTxvE8j+k6tgedE7QfGqO1JQG/L3TU0+VozpRnFGckKA5BoK20M2i7tLO0vItfjPQpdcLMurA02fwimGs7V15JfIgtPChDNi59L2B24odDloh8SGYEG6VV46Rc+43USz3kHzqmjjG3utWt2o9vzL4sGeWqanQTVjvsRh3QBH2kE7c8lIlxksi7SrPQcRpSx1o2fr6TyN1f4b11xMpIMw0JGIIx8nJePB1uiMoQkxDmN7LzZSWml25GiB27D/TVLjokt98VGoW64tlHX54tVRD+BK2wEQbAZnRwJv7gWZpA0FMi2pfbUh8hbakho9wommntnbKGt8J/wJ9iwjvie+fSNKeXbLzaL6AcAvVNmfcb8laHmr8yq0Poxd+zTWJLRGY2aGV2TNEJj2aVBtuFfKRTaaEPg3cQ2rO3IryTNkjTV932BPgn7dAhz+uAlVICYWYNbP3Qp/wYNA0LsYNpjR3GJiQcCzXqwXTD+B2TUekU+jNDensevrOM5wtfd91YV3cFuPawDKBNq1KPoBKXqW0U4QreSYPQipLxExbC32kYfxIjoJ1Rt55vViCM8HggfDRE/JUJDzIpS2YolBaYnbrCxOax2cFnPvOZTZ6t8By/4bu9gDqkzAywI2AjONn6RI6UuiL6zne+c+sbyik8xclOOokL1R0kHHBLB02GfS3hattDXWKbhsRlJ48sLRlUzIu/6lgZJaAh09iUgO8DMCMzqZEn+SU+YFjLAjbCbEKGuTsWQ+hbaQr88y7uugn40Y9+tP3Zy6iZ8EdzHb1+6ZvOHBO/pJt2kqZ2JOQIKu0pLR3fNeBmF2YZjv4SbjYJfTTlWwNn5l3JnDzFYaRR8ySU2EM+iztC3qwgZ+H9xMaRUqNq1z0bsATCVgFY04R5z9tB6gPVDXmOAPfMGEHf4ha3aGf5fTF961vfelNAo2WW2FI+bkCnYZowq29Jg0GX+rwoxJOnOMrGaEczfO6kl7qlfOuClVACacAwlRFYOtY8Zpn2XlqUCcHggjBMGmYKM3ZsD7WTERyWdtDUOX+C0YVv/Fz4Z0+AOx21QpzqHx7Is/f5IlQ6+MIVz46WmmHc+MY3bsIM0q5swoGScPUEZWADUVzvpcUIJx9+8mTH1HJyJ6w0KBXKgFC0P+AYprxsvPJPeGlSWNzsSUjYg4B89Q+DpJ/+6Z9uCpUysBGujt5FETBRhugTeGag+u8V5KHcBL8NYYM77nXHSiiBdASMR1hjQjOBIdNNw7AjeZYO4WMvwNqhZx3TO3bH9lHprY20GyGh3RjLQc6m80/HHcaJ8IC8EzbGqN2mnzYkfC3pEVIUgMvKvBOPgEp7SpObyUjR/UO+CiaohaVMvHMyKQiPhT9q2VLWvFMnaTB+weiKBjMDN5w6+ujbFmEIfjwnDjtIXQ8ayoEO6sa2yXqf+9yn/TfZLA597XtQBPkHR+giLnp4Tn1Co71A8kJHNtpqW2UOjQ8LXQ8CKyXN0hktK+hYBIsOFeabhEmNjzGMEDCxNWECBdaZUXYTlY5xayfC33l0AtIz4a0tMooMxNGxI1ghndyyXe7A8UGRZ5ekvf3tb29/tdL5I/iFJxAoHvDMHx8JQ7gpxzHHHNOOe5511lnt4zR8YXnHXf25NA7Y4cEhr/BnEkadGB8+OcRgxmkG5KNEP2jP0pHysZNuxTCP/QS6jCvT6qMcaKef+NGS/QJ7On6mow3N6My4DKaEj0FjEB+t1XOvoV/bozG4Y4KDpOVBY2WUgE5imo6RnCEnTNLpZiHvKxMQBJhFehgXs4ZBF0mzYzaGAg29IxhAW8SPsCFgtEHaKHbawrP3BL6RJ6Gj7axZv+Md7xg985nP3Lz5lYlwB/G0tTSkFYGbvCPkLStZSnJE1WjXEhFlYMBBGdSlj5Q95RzCe+GkzxbWcWb1VG6b1P5fnWswhIdKN3EOEsr9XeNyKRuahX4UqncnnHDC6I1vfGObeaE9ZUaxhVbqqv6h014qAHRTTsasRN5HHHHEZtvWdjpouh4EVmomoAEZSiDniad1xIqEiS0NjIJhMIvZQNKK6dg+0tF0ygjc0JQdPxCGX4QEt3fCcBOa2ient/gZjVrPd/WBkTtoT++YPEOUgbjAnxCLG7yLcUzytNNOawLOtceUgSUn5RxuHKde1cQ/9WHHmLlQLPagfBshH0srvkDOl9Ghy0EjbZB6AL8oVO+cvrHR7kI/J70syVES3lMEOWwR2qLhXkB+2lT6bErJfxXwTccKKYEwnoY2OsOQ05gqnTFIxxp2MExi5KJjS9v7YZiOnSM0TXtVOrMjaKo/aB/CJG3vgz6C2WjdZmX+ayvdGKhpaFuQRuWL+hxlQIDIB/xM3ikmV1fLC59QKAQbhUQhyK/mBUmTXd+Hv4yWzWK9I0TdlXPqqae2/QxHSrN5PDQQOxg+7yaUX/pow3hGn+Sp/KGVtXftYlZg38BynXAUhtF42pBf6FORdtsupGsmok0sBVGy2m+YV8qbOqwLVkYJQJiIEmBjzkkNWv3CfDHVT4cmSKQTRtwpQ3b8C9LpoLbBsHPmObZ2ISC1izSc9LCpai39EY94ROvgEUjDtLQfv2E7DsNV1PAZUUqbEDOidKTUUUnfFxA0lBblgneG6YoHyq38FXknjiUtH8cRkvLzoxV37L/kJS9pt2lmBiPO0EibDZXGu40I/wrP8UMrbmXRZte//vVHj3/849vP923Oo5F3wlmfN6sTPm2U9GO2i9DZZrX9Jv8F4Q69Au22k3yWFSsj0dJ4GjXrqOm4sxAmSHx2mAPzhDHru469AdrWdkPvdGBugsSImx8hSNmfdNJJ7aflfiSTKX7aC6p7NyHdCCubumYDPp6yKUrYEb42RZXXvlLKUfktAnrIp+E//i5BlA7hxU0JuD/JxquNdOkIS4AJXxVA7IOGMjLKRzH6wMzRW8d0XV+tHZXfuxzZBeVPvJ1AOkwGh5aKyYiUK3TCV3EnzjpgZZRAhTVa2C7zaHydCVMY7VWsC2McJCqN484SS07m3PKWt2x39/vK1702BG2EIJtJJ98LRHjgEW6jWfsDlm58geyrYMsOlm+sg9tLoKBSNsiMQTqpZ96rh/c5HeTIrKUMewP2CwhQ31T4fSqFKE5mB4mvXPE7KFT6Kxc6GVi5mM6eB8VJidt7I5zRgeKk8NUhdAh9toPQ1OwKHzkp5p/QaKl80k+42ha17KuMlVACabTYOfK3KGpjxx1hkpEo7IQRO7YG7YDehAYBoR0IVOv+fkjuQrlTTjmlXWYmbDo6dwSg571E8ks+8qWo/Gze9wX2Jlx6Z1DiygjCj4BL3Qg6Qjr15J90wmvqjZ+Fk47NYyNa4Z18corIcpSfJ0UhhXe5+Ukr5qCR8hG89gKufOUrjx7wgAe0+4jY6kg4mxFk41Z4tNsu5BWaoB26U9SvfvWr2wwLqgJNO6wLVkIJ7AbSQSoDhCFi4texd9BZ0+md6XeSw/FJI+aHP/zh7XgmwZoPfXRw77RPRozayAjaMspeoQpVecszQpiboHH1si9pne6xBu7eI0LHxWuWPgh3aSi/soubNKvwhghBwsqMAE0oFF/suu/ItQ3uJaJsQhf1565IevuNmq8yUWL8uCkDtHI01k2l3D72tE+QPbmdtGXyRntKBt0pmDPOOKP90xjdlQffBQdFp4PASkg0jRhb42nQrWDY4EmPf97VDjoM37F70HY6PiHvi9pvfvOb7XoHp2RsKDr+KYyOTDgw6bz8PQPBSnDuVVvhB8Je+vJnMxkkyJ8iUh5LV+4IesELXtAurfNxmGUJSyLCZTaQeiRdCN8RYOzU2bPR/yc/+cl2C6q4lqLucY97tFtKCTv0oAwOEsofU59DK+VmE/I2we94xzu2e5V8QW1G4Jg2ZYBO20XkgTzlbVkI7LG4pdYvSkPv0CvtuA5YiZqmAYOdMEwQBg1TDPPomI1F6RXhAIS2UxuEgRHtda5znSY8zzzzzHbe3+g6I+aMjCNEkk7Nl7umv5sIX0g/eQzzUkZ+wtoTcPWEjV0zGqebfNXu7Hw+SIzgUafUS9xaPwoj76LwXDVhmcPSmAv4pG+JyJFS+ydDHDQvh2apB9veW54pR19o+8gPndAGjbT/dpClHvWWh7wpAulZUnvVq17VZmnyDg6aRvuJlVECMWB6CWG2RSBcGFI6OpgOaDQHYR5YNM11BnoBWg07FL8YNGdT3KboRoTOkTvto3Pe61732lxHzyg4aUCeg/hDde82ar7yianPQUaibPsFPgBz7t8/c/kZtdtLSLhh/PBk7LijiLhtHLuQjtCkQM06fMcgHzMGeSSueGkfiDvp7xfS9qGl5/iZAZjV2Psx01E/dcuR2YSvdArdqh/U50o7G9EUgT0mH/9lLzF0mESL+E96t6xYCSUQpsBM3EYVGkljDhliFmrjxp2pesfuAT3TZtxGzISg0zSWNIwC/cHKLY+wlTY8zEg9bHpa4vJVs/V811vgWXSgCLYjjKVtwOL2XKN/y02WOZ74xCc2ZWCt3fJaBjUgj9pH2PHbav67iZQHLcwAKYK73e1u7UgsJRBFIFwMKHNMRZ5reHSgBKRj9qktPve5z7Vn9Y+CHSJ5rRJWQgkEmfaloYcjnlkYMo/4RgZGUNIZMlbH9pBOFEFDcRNYQDA69ui8P38m4WMvI5Q9hpAJrxE+J554Yjvmaq/Ae7SIgAvPcc9D0mQco7Wxat/Aerr/Mth0dazUfoGlj/QLvL1I+vuF1EGZQgMX+Pmu4KEPfWgrrwEDRYpOkJnEPNS0I+wpFrMBS3NoRIlWvpuElG1VsDJKoDaKEVW0uUbfCtLAmIQSqB0Gtppex2Sgo5Fe2k1b2RC2DBD6C0Oxx522SZzDCmWdxSepD2HDbbnLB2f4lkn8pLFInb2XXuVVG6sGMQw6vv/972/XNzibbx8hm+veZQBV8zwIoIe8Uw7PeMNBATMahmKjLC37Dus8DamPdIVP+niQ4HfK6n3ve1+7byp0WRes1ExAg2pcgiQNjYlmAXNUho9bfCMqDFKPp4V5OraH0C8dPR3Yc5YqIpj4cS8bzZU7fDREBib4El8Jl4MM3N7V+gpXhdY0eC9c0pAPGloaMpCxpk644Wln8n21a5M6f+ATR3nkl7T2Gyk3Wz2Ui61MbJvr9ojMCCyf2SMwiuf2npmF+l4eyQ/fua/JhrRvOywLebcuWAklkAYNsxhRGl1tFWESHQBjGEmZJjp5EcijY2eIoNEB0dzot9roT6FHkEW4rQIINrylToSX+qmnZzaEj2MWQegpndCPAflYGiLwKQTLUGyzAh/cvfvd727lQv/gIOgtT+UIfwQpC1vftm/kYzxKi2JAw0qzSYiMqGHiRjcKkqL87Gc/275g5oZajlXFyigBwPxgquhLxGkMURHmgBo+HdVXqhmxgbDprB3bQ9qJkEJX9OUXIaZDMwSCUfJQKCwz1IOwTV3VDw0igMOPMQEazII0QjcG/zJAAfBDTwMap4WMoI18HSm9053u1O4j+vSnP715p06Uby3DfgBdlFt5wyeQcuAZy0BmA5SB70gcs1W39NEhpBVUurITRxh9ndy48MILR+edd94m/fabBvuNlVACGlBjaiyMYznIGiL/TBWhMskkhgnTM9ZRnU02YnKKoALDdSyGSXQOdHi0TgeOO20QP/asdJYJqUeEP7AzsBjWM4IQHSLMhKE0chdR+LHSLTRNHOkkD3D9hNtIjaSl9YpXvGJ017vetZ2SsV9AMUsrgyHutNckA9W9XSh3lsdSB4gt/fRrt6r6Utrf2XxdHjqEJuIwoeEkVLpTkJZ/2ZaFrALUuoUO7FlpLhtWQgmAxknDsy0HYYZ0gq1COjqHj0qcIAjkE8bo6NhPEDz42SieArCZnLPz+NU7NoRHq7AK71bjq1lh9BdLID4ys0zkC21CEDJTk7443DVdbv5Bde8mUsfA0tCznvWs9kW25RyDPzOF5J/yzoI0hWHElQ43RWgj3cwoiiJ5e1/LsexYKSUQaExfT6Zxg3SQYPgMwzg6gvPWmAOzizMpXkfHXgPfET5GyvjbvUoGPBSCD+wMWsKb1Z7Er+FzPG25yDcERtf6jqsoXNHh7n/3HlkmkU8Ef9IUn+1d0puW326g9r/k61SP/0hYErJMVD8mS3lmIWGkbQlMPzcTQJOzzz673dEkvdQdhBdvVbAySiCNTWtjDks53Bq1MkLcYdpJ4G8ajBEsBZluGhFUhunoOAgQcuAjKufa733ve7fZAN4kBG36RihXXueOGcJ7fcXSp2VQQo/9pje9qf0f4ZGPfOToIx/5SFMGCc9UiMNMerebqIoo+VjHd1GfGRIF6RuCvF+kLKFJlIe6o4dNYld1UwoJw45ZFaycEmBjBCMj02VMsJ0GwwRGBj5MsfnkaJ3O1dFxUAhv40OHH/whyxUURsL+akZYEWT+tIZvqxCcJAylx2SELYzBD2FPEErDEpH1cR/x+ZL793//9zf7VOIG3ElrL6BuSVsZ9FE2/2td61qj008/vQ3czIy8Q6d5ZUkdkp5nA0dudDATQoMartZ5FbASSkDDMKDhTWlNld04qdMwGrGGm4eEM7pwWsBsAGMwGTF0dOwnItDwZma41sFdO2FW4PZNPO8OIWv8lkgW5X/v9R38TchJ38CHsXlM+LvMz6kc9/DbWJZWllD2A/KCKBr9kFFmZXe1hD/Nee8KEv7zEHpYSpNGBDzBT458+MMfbqem+CdfZpWwEtIsDB63jSydIycGaicIZjVm/MPgbmP84he/2EZJ0u7oOAhEQBN81u/ZeJRt5uuop38RG7HjYVdWmy0YGRNoUPlef6j9Rvp5z19eZhcORng2IPrQhz7UFIF/OROQQICmHMxeIUJa+UIH5UrdKKvTTjut0UJ5LAmnrrOg/Pq2+ksrdedvZmFZDB3kL9xe1vEgsDK1CeOCRrIu6Ocd3BgizLAIU0iHyVqgqbfZgOdMs/cbYXoI8ysbd/xnIfTB5BhZehWp09B/O6j0ke9wRDZsg+Fzx3SEVngaDHACbWsJ1LLIWWed1e7k9yUs+usL3odfkk7cUQCAB7QhOwLWh5NuJ7X/IE+C8aY3vWn7wb5ZAoR3Ej8m7V/5YjtQPoK48nzKH3PNa15zdPe73735C5s6QeIMkeOwjL7BVgfHRV1R4YZRp4WkJY0hPy87VkoJpME1Pi1ubdRmmQ4TBkyYNPo86ASMj2oogjDKfgPzYVZ2mDl1TuebhdQVA3OLw+Q5kLbn6texHNB2eFWbmgG4fZOw9ntO69vs3FGkjzDhnQhM7U7IR/iH1/nhP8tAbLMLsxFf1/oRjO8MnDAyck46UEfOe8lXSddsxS83TzjhhFY+G+npw+qaPgPKFfckKHvCo6NVAXGYRfrcsmAllMCQuTQapnV3u+uIMWxGTGGEMOY0pPGNgHQqIwHLQuLPi7tXsMQFyqNsyjKPGYXTwZXZSA4dXJT13ve+t3Vo79Eu6YSWlZ4dy4Hwg7bWrgSi0bq29uN7yyP6gvP1hGMEPzvxxSX8uL1juOtgwXt7BZQJ4xi1q78ZP3F3PQWBKR5+Cz+lXHuB9Enp2w9weirKKnmmPqlHyjUNwuozZv/+OWBWVemyKlgJJRDURmWbCRj9aLAhA3q/SEOGkTCC9VAfjxlV1Lz2A5hPJ9apjLbScReBcopvOQuUP6dKHP3ToVOf1CmdqmM5oH0rj7Pj59iopaEXvehFo3ve856bfGSZ08AiAl6caocXIP5J1zN+yl4AxUDZ+NDMldWOVnqXAQuzl1Cm5EEx2SC+0Y1u1PqJJSzlCLZSHkfEKRX4+Mc/3tKT1yphJXp6GjQ2BtVQRjxmAvzDxBFunplpyHvGVNrU0heEzg4fBJTDxpe71U27fSQD6pR6T0LqEBo4+kcJGL25TdKn9/4+ZamLwku4LKExHYcfabfwAqGXwQpwOzn06Ec/ul0l7YoIA5sISQqhQjo1zbiHAlA+uW8IDJIcKf25n/u50Xve856mHGC/+Skb5fIbfkmcusxDwjkpRJbYdM//iVcJK6EENFRlTo1H2JsOH3fcce3rSgwff+G5mXkQhuC0t8B2bthHNWGiRZhpN6CzmsLf5z73afkbzcl7Xv6pY8IyhD166aBOPb3whS9stzK++MUvblN576IsYV4eHQePjLghvF1NQJi5b8fykPV8y0VmluBYKT4TPrwydNdBFD5h+BPyZgb8DZjwlQ/N/NAmYZi9gnLha/kT+Opxk5vcpO0N6C9mQ1EEqQt7FpRbHErAbMAA0H1L8trLuuw3VmYmMGyUNLCvCTUgIV7DhBnmASPoYJZMMLcz0r4Z2G/oZMrvTPjJJ5/cPmc/+uij27tZDFnrKRy3+qiXdVuKwJTXfoez5n6GbtlLmI7lAaEHw7aOO7Z2txRkg/inf/qn28/cXRrnz2aEJR7POnpNY5qdNBMWPxksUTZuK3W3z1//9V+3sN4n3l6AwFaO8C6l5j/FymdmkHJC7HkQp/YXSi2zm1XBSigByAgljatT8LOE4tgYIW5mUJlwEUYQRjo2iHUcS0Nve9vbNje+gC3dPO82lCFl1bnc6+IbCKN2t6XKWxkrDWqc1JnN5F2YG1MbDbI/+MEPNuFgbTfKTpjUTZikJz533uU5aQ+R8kxCytSxPWh79Is9pGfehUcITALfAMk/BfxRy9FSo3lhzDSFgSiYmh5Uvkh7s43I8abRt0MIzDDuJISvtgPlqDRg+N3gBjdo5TAzydq+fBbJS1rSYH/jG99ofe9Vr3pVGzSl3sGiaR5GrIwSmAYzgJvd7GZNGWQTTKNmajgLNRzh5zSNtVMnBT7/+c83RvNOOPCsA+wFotQwoDPfjqxRbpSTUY7lroRLecCoz3PKGTeTupllSNuITXhno1/wgheMrn/967d9A+ugwtX0xKl5oWuERcfhR9ot/OAAhb0CR6EJTnyF19OmbOHwCST+JBCQDF7Rb9761re2QVgQXtoL1HLJ337Hz/7sz7ZycEOUm7rMqkd9Z5ZkZsHOpXK1HsLOSuswY+WVABCW9gWcGsAAGguThhmmQZgISAxllETgavzXve51m8IxoyBueewFpM1QZMrkSoAzzzyz3emibGY5FF46KQiP+SH+/ALpqCO/CHVTeUwepeLrUDODd73rXe06AumJI2ziLnMHWHdoQzyLh/GRPbSXvexlbRBg4OQAAt4Rzvu0eeWjaTBrFt7HVj68mscnO+GhyveQ8unjP/mTP9n20ygio/naX2fVQ9khaZstGyg5UZd3k+IvQpvDhJVXAhrEMo7TEIR2rpgGgm8aMKTGF1aDE36Yx6ka6b35zW9un81XZghz7RWUSR7KxW1667SHqbwPdnRYSoKAzsmPYedIvdjVQMqvs1MG2YD2z1Ubx09+8pPbmqjOlHqzk2b8OpYP4Yn0F0dJf+Znfqadk3cPl/fhvXlIOvjEUoy+Y2bBj9lrhJ/xo/zMcty2akkHP6uDvjEPwjHhcRvEZvqumDYj55e8lhkrrwRAQ9385jdvG14alJDDHLMa0Ps0fhjXqIJwNCLADGYDfsoRLNJBtouUJ4I9ZbOue/zxx7eTHoS0ExHqKYzymiGIkzqII26tf96Jw51TFmz3xghvFvTa1762fRAkr6985SubX1B6n/J0LBe0M5MBALe2xDs5WonH+MNWBjqOjoqLRygT2EseSRlBPvJNfgaB3iuTmY8BYA0/CUO+NiiiEKUx66josvWDtVEC/qd64oknNqFtNMBv0cZKWCMajEUwYiSj4re85S2b/xqAeYy1XURAKwfbM0TAq9NP/dRPtXvVHf+zrqvDpkPrjMJWpuauED55JAxQAKb28nQpmX0CG8dPfepTN++mEU967I7lQdqr2vhE+0dQ4nt2FMCQP4YQ1vualgFFjePdbiN5Do1Bn++FfCdhOceel7C1PNOQNBIWLcwCzCqG/Ue4ZcTKK4E0HqH9oAc9qLmrQJyH2rDCi6dzGBVgiN/93d8dfepTn2rvFmGqnSCCf4jki9mNVJzyoAyc03Z1hvIKo95mBgk/Lb3A+3R89TOao/DMAHxc5vif5SgzIvSQ7rw0Ow4ftJuBAl5P+/HD61UIxsA8gVfjsaW/SH/bLpJ2yheknJalbne727VyZO9sGHYS0ACkI44BkQMiLs2bNJsYPi8D1qLHhnmNBKxzWtuz7lnfxR1Ut4ZN42p4IAiNbhyFsybPFidhmTBJ7J12glrOocGgGXUR9urqj1DPfe5zRw95yEPaTCHLN0ZC6QRMOnv8slzGgHLHrRMQ+KbDFKv9gp//+Z9vX4h+7GMfa3kIKx3vazqxOw4PIuS0l/avfJH2Cn/AVtpQWOngHybp7gVqusmHUR/lwNMOiBi44VHPi0J8xoAod4nh+/B6wiTP+C0L1kIJpBEJR7MBjUdAhenTaBoQIgQnIWlhJgJRWjaJzQhshCW9MCCG2etRUMod5NmJCF9MPvGJTxz99m//djsloRzZ8M0eCaOMkLpV4ZD0UnewN2KJyNQYXd/97ne3dVczEApCGpQfOicN9EhaHYcDs9qjvku7bwVp92CaezcwK730SXeJmREQ5GYDMK8c+kbqzo2vyQc8rg8kfqXPbtdtr7FWc3cC+brXvW479kgQOl3DL8JJIxNaGprfLAibD6zAHTw+tEp6bIwhXW5CdV6aewX/VrjtbW87esMb3tBmBk4OWRtVdh+d6RDKqKzKGKWl/NUMIYx0nJgS17ly+wQ24R0plZYPzqJQpqXT0bGXCC87Vu0QhT6OV+M/DXg679N3+VECBnyUySpgLZSAhgPCiNu1CzkHn6+INbJ3lngAg8yC8OJRJpjCyNpHZF/96lfb7EBeyS/5z2K43UTyA+XMzEYZ3Sbpd3mWb8wUrG8qp+WxzAYmrXUG0pamOMJ4RiuX2vmOwJ4Ewe/DI/lSLrmbptKio2M/ge8Ifsuk3OHdRSF8DH6nAMyEpTGUFcIsE1ZeCaRBNBTj2T0p1sktZeRe9YQLY8xjEMItjU+QWhJx/47lEOl6V2cDsJ/MIc+YlFP+zFFHHdWu+z3jjDPaeXCdQ1kdCeTO5nE1gfihY2YPDMVgZkEJWmYyyzJdRluIku3o2G/gvfCfr34J7xwVnYX0V/HixvsGNU4I+gBOH4C8X0ashRLQcIQRRvBsFnCb29xm8yOYrA9CGIZZBEbNZg/5FZ0jo5ZEbD4nnZRh0TR3E2HOyshsxnUaT3nKU9ovAn/iJ35icxlM56AQUt6aRhXkcUfZxbZJjh7JR7gooo6O/Ub4kAzwsagZKhjsbBVRAvYEfFmv/9d+HX5fJqy8EqiCK0IKM5gNWBrBCAzBpzE1svDR8POQtNmWQyy55GffZghBGPGgkHoHZi5gZHSve91r9PSnP73ta1zrWtdqoyRLQ5SaUX3i1TrEzYQGFaFjDRf6d3TsN/Ae4W+G6vZd/B1lMA/h2cgFz/ibIsjS6aQ+sCxYCyUQTc1NoDGEm3vVjz322KYEshkaRTANw8YWNkxCeJomup/EaRyKwIwApCtcwgbxq+nsJpQ3BpQjz3FTgJTiwx/+8FZmR0udpLC3IQxFkT2UqhAg6ULqAjqLOk2rl3jxD70T37v41Xexq3tRZb3fSBlhkruWe1gHYdI+NW7H9hFaGthYAcDH/GYhvM2OO/yszzgdSAmA92m3ZcPKK4GK2ujcviJ0jS6h7bKsbKBWDBt1WqeMsHJqwAjBjMDv/FyxYHkk7wPpxC9MtlcMNEw77vinLJShs9RmBH49aQOdcrQJRmk6XoduOlDWU8UNTabRpiL5BZ6lyU7HHH5dCsrHDP0PK9Qxo8ZaZm5GPQkQdcqGvPrnPQzp1LE9hN5sfKy/o22l7yTU98Ow2sogyRKqdOeldZixVkpgCA3pOKP1cILacck0pndbgXiMTk2ImQEYdbiRkSIwQwiz6Pzp1ARFhMVBQidJR6HA/HHKT2b8dcyV0hSBtVAzBOFyNFb4rdAqecSNXurOD10Yytg7+bHRx3vu0Bmq32GDcjHKqHypW0yEf+qHnkzqWusJwndsH6Er3qIIPC9K07QDWxoMUALaEuK3jFhrJaDhbIC6jvlqV7taYw4jXP61Ay6KdFxKgHGG3lKKPYInPelJ7RhlmEg4TEiAEgSJv99QFvkrSwRXhBJl4BrpV7ziFW3PwC2lNsNMp525zhIao+zZV5mFhE04eZlWe3a6ys2snsHMxPtKI+AOrZT/sEGZlS90VEa0ivGOn/ff/OY321XL6u3ZiSo0Cg5j/ZYRoSlechBE/8RHWx3sVVAC2gy0U9oqvLksWHslwFgP91Wtu3GcIybM0lG306DiYDqjZ6dk/MzCF8WWWb70pS+10QPmqYKtMtF+IvWreRNU9gD4qQfh/8AHPrBdj6EO9j58C4BWloiEN8JSL3ViptUl+UUZMIS+Tumedl8d58M7AlFawhKmGXWB9NFQ/IOg2ywQLMoUuqSeyptZgAGCH7HblPfTEzTwPt9UVN7o2DnCk9rG4GIrSmDIX9pSG2ozfLnsWHtOi3BxXPIBD3hAuxPELxsJwXTmrUIcjILJjBacGvLV7rnnntt+FO+vYPYOIhxiDhLKzGDujG64+aERWlz96lcfPfaxjx29/OUvH13nOtdpS146gmN3RlfC1LpMo13oAwSlfAi/rNe6kI4y8O9bf3DL9wbpsMJDng+adkOkfLHREw2V00CDgvOLUHfcf+ITn2gzK4IJDYZ18Zy26dge0DBKlY3nspQzj66T3kuP0V5RArXdlq2t1l4JGPUbremE7hWiDCx52CgmZCY16CKMo+MTAgxmc4U1IeeKBUdTXd9gNB3hEHMQqHkre4R56hlBrQMR0re85S03v4dwDQf4yMzyETsdDibRqqYtXW42paJz2ktBvxxbtZzmIzQzEHFD18OK1D9lRE8Cw9Xj2t0trz7UQyuDAzdSZtbDVJpx1/bp2DrCb6Gj9tAn4z8P09ojszruZcbaKwGIULF+r5Pe+MY3bsLZMo5GZ2YJtuGztOJHmGEWoAgoHKNm+RCilgRcPRHUUXjFXjJa6hg3hNEjlCiCKqAsETk9ZLTur2P58I5S9QvOfIcANf1KR0g9vZefmQVFGcVsZuakkmuxLUflJz7CiytO0g4qrap7L1DbKXlpw5RL2xPy9lUe97jHtRNjZgMUgMMC7qVHE+ETL6ZjdxD6gjaJmTbIG6LGDZJGsEg6hxVdCYyhATGKDutKBffqWBLCJEa+7CBrvBWTOmyEg3dMBJaNQJ1dmuecc07bi3j2s589+uIXv9jWKSuGceMXu/pvF9OYFz1S78rwVYh7b1/ADMpdQaeeemqjj9G8u4icJKI8QLwat+67QNypjzVzy2j8pPe+972vfd1sg53b1RyBOIk3pPteIfmAfNIWUeLKTchb+vM3NvdKUQYgrNNoZjZ5Tlmn2R07Axprk8pjtQ0XQeJJI3bcy4yuBMaozEFQOTL6sIc9rC1LEFaWcbwn0HTynTS8PAg1Qo4QMBI0K7BEZLRIcGTmAMKnfEOmTTnCnPsJeaMFelnSQDNLNxSa9XyzG/seZghmVKkHGrJTR/G9i0kduaVP2DPi8HvnO9+5+YtLijPpiJf12YSNey8g3Qj8CJgoOgcC3v/+97c1f/9asAcA2lu7ex/aQcrasffQVunD6D6P9rPep/2CZW3HrgTGwBQakIAiSAh9Vy9b5siFalnewETDxt8KjJ6N+BnCgGCQn980Pv7xjx894hGPGJ1//vltjTiIYJRvhJryVvd+Q95G/WinfOpFafqFp03Pl7zkJe3aXqN5dKUM2IS28oonTuqhbrUeqbNwlCal4qQVoI1llTvd6U5NcfrlpTSkx0ZbNlMV6m5CWdMeUT7W/b/whS+0r67xjhmLAwbohA45BSWu+qWOkPJ27C1Ce22C3rUNFkF4VFxphAcq7y4b1l4J1M6MIQgqsG5/q1vdqp2IoQA0uLDC7USwRPjJSzoEmu8H+Plm4W1ve1vLlyD1C0fhgaAhDMUbMpwy7TeUR76hnfLHODZ60kknjV7wghe05S6Czzr4kUceubnPEqUa+td2CJ0h9GKkYyRtA1keNvD9G8K/ld/+9re32yHFDX3Yac/dhHQjPLSJQYJyveY1r2l/rqME1NeS4u/93u+1cgs3jW9S55S7Y++AxnhXm8FWlQBor/Bw+Eu6acdlQ58JFEQIAZuQMcrkD7vRwJgGE0apJE1CxKanDVcCzxKRUzgEKX/lyTo6wVjLlDLvJ1J+UF5uQk5ZQscjjjiifYjnaCxBbemLcnU1hfeMdNRH/Krg2NKVlvcRoMIYcVOQNvIjaAlf5+0/+clPtvBRUoSvtJLuTpEyakdu5XrrW9/avqNwxNgSFQXFH+8oCyUQmrDVS/zahh17C7QH7WH2TYDz26oS0FbiMWZ5+mTFMrbl2isBjanhwgzsjLqd4c5PYnKGm0nn3Q4iKOVBGETQSReDOhmDuQgS+wM2qd1v5GSMdymDsGxpHQTkn7xDuwg65QLCj5An9I2OX/WqV7UvsykD9zY5RUQYRiiKW+NzSzsCM+/Y4thclZZNaP6Okp522mltE5YCt9yms3tXzXaR+Mokbf9UtlFtD8ReheUw+yPKZSagjMoK6AXicuOD0C312QlfdUxH2pyt32m7tE3aYDswm6AEaho7Se+gsPZchzEwQxhCRyS4rEFTAJZohCHQEi5MtR3U+PLjDuOwCTyzgnxgZk/iU5/6VPsJjHv/P/CBDzQmjuKoTBf3Tsq3KCKw1OdfjQ2kTPwgAhgsA93udrdrMxvHPdFVHc18nMDSmRIvaVe6ROmlzozw2kU6lLS9FUtrlqBsHrv36Otf//pm24mT8sSG5APJI+7YCWNd/ytf+Uqbqbl1lW12ow5GmJaqoiAJeu0JnmPUjw1xi1PL0bE3wCcOLCwKbaP9014BP0qAMgmfLCvWXglo3DR0GlSHtATz0Y9+tM0CsrQQDBliK6gMwx3BFP8ILGWgDOwZYDYjS2vOljyMPt2zg5kTtqZT090rwXIRGozdea7KASLkGPS1QXz/+9+/KYP73ve+bUmHsiBEKQoKGAjPWWVXt1oGwhmtxKc4XUHxC7/wC824ssOmsvQqndCt0ioGYmc5iU2hmM1oA994+NiPAlBHwp+ACcThTxHkWT6hRYVwdSY0KUzH9hFaam/9yExNe6SNZyFxq60d9VMz9sxSA+5F0j1MWHslAOmcEObQwSkCgisndYTbD4SJ5Ef4EPZsTGeZwwjXWrtbPp09p6SqgKnxU6/DAuWh1NzXZInI2X8zBEpAeS2DEaxB6hSjPdLpUk+2d+nkOig/aVqmecITntA22h3bTFt6n/jSDKQtraSpTDacfSH96Ec/utHc4ICyEUZ62ie0TprgOUIhbnbg2Zfp+Ytb4tcwMHzu2B7Q1o+evva1rzVeYeYh7cmubUTh4+MMWhIu75cJa60ENBaj4RgdmcEclhUII6PUjAYxAQizF0g5qpGv0aQyGO2yLXtYknj+858/etSjHjV6/etf34Sf8MpGKYRhF2H0vUatT2ZVymm5y9fZlm8sdd3gBjdo79XPjAFCc4JavNpmbOAWLm2UKX9G5gT1mWee2Wj1a7/2a+0YJzpKM2koDzdaZ/QOZlyWr5j3vve9LU1h2ZblKBzgh9YpW+rIBN7FuGLDprZyesZr4ihTyhLw79gZ0jZmhJkJ4LVFIXzax9Ilxe3gQ5b78J12S9svE/pMYAyNppE1okYmbJ3ywCSERRo1nXOvGlna1UDNW1kIHeUjPAhLZ9EtTxBwPkryHpMSZKlPTe+gkWUPI6jQ3QV0d7jDHdpP+o20KV7r/DaRjZR14NQndWFqO3jHpLOnHcWjBIzanNahOG3kWtbx9bawNb540hX2yU9+crvl04V5RpDobd1fupRAlgPkIU7Kk/IFBETqLX0KTjnlf+c733n0zGc+s93BJL1LXOISm4ovtnJ1bB/aAv3RnBJA5/DHViEePvCbSkogbc5OO8VvWbDWSmDYaSMAjBRsxnqOcEhYHbN28L1E8pG3fBmMzCaEjP6NSLjdSe9DLSNqjJ6yV4bcr3LPgvJQVOxaL4LfiSH7BO9617vaWr5joJTdMccc0zruEIkfVAUTZUBxctvoZ0vHMp/lNPSyRESwZ1ovHFq6SNBXycKasRAY9miy1KS86E4BoHVtq9j84i+cPY8rXOEKTaFI0y9In/e857WjwJaupElZDdOC6u7YGtIO2sCJO20dOi9C1/CY8NwGWdrLabDIDOBeRqy1EqjQkGlMo1Br76Dza/i838tRWfJIOSACIcoIAxNsGdlgaoIpy1bW2Y1QjHQJN2EOGyJwIXVNR9WRzAB8PW3tnTC2hqvTOkkkrjhRcmkPtk4eO2kJiz78CW0buEZy0vv0pz/dvl+gECh9m8l+onPPe96zHccVhjFiT1rSwQ9RBsm7CoDUJUqJ4vFzc21EQfum4bzzzmt3LWUZKGVnkm5s7zt2BrSkfH1Hou2Y2maTgO5pA+BmtBElzgT6WdqpxlkGdCXwbaQBdUYjbAxC21tKSMNnRLBIp6xhJoWf5BcmGzJR/OSfdUzlDOMRbtanCUijFOFcW+Dumne/+91tBFuVwTD9YJr/bkOZlR+q0OPPKCtz3HHHtWshKDYbxt6xMwJjCNoal5FelKT04y+8d+hBYerEbHlQNne7291GH/rQh5rg9w4feA+V3rXMaM2d54DAVwbLO5YOzDCud73rtY1q+xKWwKSZ+CBtUM7UIxim37E4tBeafvnLX27fdqC5zX70n0VX72o75Fl/MwN3Ck3aFQmzTFh7JTBsMM9GgWzMUlEF6TyIi/GMOjN6jfGO4Yb6bhaGDAdhUO+M/I1wKAJ5UwC+ZHUyxu8LXcSmDuIIz1QGH5q9RIR3BF6tf6UNYexIqes0KDVKQOcjXI2wazlTbnHjL6346/ShoY6MHoS19vH8V3/1V412wnonbNo86SUtkHbSix9IUzrKqk1cl2FpyTcFNr+9V8bQIPVNGmkXJv6hR8d0oNOQpz2jnXZ04g/PEOAGd4vQFH+CsNoJP1odsKxnsBCEz5axnfpMoEAjYpYsBW1F6FdgBAbDEQYZWUbgYRhpx81AmHerSH7imykQPGzpGs26bM3msY1Xf+qKMBQ+BoSXTjrOQSH1iZuQJkjtE/h/gcv9rK+jKUFK0Q6hTugd2k6DDk1xph2M/NEP5F1pVGmSMjLJg60sjHb3H2Z3G7lZ1RKTbyI69hZpkyG0qYMT4fVJYYYQpg4CtC+eu9zlLtc28rVx2j4IrywTuhIYQ2OnkxMITgbB8AhZGGdeIxP+hBNmscZsjR4sY3gXBZB8I3ST/lYRxksa0svJJgKfnyOlrlPwe8iXvvSlbcNzEgPD0H+/MKSreoDyK5P185/8yZ9sm9/+X3Dzm9+81Y+S0Dkp25Q9NJ2nyCkKaWj3qhxB/GDormlzy5vw53b6x3q/ZSynnSgw/JB26tgbpF2g0lkbu6XXUp8ZpOVAqOGnAT8lDHd4zUwgvCavpDUvvcOIrgQGsLbuHLkOnvXgrXZewkCnd7wxX5c6iYIZCRtnxJMmptlq+pMQ5ks6STMCjlLgdu7dmrRlorPOOmvznHrKEeF5EBjmW+uUMqqHu4Js6FrmMjPwLwN1pGAtFQlnyWWeAgDpxo6pz1DLAZ65jQTB3pFnAuYud7lLo6//CFzjGtdoZUr4KP+O/QN6o7vrVswGtBWeJ8C1Sdp0EqqQ59aWvh+ynDTswxXL1sZdCYxRGQGDGCkQItaJtwPCACP465ZNQUcArQk/4xnPaFdTUzQESEaOlEPKsBMGqvVIOhnZEp6MvJ0oMjPw7wLr7RRDXQLJCPygkI41pIVnylWHZBtx+3G/ZS4fnDk9ZHlH21F4w/iToK7SE7bSD+rzkLZJm6JHU3+kM9MyQ7HJbD8ge0HAjlDp2HukjRib8hQz/te/tXkUMjMNCZdZXC48vMUtbtEUAdT46WvLhrXmSg0WExAiGtaacxWMzKINnI1By0FsjIOBLA25994IVlqUjNGFpQRhkg+zVaRstay1vEmTcDTD0RmMnq2T+njKT90pB3HC/AeFYf1TnwjsLNsA+l31qlcdPfKRj2xfBbtFNDRdpFNGASe90G8S5J11YEIejdAR7Zz6ueMd79iUQtqS0Akd5SGvaWl37BxoXNubG/2dCKIIrnzlK7fj3xCequGHyLsMKMwyCf/rX//67XlSW85K77CiD03GSMOlU+vkBInG926rHZcAogjquqE0CAEzA+vyzisbxUZQyS/CYyeQVuojLfmzmbxTDqdfCH1Kj7JzS6kjkoQZ4ZVyHyRqXZSH8YxOqVfAz/KLn9L7VSe6ovU8aHNpDmmUtEMHtpE9Iy/08/8A3xf4Fakjn/whZfaM1soivSiajr1B2hC0gbY10MLT2fCvSnkRpE31ZysEFIE9vuHgAeQdflkmrLUSqB09bkoAwiT8I6jnQVgGg0jTslCYJe/DNL6CdV2A0esNb3jDTSFTl4gmMVTyWITZwqQx8aPc4nZUzijJUoq9ELMV+xg20Zyl1mkiKGOG6cVmojh3gqQdDJ8h+SQvnZxAthl7xhlntGcfB8EsWqHlEPySLrfRv01p7cN9k5vcZPTmN7+5zQB85Yw+tV2SZvLVlnnXsXfAE3glbYfeX/rSl9oX4JZmXQVSsQifRmkYUJhF2PPJHtCwTdPuy4bOlQUakVCERRhkGsIMhEaYJfBsGYYfge/OHNcHPO5xj2sjWaMVow4zA8JDGsIyETBszB5/ZjtIXCP/3KNjw4tisrTxrGc9qwnWLItBBJ4ypG6hFTtl3A7ETxoQ5SO92rnBCE04Iz1/FnM1tRG5dXnHYr0jFBIXuIcm/rU+6C597cBwM5YTKMgXv/jF7WSSNqoKACYprI69B7prNwjf5PZXbaNfhx+g8tI0JCzeyHcpTqcZCOTdKmDtlUBlCu7MBCKItgvxLQuBdKuJcoggd5ukn6D4mMgSkWsTMK00MByT0aR4GZ1EcC3C0JNQ40pLnkY7lJNn99q4mM6RUj/Yobz4BxHMSUP54rcdpH6Jr87JL+myU38nNd70pjc1wWxj2PcdOitUGoG0IenH8GcIebbwoTkFQHAY7Vv6QQd7D/kFaNJLuaHSp2P/EP7QFtqG2+DAR4b29/AKpH3Yaft5wFNmlZaBzCgg7b0K6BxbgCGMesMg2wWGlEaUQEUVGmzhhCdwjj322HaKyGkXG5ymoEa6lEZmBiAOoRVBt5OyBmYDygF+2YgOyugSN8rAby79nEVniCBWDkj+wkdZbQfSFZdJWaSZeoJ3RnhuT33MYx7TfrBjtoI+9jdc/pelIqhx45c8mICCI/hDZ/nbBHTPj30GRz6d7NIWgfiZqSVtdtwd+4f0jcCJLf9+xhNmhtpTu4THantNQ9451GH/7B73uEc7ngyr1MZdCYxRG5Q7DLNdiIvRqkBMemFW/mHGKB3Ghyju2HeNseOGzsMTToQURZGjaeJJizLYSVmDlDO2/Ah8SkiHuuCCC9r3Do6UOnMdIR07dd4JEj8dtZaJUabPfvazbeTv0jdlysa2MprJKEfoUekSd9KE+BHk1nkz8pemZTp7NmYYN73pTdvsCBJHm0XZDNOueXTsHypP2t/y/wf9w4ZuBixpq0WRwQXc+ta3bm0rjVVq464ECjQuptkpwiCEREUYsAqNMFWeAcM6gkgBGIU642xJgrBjXD9goxLEDYNvFTX/5B0BHD/LYzoR2wj83HPPbVchuMLBEpEw4ihDOuF2UfNl6ojenoXrFx70oAe10x7yctePshH+noejQai0kSZIkyH80ZGA19Glc61rXavthZiR2RexlCANfMGueUTJ80/9U96O/QW6pz2M/G3cs/GItjGAqAgvzIJ42t/BCQcmXAOSPBaJvyzoSmCM2qh1ur9dSItAqIxXmSb5YVzhMFvcmIyb0FEW+wUuTrNZa/PYEpMRurQpiqSzHdT8gTtKMHXwbKmIgLTUYqZiZmL/wlfQL3vZy9ooPMtD4uwGsozjlI+L8Ah/s6Nc7OZ6aUpJHYTlx065lSVuNsQGo37XeKifdJzvN+r3AxmzHUtx2kIbDNNKOqG7thi+69hfhPZ41bc4TojhFYOmLKmCNouZB21qkGAw4u6nzAbls0j8ZcHaK4HKEIQIZglDxUBsqO6KpOU9BsI8bOnWfGqaBA0QNBE2MZ4JKULXerQ7c/xwxcdd3hnpWK+0lJG4SU88bv41j6QrzUAZGahLHExmM3FbG3W3klERv9NPP70tnZx//vmts0k7aSUOO8/exQ6EqeG8U06C3l6Ev29Z96cQKUBloBwgilbcmJSBWzrATt0pz8te9rItHfEd+3vta1/bZje55wd9Qq/EDx3j5z3UsHnXsftI+4Z30saQQYP9LH3EMg5oX2HCJ5B0EjftCGlntr7l/w/HH398M/yGcVcBfSYwBibAUGxr7vMaeh4DhFny0dVQeGwH0lNG9+S88pWvbL9JdN++ZRr+lojC+PKJ4pF3Rsgpt/A6xVbKM6yzDWOX0FEG3KbLBPbnPve5pgzSQVN3zxBh6Z1yEf7C8OeX46qOfDqJ8ZrXvKYJbHDVhal5ysKOO3WRFj92Rn/cjNG/jo1mfi7j2gm0NKtB18STlvJ0HE6k3cNH+I3iNiM1Y7ZkiY+yITwPCYNfpAN4JcaGsGUh4ZhV44+15nQMFDvCyReB3GGMymxsZh4igDFn4sEicach5ZM2xvTvWwLM0VLCzJq26Solpg6YWd6EbBjWc2XerZZH/CD1czsj5aNMr3rVq9rPbF74whe245qm4vIP0FQ8Rt7Kws1fOKMuJ5CcjHrCE57Q0rVkQylYigJxCOpaD0jZ0knRiSDgtoSmEyujGYR7fpwqOuecc9qsSh7iJ01x0v4dhwvahgkfaWMzMe318Y9/vP0gCH9kpjgP0oril1b41bKnJVB9y7cB4Q1h8dYq4aI9ac0QhqrCCUPxy9JGBf9FgJmMtAkuaUcwbRXDOJ4xYdzOLTsmSei6KsEo13vKgOBje07dIDZU96JIWmijDOpmCm7URZj6KtPdSK7G8FGV7w4yJU94iFv5bO5a97fcJa7fPkqLMvMjEMpEuMTRUUNTRllSnjwLT4lYKrOuK7yrHSgY9LKMhX7KJb3ES9m2Q5uOvUV4T/sEFDs/gw4fCuIVsM8TXpuFtHPSxANkQPjtlFNO2bwKfhh2VbDWSiBMpeEjVIwYCQWCfHjO3/swwiwQekbmli8yGt0uxB3mayQSJiXo/ODCera7629/+9tvzhaYHH0cpiP+ToBGZhuhm85nJK++hPcnPvGJ0S/+4i+2Efc73vGOdkqjdkpudHLM00kc5ffhF7rphP7uZskm5VantFWENfCr/sIqly+fQyNxnbRCH8dLTzjhhIvUPyPJQN1qHh2HA9qy9gPwjE/8kxovCRNe454H7RzeEh5fGDTgoatc5SqjG93oRpvLrMKG11YJndPHiKDAOGlwJwuGSiAMOI+5xMVMv//7v9+mlMIPmXcniLAD6cqL8rrVrW7VRtKOlPqNofVz9TK1ZcSjELJUVAXhdoBetV6Ep7rrhGZSlMH73//+durGNwYuzctIzYzBySLn/a3jWqdXHjMKyz9QO3LNJ2629zGefd1pFkEZycs3F/K2vOScd9Z20QId0qETP+6Ow4e0T/hC2xk0mAG84Q1vaG2b60/ShokzDcOweDAnwhwYsHTofcKw5c+sCtZaCaRxCUqNr+EtodiQJNAygh5ikl+F5Q0btQQiJp3HiIsgeabMSVOZPbPVwZKH42wUgW8M3Hdjaky5eScsBla3nTCy/BKfnfJwo11uKLVZZ33WD2xcvWAphtA3zSacKSppGc1RAMIqozZJetIWpj4Lo76hhY5rA9moXjra0Mde6CAv7xI+ba2ckPSTR+yOwwVtl7bBH2aSv/M7v9P2xpzqsiwJ2hOfMPMgbEx4w+AF//hvAHngXUXCrgo6t4+h4QMM4O4eyHHRRSEsg/nMIoxEKYT4D5lpK0ga1c1UgWVky0+5jWD8PYzQffjDH97KY32eImCM1NNJkm4QYQnJZ4gI44CbiT9jFkQRpHMapTnrrzyWynyCb2OZAkAro/dhGsk77vosnLI68mn5R/08m104PeW8P+FAAaKTd+zQLO3uOekmjzzvFMpJ2bCDWofYNb+Uh+1d7FWHOoYnuVPnuNHEe/RgOwrq1ljtb08Ar2XwkDhJo0I6Q3qD/mMjGJx2wzvpC9XEb1Ww9kqgMlgamJAkSI0qMVXepeEnMRbEH4MyljgIpuSxV6hlixtjE35GNJZCjJbcUursvaOd3EY5NZ46q786hya17Ek3wnMa1D0zDQKQkSchb5Pt6KOPbrR1wRe/5KcTgnzkkc4evxhx0xGlJb70jdyc97cX4aruaTO5YNa7nUBdUm95RDkH6qxeET4UsrCBd6F/ntcBqW8E+RDokEMGvkux9CmOAQX/Waj0F58JwksOVvgOxbFnS6tZDq5xVxFrrwSCNLSOmQ+hho3Pz/vKQEN4p9PnLLpz8xnh7geUWRljM4S9fxYYOVEGrqAwcsL0/n5G+AtHEOloOkUEF/8IZHXwfp5QEk+dQYdmxDHad7+731nqbMJUYS9/eYhfBYFn7/MOjNiM1OwtqM+rX/3qVjd/faL8En6/6F6hjOjHJH92yhSh49noVftQWOuO0AhtQjc8EV5go52joDb5Lfvh4/BakLgVk/xAXtLVBxyisHfmy3w3xeb9qqMrgTHCIGyNbiaA+Qgto07+1cyDUYnOjWFdZGVNPoJuPxEGli9jycSHL07hPPrRj26MbxRKEeQcPT91jOBm4pYeM48GqWsUhzjSzWiXTUCij7Q9CyscuyL58dcWOqo/tjk9RNg77eOK55NOOqnVQbogfBRMIK39gLqHRuoXGjB5ZoeujsT6CtsznguSxn6V+6ChnlGQoZX2Y/QpfOLyQjNb9DLQ4l/pE5rNQg2fAZAZpYMcBhFO20lnkbRWAV0JjFGZAkO4R8bojCDPRW0BxqjhJwEj68w+3LI5bMSis/PfK0xjWvVJvt57dgWFdXM/s3F0UtnAzEC9IzzVMwaqexZ0XuGqIshsiJ93nuOGGjZuYFNORmhO/XimDByF9VUxZeYfwzozyFsasZlFy71bUEb5yTu0VyfPqaP62w/JZXXc/O2jsBMH9rPshwlopx0Jf7SgAHxL8vnPf775OVQQGqFZ6DbELPppB3sK+qivximYuky6DuhK4NvQ6Gl4U0GCEgMabYJ305hsCGExKUVgueLLX/5yY9YIwv1AOgUjb2WKAFIvRykxvXP8jBGQTkfA6hQEbugRSCdpzUPCpAxQ40VQphNzJ5xyeBaGIjWD0Q7K7Nw2QUABXO9612sKouYByUc9a577BWVJ3gx3yocvfE9h78I/CuxfWNNGByNb4UKboNZtHTCsu35k9upQgZtr+Zldo2XCbAXCy8OsEW+xzSjMKi0Fhye1wySIv9U8DzO6EijQsBjAkoMrhTGHEWZlygjS6jcEYc9kX8AaOEYWZ1a8nWBeut4rtzolLGFr9H/3u9+9/cjG7MCGqjrqYNbdzYTE4zetU0xCaMRmKtLJkm59n3z4WaaKALXB7eto/1i43e1u1xSVd1EYMSljnod57zfkzyiLk2LuuKd0KbKPfvSjjf5mnHVjc1KZxV8X4I/Qzd6RY77oZQnQEWKjdvTS9qHtLISe4QnAJwYQRv2OM/s1qX9HJ8y0NCe1zbJj7ZVAbXDMx200nFMnhGFltoSdxwyYTHqErtELxuWu8Sqz7wZSNkhZGWWJGyIoY1N0RkCuVHDk7iEPeUirszP+Rt8EFSQN5fUekkaQPCDh4ydeypLn1L3Gsydj3d9HZ2YAj3jEI9o3D75/sBmsvGhZ6xU3O+4oiL0C/gjUI8pNnvXZgMBA4ClPeUr7PaVfHhoUEGRozChz6BETxF3rUsPUsPuBefmlnLWMQZ7RLvThV92xLfu4G8txX8Lf8o/l1dB9q/0nYdM+BntmFAZBeD7XRntfaV2Rd9PeLyPWXglAmCkNS3gYaVqftXFKEKXhhV2EATCqzi8+ZnY0k5980gEirCCdYC8xLHfqFKOeZgKEro+7nJVOp/PRmVFTZhIpf+jBHcTtXTpeTPwSX9wIa0tQRvwUpn/C+ofAG9/4xnbPzzWvec3WSYULap5Q31X3XiB1AIKj1suzsjHuj3JLqYvq3KVEsRlkmCWqZz6OS1rTIG0QllvabG0zpMNBo5YVvwQpb8rMoBUIG7eZ0dlnn9340L8BfHjpqDX/pA3VvQgMHrJ3lJkkvnLpoWUhbVH5e6vpLyu6EijAlBqfULLZaHpIMDovjCHS8eYxR4QaJmNbEnKvCYWQNNgVwh0EwvARQhSXabL1dl/cEsI6CiVmr8TPVpQ9tILQQ72hdiDpJ3wdvedd6G3pSb6+HXA6w7KJTTr7Fj7gS16HBepHoKQtUxfP6mmE6Q9oTi25FwkPmFHhCR/NEWihgzjceZ6G+h7NxJPnvHgHidpuyok2EbShFeFPAKMj5e9Lcv92dmqKcLZpjm7CbxfolWVagw35WgZyG++1r33tlnb6LVQ+XXV0JTBAOqQO64OqCHIMkhHeIpCO6b44GO8jH/lIGxUmfdBBkv5BMJyypE7pmAQxmx/l5wMsf2myLosGNjX9EN87QtCotgqkWr8g7+TFFk8ccKzTUpTlEbT4pV/6pbZp6u4jS1Hiol/Cw0HQKlAeBtQHIuiUUT0++MEPtn8rGP070055mkURZpSD+OirvkwETtKdhpq3POUX2u8Ftptu2kf80Ka2WeqBfow66CuUplG501L8zfzsCewGws8GFNI1I6Oc3Q8EyqcPaI91w1orgTAjBmFDOhVhaHRKAIFnWEQAYfyEt94rDsFgIzDpJV/5HRTC+KA8EdLKxGaU0XTcxtnrXve6dqTUEhE/G7eUgDTEYYSvkG5o652wnp36IRxdHSHfO93pTu1nIE5o8Kv5Z8StvIvQfz+gXEyEuHb297OnP/3po/vc5z7twzXvDCYInAgz5Rc+9YHUdZG6hQZoJg1pHTYoFwMZXKSOTFV+1vk//OEPN+XvD3IuHDRS997sqYbfKkIrfIle8nPUWJquVLHM6BkPQ6Vnyr8OWGslUIFZqk2ImybmigMmzJww04CBstYLEfRGOkaCnjF1Oos0DwryTv5RCJAOkTp759isbwusbdsjUA/fVNhgs2yW+jDiVTolHaMxndw037NZxXOe85z2BaglOGmKzxYn5UjnPCxQ9ghiS2X+gOZ0lXoQ+EacaOI6C8uA6jMUMKFRzCIQl6nCddG4u4VF8kuY0Miz+nMrs5NShL8ZpgMJjvwaoZsx6SMMCB8+3ApqeG7916zT7NJtsvYbKGjpg/6YOCnvumCtlcCkRg9TYDwjXcLO6F2n24ogkh5mx1w2AAkEf7LKl6FDgSBs3PsJ5ZxUr6EQDgh8V1C4BtoZd0pSWJ3L7MAIX/jEkQaFKp73hCOhiK5Gf04j3fzmN2/xE77SIc8HQZtpSHmMVN/61re2awYc+7SGTZARODn1o/ypQxS/Z0ib55l7FvCgOJZO0AuN58U5SKiX8rLN5pQ7/wB21PdRj3pU2zSnEPAQ6CuhU3hoXj1Dv1nAe9Ix6HBCyyxfmvJlD9tgVn6rhu8eM++Tvu1eS2j8aUyEcZ1K+NjHPtbc1nsBY89CmDZpc+u0llGcCvG1q/Sg5l/d+4lZ+edZnbjVJUKfILeJa4SlcxsBow2Bb5rNn62uFKk0nP6xVm7Z52Y3u9mm0pBu8qjlGD7vBeSd9oodeIYIMyDc7fHYwLRfgj+UHQg6m77hkaSZdKo7yLOw1UDS9WwggZbCO7llphrhmfBbhbRq3PpsecsGvTai8Laah7Kb+RnVO2jgo7hnP/vZ7fpnyz5V+KMbE1qE3p7n9begli/psi07ahNlsA/gBJyw4TeodK7udcB3jYl8UY7s2GREtj9kuZpAJ6AQ8lXnLLJhorzHSIzOSyiK709bNj4BgzOYdZmYLp2UrU6Owdr3IDTcl5TZDjoIZ6nHR16m4jluKm6WoIRL59tPVPqnTmkHz8rlXUanZnLOrVMCTjJRct4xZjggHLNVJF928uW2pMKmXM0yfEPxjGc8Y3TcccddJNx2IY3ET7nZz3ve85rQ9N3GhRde2PxTtllQHkA/fK/Mll4skTpY4DkDA3QL3ePeLvBP4ktPHjnq7T/BluoMQrxbN0E/C10JTEGYyTEya73OzRNcBJ5OiWFngXATrnYI6+dGy9bWjR6NkiBNsEwMqczKy1Y3xmjL8UdXZRjlGQFa/rHRazRmeW24jCGN0PoglAAoS+oTeNZ+BAkYBPgZjpG/a0C0r3fqmPqnTttF8mdXuuAhtEE7sxAfUPmHsxG6ctRybwe1LSB1d02D5TpLKdp0USSdCGV8TkHmOxPKQP+hBCrdd0I/aSQt9GIoAO1z29vetv3dztJlkPDKmPzXFmNCdEzBmIE3/vEf/3HjjW9848ZRRx21MR7NboyZC6fONWPGaoZ7zGgbY+Zv9ngUvPG93/u9G69//es3xh1hY9zZWj7MsmHcmVu51YNJPVKvccdvdt5B/ALvIHH3G/IcC6OLlDH1Uk7vxrObjfEMZmM8gt242MUutjEekTc+8Jy2HiuE72j3rZohz3DLQ15jZboxngFsjGeQGx//+Mc3/vmf/7mVEX+GhttFrTs76Z5yyimtXmMlvuV6pfx5ls7Qb1K4Rc2sOGOlszEecLR2OvnkkzfGCqzVCe9pT+7wZcfGxsEMvZYIRjFG7qazRi5GY/NgFDKmbRthjJl8c0QHrqs1IzCScxc6CMssG0zrIWVX33Hn2hyNGSmrf+qHDuKEPgF/cZj9hryNTkHZx4Khldn6tFM/9i78YORDH/pQm9V4b3khYZRZXfBGyl/rthWIJ41KM/nhOb/HlL9ZqY/3hAH8GfdOkHoE6uPDLbSxF7bVtkHXpOdggPTyLC08wBZO+T3Pg/AxtazATzqWzDJjv9vd7tb2bdAOHZUjbS3sbtBtFbD2VBgyU4V3mMdJAufYLXHki9lZECcMLg1uAga4CQ/TevfgZ7OZ/7JBPdUvQl19Cf641Ynxvna6KArh4sd9EFAO9VBeAoKw+oM/+IN2ZNEGonVxJ36Ec3JF2wmT9lTfCLDUl9ku0EF8ZSHgL3/5y7cNYcdqLWk4VECRolvov1Papbw1HUt7BCmhqr6Qssl7kTqqg3A5Lp1BA6SPMNx5XgTD+iYeOoG07nvf+7b9DH0XtFH6Y0zot+7oqnCMaYwQJsW8TrIYUWBoQmEWEi/Ic5jPl8PScCWDbwcIFgy6TFCPKthrnSMkUmeIzY9wCC3iV5/3EwSB8qK/Wypf//rXt69WHZrjp52sZzOQOqeO2i4CrAqZ7QJtjFjl6yABweZILqXkYypKR37yUoYoo52gthNwUwDqZuNbHsP38+oozQhZAthzlEHeh17c8Z+HYb5pC6N/ZUU7H4GZwVGg0g2dkg+z1XxXGV0JzAFmYa5ylau0Tuh0g9MSkxgIswUYPAizQxgwp418fPX1r3990x+SZ9yHEbW8oO5Dv4rQKu89i1OfE2Y7kM60vPOuhonwJKBs1ju7buRI+Nu0T1lsLEaYMWnLCP6hSfoV/NU1/OF5kk2AZWZBATjS+Fu/9VvtNFKWgIT1noHMvHYCdRqWJbMe+VReXhShV5A04lffVXfyn4QaDoQ1WzJIozTdMOubDQrAkiskTqUTW1xmmOY6op8OmoEwSzqJ/wWfeuqpbSQPOTtdwzAExDR4L10jPqMX672uSPYBC8YlnLwDaabjd8xG2LjSil/aMAhNtRHjCLAvoB1xNRMAS3RGrRFcW0XaOO7Y8c87iJA14uevbC7NO+WUU9oFhpYzlCdLHbuNlEe+KZdy+gjOV7XKl7+epS6QsLuNSidgDxVR+oR+QrhTVi7qc+us/4BQpokjnPAd07H2H4vNAyYKAzqSp0M6509g+/irAuNh2nkdJEyedB2/M/K72tWu1pi6Mm/CAnfHdyI0n9TZ0Sx0q+Fc5+BrVSNtdzpZAyf4Y+8W0o6MdmUrA39tnc1Kyt/5f8c/H/rQh7YlIFdr8MdXtR67iUq3uAnVN7/5zaPzzjtvcynMO0g58rzbqPVMPulXKSe68QNLPmhmw9y3KOhZy1rtjikYE6xjCsYjxU173Bmb+8ILL9y4/vWvvzEW2htjRdCO7zFIGXuWGTNks4XlHjN0OwYoLUdRxx1w8wgb1Lw7ZiN0Y6Nb2g/y/Ld/+7cbr3vd6zaOO+64jUte8pIbRxxxRGsDZixkWpvUNt2ukU7auroZaV+sHDVlP/axj9342Mc+tjEeWGweY0y59xKhVfKD8Qx34253u1vjyfEM5DvqUeuy22aYtmftMlaUrZ+MB2Kt3dDtjne848a555678Xd/93et/GPlvUm71Guv6bcK6EpgBmoHYWMw9ite8Yp21n88Ctm4xCUucRHmxayViaeZytw/8AM/0NK7xjWusfH1r3+95UOYVYHG7piM2uGHdAodCYgLLrignfcngI8++uiNS1/60k2YaAO29mAmtddWTBVklIv0pUuIEaoEGX953v72t9/4wAc+8B3fVDCegRtP7BVqPtx48Ba3uEX7NkaZJ9VrL4180IyNTmzfSWg3NLviFa+48cxnPnPjz//8zxu9QPsqv+fQSl34dcxGXyybgzEDbtrMuDOPbnnLW47ucIc7tGOe1vTHjLo5VR0zXrNnIVPWMYO28M6d2x/wDYG9AdNx7+TH7piN2jYwFgKNhnFb+vFTdz+pd6WFdXbr3L5uFm8sOJpBa0Y6/HeCsbBqRv7S5s66viVFJ1le+MIXjt7whje0cskPTwSexYl7LBSbey9Q66ruvl/xpTze3E/+U460IZpx+zbC5i+aoc94Fj56y1veMnr4wx/elmSF0dY2h9N2TGjeMR9dCSyAdBJMhbl8ju4CL/6O0jmZkA68SGclGCgC8cP4TmMQDO7esSHnnnV5QcJ1TAf6RIhrJ8828F1W5n5/J2zQl8J1kVmERJR2hEfS4d4JpI8n8IaBAiVvrwHv+DeDn83c7373a3wQITYpT7yijFVB7DbkG15TRpvllIDvYtAivKcMe8mH0lcWtCD8GQMt7Wa93z8a7Me5/ydQPuFB2VJG6Xi3l3RbFfTTQTMQhoJ0hggIAsbdKu6TwYQ2iWtnrWQNcwZmDjo3/6QJ3ISEjbh73OMe7e9U+dhFnjUd7nVFbZehmzDzExfK1H9qnXJBb5v6jvdmhhCIE4EB3PwYqDSvGLYFd8oBeILhZ7PZNyY3velNR/e+973bxW+ZFSQ/qPnEf1Lau4nwM7qxzY7wnR/8GIgYgWfwAynPdjEpPr/MpjOI0k42xo844ojR/e9//3bxoKPZta9IR5wKfqFXwrA7pqMrgS0gpGLrFATNYx7zmM0rlHOmHNOFWYdMOI/cOhxFII6vQ516cOsm/3RYabA9C7cqTF5pFTrV57xP/asfUMT+5ezn5H5RaRkBjQgybUNJ1/RCw1mYVJ74JW7Kwp/gJ9C45cftfwl+Y2gZUdtWJK2DAn6NkFcW30g4Z+/KDPQ0M5iH1CE0Cj2CSrsKtEGv0I7RTi4bdE32bW5zm0azK13pSi2MdINhWh3bR1cCW0BIxWYwrCmqO9KNXCgDnSnCoYavQmsW0iEJC6NX9/U/5CEPGZ1wwgltlCS+MCCf2jFWBZVGtbOrb4RFaMxtpO2qY6N+68VGsIQXehnZSg9NA3HmtQMkL2GZKuxBGaKc2ZZ+hCH85W/k76y/O2zMBJQnaQbVfRCodDQDfcUrXtHu26EALJ3l/SykDqFpeLLSTTrCoYFZED99hiJgmxm7o8t/vX0kh25mAd5HUSVdOGi6rRK6EtgiQq7Y7plxGZxZgTVMisA7pnYgDBz/WcDswgjvvhhryUcddVQ7C+2n794z6QTyEHaVOoX6D+sTuhEWEab8LMs5025ZjsAnUAhgCpqNVhnlCl/TTprTMI2mEUYRbEazFABlxM+atX8nEP4EGb6Y1E7T0t9PhAbKgpY+G/rd3/3dRkc03A5qvaRv3wMfazezMkpSu1A6Bjo+jjv++OPbpq9Zr6vHc3gCzbTfYaTdqqArgS0i5IoAYH/gAx9oP54xhTbKsaEWQREGFm8eqaUXoQU6AgHCT7o6KMESIchfmqvUOWp9QrP6DGhOwPs7lV9c2lRHY342EtnCpI2SRuLDMM1pqOHiDuSZ22XNPpxWcWrs5JNPbpfPabMsSYnLBu12WEDYqwfjn79+wO7jRfVVr3n0mQab4TZ08TLlSODLI7Qw4nc7qy98/fLRPwvQyruUh7JgA/8h/Tt2B10J7ABIx2BwPxonkIwITaUpgjCuMOwIgWlI2EyBuXWCbBaL7+9IlocC4cSrgsXzsiO0VZfUh8DiR9k+/elPb0s/6HLFK16xHWs0yhQWnYQD9Eta4H3ciyBCKMIr8X3h7YZNV00IYzRrIOAPVka3wF/4tKU28nyYoFzoSuC6xwp/KafN9Xn8OkTog3/ZGfFTJmxHYf1RL4IfX5tFJYzBDZqFp0P72nYde4AxgTu2iHHnaF/2jpl10/Yl6oMf/OD20deRRx7ZPnAZM3H7uAWZ2fy4pxnhmYSr4ccjpfaRzHh0uXHqqadufPWrX73IRz7VrALQNHVRz3/4h3/YGAv6jec///kbl7nMZRptfPX7oz/6o5u0C43jHguji9Ax70LTeSZhxUva49Hqxo/92I+1dubnw68Xv/jFG3/xF3/RyjsWZo0n0jZjJdVs7+J3mJAyjZVZ+5BO/dSt8uE0M3w/FuKbP8Fhj2dDG2PFuPGiF71o40Mf+lD7snc8S2u0SN/5+7//++YGZQm9+KHlqvDzYUafCewQyDdm1DZK8QHSHe94x/bvWScczAYsTXgnzLhjtVHOLAiT9KTNBm6jT+uljjoaNble2OYjf8/BMO6yIPVm0AktxoKhrfU7V/+sZz2rnf5xVHAsaNroXzjhExcqS6OLNCZB+ISt7oBfZmVsyxvsfNx3r3vda3Taaae1dexa9iDuw9wW4cfXve51bSnITNYsAIb0GEKdKv0sX6IPP9dx28eyryVNCI3YwmhDbVzzyXt20md37B26EtgBkG7IwJ/85CebYHA9tHVRa8WEUGVuSDzPzDCtIWo8H85YhnCOmtJx/ND0Wn46FZPpdUXySVrKUzthzWMRJPwkTOrIk9KtfilP3JbVPv3pT7dN37e97W3NnyAmpHykR4gIJ41ZZR7mXcsUyDdlBu8jpKztE2QEpuUL/5Zwy6fz/paEtK+wySN1OCxQrkllS30NVnxQZ4/Fc77OTZxpkFYNY/+K0DcA8m9ip3ySX9JDp47Dha4EdoAIIIyekavnD37wg+36ByN2zzmjXoVMEPLzn9UU6UzSINzNCIy6bIS6SdEXzE6kOElEUAY1P+lPe67+KWf12ypq2jU9bnVh1/omLDqqk3V/Vyqcc8457TeHhK84uec+4aUR+s9DylDzTZslnZTPMwHPTXBpP+v+/jDnwyUbwhFo4mgTNohzmIA26pPyhgb8+ZkFUAI2ZrP3NI+eSUP8pGMvhBt9nva0p23+dyP5Cu+543ChK4FtIsIC04exkZI/mwD7jd/4jSbACBCKIO/SgdgM//jNQvLRqaRp+m0piJsQMkNw4sIJlctd7nJtZjBMM/kkz3TQIOXaKZJ+8oOkjWYRlCm7d0b+7k9y5NNHS1/60pc2T9egn1MmkLRD/3moZahuSDrxZ9BNvtzycuTTh0tmXa57RvdaP6Zi+HzQUFZ1ZKtTyod2jjT7WZIlTMo1y5ehxSzUuhuQOB1lFuHItOWg0DAKsobvODzoSmCbGJItHQezg+UK99Y885nPbCNbAk4HAWGHHXLRZqjhuY2QLVXoaNapdWynZZxS+amf+qk2MzBCIwTEqXlW8Kv+08ItAnEjeJJG8gbvlFdZ+aHPF7/4xdFZZ501+shHPtLu9rHUZe3dyNT7mg7FFfoF1T1EjQueGWmwI6TQklIlDCknQu2ud71rE/7W/dFXnYK4xYXQGJLnYYH6oFvKh/bKaNnGqTZ1o2grnyTsNKQNwVIQoY/f/KPBF78ZYFRaHza6dIzbZ9zQs1u6YyLSSXQaDM5wpxN5tnb96le/ul1eRpjlLhbQGZJGOgb3PCRe8k3HIsCMUHVGSsEIz5KF89j+XObcuum5eDqvOASD55q/50Uwq6wpIxASyilPyDtK0p/Z/NHLev/555/fNoAJYcLfngahJL64Kau4STt2zW8aaphaX27CCt0so1HWZhzW/NGNMKtHPtUFxEubJ734seN3GKCeTNpWGT1/9rOfHd397ndvStYyG7+8U372LAiDdtrIwEN7nnbaaaPHP/7xbW+g0iF20u44POhKYAeoDB23DqFjGE3qdDrXS1/60naShzDzVSYhJ6xwhFtNY1GIq8OmEwaeKQRfqsrHf4wJN/9IPvHEE9sfq1xK54y28iQNeXMzoEwRGosi5VcecaUfP+lZarBP4mMk+yauUpYfxUhoiENxRlGKGxNwK2/KRlksiiGdLWFIBz0IfkLMdQUuLLvxjW/cygTiMcpa6SKdpKnOCRe/wwj8ptwEvwMFlC9+QfOUW/2ECS9MQvgPtLPNYPR83vOe175sl5Y0QivPod9hps86oiuBbSIMHUaPEODOyRxhPOtwz3jGM1oH8WWkqyYoCR2pTtNndbracdJk6ayQsrCTjpmBEZo8KAOCznunWixzWOs2fbf0QlEoBySvpD0JtTwwKSyaGM27lthav5M+7qahBJRdGvYx0MLeSQSR8ksv9WNH0aErd81PnHllTTpJn+BTb8byE0XgjnpfZPMj0OQjTiANNKptHX/PcUOeDwvCi4AfbAa7LVR5cwFi6gapxyxITzz7JI7ruufKXlg2hGMgbRoe6zg86Epgj4CsGD9uy0G+yLQG69QJwUg5JFwEVDphOthuNI+1WktD7G984xttRK4zEr5OGbmpkbIgCK2DGwFblrFE4ngkgVg7dS2nMhIqBDiBb+ajbmwnfAgHm7wEfxSjUaM8hDMzUkdphl7bQcoFoRkaRpAnfWWw8asMhP9lLnOZdpolPylPPGksm8CqvFJpwK3uoYdvLtxOq320mXc1boBm1V/8tFHe4Q8DG7xs2ZMSrW3RcfjRlcAeAml1mnRAisBm8a/92q81QRzBqWMywgunAxGs3Elnu82U9JSBULMBSAAThtmjSIeWp1kMwWgjVDgC0yyBAsnHQCC8mQWjXuphqccsh22kDfIUVnzKT70pCEtVoHy1btutZ0VNM8JIuRl1Ck0ovCc84Qnt4jLr/miUmUbCLBPUOWWubm0apW/U7/pzJ7DQQ9sJuwjd0QSNpBsaux3VLO4617lO423LkPy971gOdCWwRwhZ0yEIWJ2H/e53v7spAiMxnZMAJYxBJwNxvPMcv+02lXyZGl/aBHWEIsFHMLP5J6x48ldu7yDvpEFoJn1GGGEpm7wnfKRN4EhrWj22W79A/hABlWcb5cpD6CmT7yr8tMeZ/+H9/uIqIzvxlx1ooU42488444y2NOkDMTynbRJmEkLL+r7SFa+YBbzsZS9rNBUe0LljOdCVwB4gnWbYgar7ox/96OgpT3lK25gjiNMpvU8nY0uDYE28nUB6TNLKMwGh0xKSOrVReyCs/IURNn7p7Oz4s6MEjD7rKJNJOEi+cdfn7SDlkL96KIM8jVSlawZihuOGTx/VXe1qV9tUYOKkPsA9LO+yQj3Uj7B33bmZjyU67cOgjTDTgC/EhyE90NOSno/oKBe0llZXAMuFrgT2ACEpu3acCLm8dzzyuc99bruKmtAiqJxQIYQ8Jy57uwJS3Bo/wrI+gzIxniMUE0Z4HbuG5VZGYVIffnmX9IK4pcU9LBc31DiLQlx5MknPOrWRqiOflrSc9bf27+c8lreEBXEj5CK8pOF9yrTMUBf1+9SnPjV66EMfOvryl7/clF8GHDHTgAZ5n3YFNEUv9H3jG9/YPlCE0KwrguVBVwJ7ACMso9GhgAuQnJ9wTu24EvklL3lJu2/IBq0NS9DpCNqdonbklKU+533KxSYolD/+CRt3FbgRmDUs1HjgWdi4gwiXpLdVSD/Gso8Rqg1n6RFOrtRwj43NbsJJOO+45TssJ1T3skId8Q8ee8ADHtD+F4A+BLd3te7zEHoIjzfMXi0vWVJz1Fe6aVtYBfqtC7oS2AMgaYRMBT+dg4mbbdnECRojNadoHN10QdzwNsftNFXyEzfx01lThsD7ScI/SNhhehXeST+j64rEF2+SMpiU3qJAayegzKYIJ8s97vf3f1/CX70geSiLeipH6hNU/2WB8lf6MgYZ6IGv/HcZDSiADCxqnYeoaUGe0cUmurTNtuwF+PZEmlGwy0S3jjHGjdxxCDAWPBt/9md/tvH4xz++3cf+fd/3fRtjQaYHtudxB77I/e2e2fzGHbO52cNw1b0KRh3VKfVGm0tc4hIbY8W5calLXao9P+EJT2j346PpWBl9m8LLj9RnLHDbM3ssjJu71pPfP//zP7d/XNzznvdsd/v7H8V4tP4dNBzSd2hC5zz7n8XFL37x5n7a0562MVYqLU9lUT6mY7nQZwKHCJrCBp49gvve975tROX0iiOXjnN6NsIWjjGyG3e65vaOOzAq41/9lhnqB6lr6m8z0tFVyz8ueXvYwx7Wjiva3Fb3sQBr8ZYd6sukPqEDpJ5pazxiCcgmsP8F+/jNwYN8LBhIYx7wkfTEQ290Fc9fwp785CePrnnNa7Z3McoQd8dyoCuBQwYdTsdzgsO9Q05d5Bhf/k3guGWEQDp/mlFckA4IswpNXIWK/RawOWnpxxUPrkK28UvgqW8VjKHJskO9mNQrwpYb8Ib3bl91DPSd73xn+5gLjRzjFE94vFGVxiwkD6BsKQHKwG8o3a/EDxIm5etYHnQlcIigKdJBdarsFfgI5z3veU/rtL4p8J5tXTYYNqPn2jFXAeqj7o6xEj72APxZzdevNtQz+0m9g+HzsqK2YwR4rZsTPzZ/3eX/mc98ptEqH/OFdhAek94s3hBGPqF5jIv1XDlhA15alELSYSefjuVAVwKHCDoUQWZEVwWas9g+MPPnJ8fxbMzZ4DPKowxs/lWIl7ir1Lyhifqrtw1JV3Fc6UpX2qwzDIX+8HmZQSinPviFmx9Bf/bZZzcF4Bio47FG/94lDnuIWfyRfAh1vCasP9j5yb97gup7mEb/jsON737SGN92dxwwdJ46E9BpCT4d2i2grjfwsxjn3P/0T/+0LRMJ57ieDmhmwK4jsVXpkLUelCTYB7D27ZSKWYF6V0EUZboKUC8mdMAbaWunyCwb+neFn8NYLrMEhJcYSPzwVk1rGkI7o39uytesy11TRv81ftzz0uw4fOgzgUOEdFRGp9PRI9jSTASbTT7/Mjb1d/TPsVJrtc5qm/67m6eO+hJ32VGVG6gXBemfCc7BuxrZPsGQbgTWKiDtyM4Awfq/DWAfg9krMitkqvCfJJj5hT7TgIZoR/gbcPhxPCVgEJL3ic8duncsF7oSOITQJMOOm2bir7MxlkTcP+QKClc0+8iMksjPYygLYUB4cflHQEQQJK/KCrWDQ3VD4gZJA/hHKMC/5CPd7/wr2KT8J0G4pJU8LFMQVEa/roQgpFxipo5GsPKqZUm9kmfoArUcSX8vIG0YlqHmz13LmTjxs/5vn8hlcGaFbny1JMSkrpB0hqj+wzChEZhl4iGb7r4JsPEO4jAdy4+uBJYQOrlmMxIk9Ak8Av8Tn/jE6Nxzz21fcKaT6rQ2Ua0P68yWjMSvgrGCv3hRFEE6fOwILuGFjX/KxY9wZofFhGGSP8E93M/YKuSVpQl5Xf3qV28jY/cDqTf6eCcceJY3I++cblHG0CM02CvIKzSRVwV/ebPVR7lDs7x3HbgryZ0eQ0N1svyTgwKJP3RPAxqgReotL3HMqqQp/QsvvLANLtB6r+nTsb/oSmCJEOEJmo0ZChHTdiNDvw60iXzOOec0PyNEnd3UnnCxdMCkMyc9pgpDiH/FULgI65nNyEMYQoy/vLNW7b0yJX7ySb6LoObPTThZDiPMCC5fyVoiOvLIIy8yI2DES1mVkx06BJXWuwnpyiv5pQ6xgTtKS/nyzjXQ73vf+9rGrHunCGXXOFe6JW1xaprTgDbaAioN0JLw12ZmHMcff/ye0KPj4NGVwBIhnb0KsoraiSEKwbrxeeed12YKBAlBTAHYP7C+m7QIUMoiI1B+STPCJc/KQEhUeBaPsUxD8BPI0mPbt+A2I/HOkgYkn5RjEpJv3ue5QpmyNCSc9J/61Ke2X0a6RoJg44+OEbJJZ5g+TMpjNyEvZlI+/NBKWV0qSPj7GxiBbOkHPbUjIc49TCv1QJOqJCZBmOTHjsLGGzabTzrppM00almru2N50ZXAEqE2FbfOC1U56MjeRcgFBIWPzSgBH6JdcMEF7Sw5RcAQmISzZSXCJYJ8GuQh3whcCoTSIejNNmzY+okMWzqOcRqVu87Y7MQylaOvyhUhBMq/FUwSSsqTC86k7avr008/fXSDG9yg/c7Su5Q9gi+mCrukt9tQPqjpp97Kqwxo6cf7lvfs+Tj9g47aRVuhm3DSquWuSB0mvQukV/OmRLWZP865e+ne9753e5aGtJIfxO5YbnQlsCRIJ0zHq8+asAqDKACdW8fOu9rU3PYJGMohv4V00sgSg5lCNhmN8KUVm58RqLTZGX0TUo5r5kf2/txlNEnoGoUbYdq8dirZR3DKQOlkOaKWbxpSf0j40CHvlA+UiQAjNOXvX7juvnfE8drXvnb7xaQ6hEZM0ol7t1HLnHIm/4zu/Z3N1SGW9PyzVx3QSBwKO3HFqzbU9OOehSgBbchNiWtDy2kUQK6MnkSP4XPHcqIrgSVBbaZ08HTCSU3oHcHATviAm+CoI8CAoM+6Olsawg2VAKER4R+boRTYKdsQ/D/3uc+NnvjEJ7Yf6lAcufZZuSbVpSLp1nD8Ugf+td6M8ikXYcb40vXoo49uXxtb6/bthZGvNBInae02pJk8lBMoW7MzMzPHfinKr371qy0s5YxGZmkJH8E9CcMyy2dWPaJA5EFJU9j3v//9234KdxRAwqb8HauDrgSWDLvZCWc1/aL5JI0qbKqwmJQHoUPQuYDM0pDwWZKCmvesdIIatiLxCDKIMjCyjsD3kRml4H8DLkVzvNQylplDTZdJvYJhvnkGfnmO8E58o3ozMB95Od9vvd/pGxcFEvaUqBkBQR9FDDXv7WBYvpQHPeRp1kb4/8zP/EyjC9Q4HauJrgQ6GiaxwV4IgOTD9o3DL//yL4/OOuusJogoAstQgTCzRr2LIvXIqJbwy4zFkhWByxD+lkMsFZkhXOta12rC0CzBSJkSkUYUyDxk5hShT8irs5mQK0AshamvvOWRfRlCn/CXnzQ875QO6mt2B8qODkw+/KL0fHNwv/vdry0BCaOeHauPrgQ6LoLKDnuhBIBQJOCkbw/i8Y9//Oi1r31tO/WSkS/hF2EVgbRdIZh0hm5KQF7KYg/DhjZF5DSO/CPsKSjXdrgv56ijjmrKwtIJxUCIUhzSiTIhzAl9m/CWdXzdrZ7CqIP8LbXYHEcLezHigTDeM1XwK4t32wUlkH0FUHeCn9KRz/Of//zRqaee2mghT/l1JbAe6EqgY19hNErQYDtuwsgxVjOC17zmNU04WgfPqJXgI6QI5e2CMEsa8vXMZpQFqtIxKs/oP0qBUFcWYaI8YgLvkjbknTwsOVEYBKy0nPzxXnh1TfnYwvNLfGFqPtuBslEEIC2KzSzEqP+Vr3xl+7gu5VYGiMLoWG10JdBxYDAyjUB1IunXf/3X21ewBJPRtNGxd4SisNtFhBlW567CTvqeCdoIcH7CJW/CU5nMVMRJeuy4IelKh0An8KXhxteqREDYmKST+PHL806VQNKSjrqYAUiPwn3Oc54zusUtbtH8kx+knB2rj64EOvYdBFAEWwQjY1nEdQh+vO/YKiFK+A/vw9kqpgk0rE+os4VJWTwT/pl95H3eQXVXv4oaJgomz9KPkkgZYGhDTWc7kJf4hD+3GY4/glmGs/fBb0hf4ZV5WKeO1UNXAh37DixHuBA81U0YWqJ417veNXrRi17UzsrnmgvLMtudDUSQRZgyUUL88n7YFWr4hIs7YSfFqfEy28i7hE/+nvnnGYbpe457O6hn/S1JWfv3DYAf8ciXgdAj+YjTsfroSqDjwEDoRAABVsxegB+jPPvZz24nh7JmTgnkGClhJT5/SqIKyqFABf5Dd2X9PA/tYPg8C5PC8oP4KyM3s0iek9KEGrc+M5baKNHsd/hq2+mfO93pTm0jXJgohxovZUt6HauNrgQ6DhWyBGOJwobxm9/85vZ7TSdscnTRiZZsnBJiEfhY2TPjvecIt1VArUvcbAYI7yhEJ5jQkNKkPJ39v/vd796OvzrNJGyN27G+6Eqg49CgsiLBRUA5MupcvVmBH6dTEq41sGlswzUKAAi2gH+ORa4KUr9aZ8jIHb2s+//QD/1Q21NBOxfnPehBDxqdeOKJm/8CMEPowr8j6Eqg41Ahy0FGsZClDL+R9J9lG8c+uLK56Rins/hGu9g4rCw8N+E4FJjLDPWqdSLMjfwZsx/08N4GOzziEY9oF+dd/vKX3zweGoRe4nWsN7oS6DiUwJaEHgEXEHD+ofvyl7+8bRwb6ebDLefuhY3SgAi5msYyI/WK8KcMuB31tPbvDiZK1NXZD3vYw9o1GL4HCE0Snx1lwu5Yb3Ql0HFoQLBFQBFmBFzYk+09oe6kkH8j+Kbg7LPPbkdI7RdY+sntpyAN6a0Ki0eQo4+Rve8WCHlLY2hz5StfuZ388eGXS/GEQxNhxQsIf+HNtqp/x3qiK4GOQ4fKkln6INAyouUmxHzJ6659f1CzcWyPwKan5aF8W8At7LJDvQlz9aMIHfVUX7MgV2T7yb7/ALsddbjmX0f8aMvN7gqgA7oS6DhUqMKpCq+qDAh1tnDcLmZzDbPvC/wsx309ZgbSsmQEZg9xw5DtpTWpK0zynxY2yPt5cae9j3/eWerJaN7o3ekom7wE/u1vf/vRzW52s6YIzAomIenV/Lg7OqArgY6lxJBtLf3YJHYls7+XfeELX2izBMoiI9/MEoyghTeiplyGQpJJnKC+myRMJ4UdhosfVDfkmZF3lnoi9CkBZfVf4WOOOaYJfl/7Ev5G/nWDt6bb0TEPXQl0LCWGbJtnMwNC0yap65q/+MUvttmBDWVLJ5aUzBLiznXOEcIQBcAmeGte1T0U4gH/Gr/6EdZs/tzK6x0hb8Tv1BPk3iRpUFju9zn22GNHxx133OjHf/zH20xA2KQvXFDL1dExD10JdCwthqxL+BHsBCJjCcio31+7/Lzl85//fDtm6ghlTtiYHThaKa7lIgpEnAhq/hHGDHf8g5Rj6Od5+C5+zvM71UOQUwBuTqWQMjsh+G3wXuc612n/RaYAfB8hvDDqmY1z5Uo+UMvR0TEPXQl0rASwcfYKGMs+hGUEpY1iN3m6rdSegT+bveMd72j/8SWEMyJ35JRwNluQBohrZE6p8COkpTmr68hbGoQ2Q9lIX17i+auY2Qq3JR9p+sjL5u4JJ5zQrni4+tWv3pSFuOoEwkHqmTJ0wd+xXXQl0LEyCCuzq9CsygE8M04XMV/60pfaHoLjppaPLBU5Wim8Ebn0MmOwVu89IU/wViNchLT4ZhW+X6A4vE+clNPI3pe81viPPPLI9uMaftnglTclltmNuBBbHaTZ0bETdCXQsRLAxkwVlBGSYfH4Eag1LMFN4LpqwZKM5SIzBncXff3rX2/LSBm1C5v0hs/SYyKwY5tZEPD+SmZj1xe8P/IjP9JmHZ6zNKWssZMWpMzyij/jeViXjo6toiuBjpVCFcgV1T9Ck+DPSDr+cROwRuD5AM1+Qf0YzXvCmZ9w4kjL0g6hbubgLL9nS0BZEuIWloEI+ORfhX3F8Dl1GLo7OraKrgQ61hqz2H8vBKv8puUpvy7MO/YbXQl0dEzBXnWNLug7DhO6Eujo2AbmdZsu6DuWBV0JdHR0dKwxuhLo6JiCWV1j1kh/u/E6Og4CXQl0dHR0rDH+5cKRjo6Ojo61Q1cCHR0dHWuMrgQ6Ojo61hhdCXR0dHSsMboS6Ojo6FhjdCXQ0dHRscboSqCjo6NjbTEa/f+AyEVrjE8qbgAAAABJRU5ErkJggg==;" vertex="1" parent="1">
          <mxGeometry x="636.53" y="515" width="126.12" height="90" as="geometry" />
        </mxCell>
      </root>
    </mxGraphModel>
  </diagram>
</mxfile>
